<svg width="108" height="72" viewBox="0 0 108 72" fill="none" xmlns="http://www.w3.org/2000/svg">
<g clip-path="url(#clip0_82_6481)">
<path d="M101.338 71.7164C101.586 69.0377 102.273 66.418 103.371 63.9619C103.677 63.2784 104.014 62.6099 104.381 61.9565C104.4 61.9224 104.404 61.8824 104.394 61.845C104.383 61.8076 104.359 61.7758 104.325 61.7562C104.292 61.7366 104.252 61.7308 104.214 61.74C104.176 61.7492 104.144 61.7727 104.123 61.8055C102.786 64.1853 101.85 66.7687 101.351 69.4523C101.212 70.2017 101.108 70.9564 101.038 71.7164C101.021 71.9081 101.32 71.9069 101.338 71.7164Z" fill="#F2F2F2"/>
<path d="M105.106 62.4365C106.153 62.4365 107.002 61.5879 107.002 60.5411C107.002 59.4944 106.153 58.6458 105.106 58.6458C104.06 58.6458 103.211 59.4944 103.211 60.5411C103.211 61.5879 104.06 62.4365 105.106 62.4365Z" fill="#F2F2F2"/>
<path d="M101.532 71.7667C101.693 70.0289 102.139 68.3294 102.851 66.736C103.049 66.2926 103.268 65.859 103.506 65.4351C103.518 65.4129 103.521 65.3869 103.514 65.3627C103.507 65.3384 103.492 65.3177 103.47 65.305C103.448 65.2923 103.422 65.2885 103.398 65.2945C103.373 65.3005 103.352 65.3157 103.339 65.3371C102.471 66.881 101.864 68.5569 101.54 70.2979C101.45 70.7841 101.383 71.2737 101.337 71.7667C101.326 71.8911 101.52 71.8903 101.532 71.7667Z" fill="#F2F2F2"/>
<path d="M103.976 65.7464C104.656 65.7464 105.206 65.1959 105.206 64.5168C105.206 63.8377 104.656 63.2872 103.976 63.2872C103.297 63.2872 102.747 63.8377 102.747 64.5168C102.747 65.1959 103.297 65.7464 103.976 65.7464Z" fill="#F2F2F2"/>
<path d="M101.286 71.6507C100.345 70.1812 99.6509 68.567 99.2324 66.8726C99.1162 66.4009 99.0217 65.9246 98.949 65.4437C98.9448 65.4189 98.9311 65.3967 98.9109 65.3817C98.8906 65.3668 98.8653 65.3603 98.8403 65.3637C98.8154 65.367 98.7927 65.3799 98.777 65.3997C98.7614 65.4195 98.7541 65.4445 98.7566 65.4696C99.0225 67.2203 99.5743 68.9154 100.39 70.4871C100.618 70.9258 100.866 71.3535 101.133 71.7701C101.201 71.8752 101.353 71.7551 101.286 71.6507Z" fill="#F2F2F2"/>
<path d="M98.755 65.6601C99.4341 65.6601 99.9846 65.1096 99.9846 64.4305C99.9846 63.7514 99.4341 63.2009 98.755 63.2009C98.0759 63.2009 97.5254 63.7514 97.5254 64.4305C97.5254 65.1096 98.0759 65.6601 98.755 65.6601Z" fill="#F2F2F2"/>
<path d="M21.9611 71.7164C21.7124 69.0377 21.0254 66.418 19.9276 63.9619C19.6217 63.2784 19.2849 62.6099 18.9174 61.9565C18.8989 61.9224 18.8945 61.8824 18.905 61.845C18.9155 61.8076 18.9401 61.7757 18.9736 61.7562C19.0071 61.7366 19.0469 61.7308 19.0847 61.74C19.1224 61.7492 19.1551 61.7727 19.1758 61.8055C20.5124 64.1854 21.4489 66.7687 21.9476 69.4523C22.0863 70.2017 22.1906 70.9564 22.2604 71.7164C22.2781 71.9081 21.9788 71.9069 21.9611 71.7164Z" fill="#F2F2F2"/>
<path d="M18.1925 62.4365C19.2393 62.4365 20.0878 61.5879 20.0878 60.5411C20.0878 59.4944 19.2393 58.6458 18.1925 58.6458C17.1457 58.6458 16.2971 59.4944 16.2971 60.5411C16.2971 61.5879 17.1457 62.4365 18.1925 62.4365Z" fill="#F2F2F2"/>
<path d="M21.7673 71.7667C21.606 70.0289 21.1603 68.3294 20.4481 66.736C20.2496 66.2926 20.0311 65.859 19.7927 65.4351C19.7807 65.4129 19.7778 65.3869 19.7846 65.3627C19.7914 65.3384 19.8074 65.3177 19.8291 65.305C19.8509 65.2923 19.8767 65.2885 19.9012 65.2945C19.9257 65.3005 19.9469 65.3157 19.9603 65.3371C20.8275 66.881 21.435 68.5569 21.7585 70.2979C21.8485 70.7841 21.9162 71.2737 21.9615 71.7667C21.973 71.8911 21.7788 71.8903 21.7673 71.7667Z" fill="#F2F2F2"/>
<path d="M19.3224 65.7464C20.0015 65.7464 20.552 65.1959 20.552 64.5168C20.552 63.8377 20.0015 63.2872 19.3224 63.2872C18.6433 63.2872 18.0928 63.8377 18.0928 64.5168C18.0928 65.1959 18.6433 65.7464 19.3224 65.7464Z" fill="#F2F2F2"/>
<path d="M22.0122 71.6507C22.9539 70.1812 23.6478 68.567 24.0662 66.8726C24.1824 66.4009 24.2769 65.9246 24.3496 65.4437C24.3538 65.4189 24.3675 65.3967 24.3878 65.3817C24.4081 65.3668 24.4334 65.3603 24.4583 65.3637C24.4833 65.367 24.506 65.3799 24.5216 65.3997C24.5372 65.4195 24.5446 65.4445 24.5421 65.4696C24.2762 67.2203 23.7244 68.9154 22.9087 70.4871C22.6806 70.9258 22.4329 71.3535 22.1653 71.7701C22.0979 71.8752 21.9452 71.7551 22.0122 71.6507Z" fill="#F2F2F2"/>
<path d="M24.5438 65.6601C25.2229 65.6601 25.7734 65.1096 25.7734 64.4305C25.7734 63.7514 25.2229 63.2009 24.5438 63.2009C23.8647 63.2009 23.3142 63.7514 23.3142 64.4305C23.3142 65.1096 23.8647 65.6601 24.5438 65.6601Z" fill="#F2F2F2"/>
<path d="M94.2138 46.9388L94.2434 69.2234C94.2435 69.6371 94.0795 70.034 93.7874 70.327C93.4953 70.6199 93.099 70.7851 92.6853 70.7861L83.4285 70.7997C86.0344 65.9249 87.5098 58.2521 87.5011 52.3377C87.4988 50.0037 87.2617 47.6758 86.7933 45.3892L92.6511 45.3806C93.0648 45.3805 93.4617 45.5445 93.7546 45.8366C94.0476 46.1287 94.2127 46.525 94.2138 46.9388Z" fill="#473534"/>
<path d="M106.978 72H15.632C15.593 71.9999 15.5556 71.9843 15.5281 71.9567C15.5006 71.9291 15.4851 71.8917 15.4851 71.8527C15.4851 71.8137 15.5006 71.7763 15.5281 71.7487C15.5556 71.7211 15.593 71.7055 15.632 71.7054H106.978C107.017 71.7054 107.054 71.7209 107.082 71.7485C107.109 71.7761 107.125 71.8136 107.125 71.8527C107.125 71.8918 107.109 71.9292 107.082 71.9569C107.054 71.9845 107.017 72 106.978 72Z" fill="#3F3D56"/>
<path d="M80.6487 43.8929L64.1514 43.8282L65.7556 38.4911C65.8836 38.0718 66.1425 37.7044 66.4943 37.4429C66.8462 37.1813 67.2725 37.0391 67.7109 37.0372H67.7186L77.1348 37.0742C77.5746 37.0779 78.0015 37.2226 78.3529 37.4871C78.7042 37.7516 78.9613 38.1219 79.0865 38.5434L80.6487 43.8929Z" fill="#3F3D56"/>
<path d="M89.8589 42.0666C89.3995 42.0666 88.9589 42.2491 88.634 42.5739C88.3092 42.8988 88.1267 43.3394 88.1267 43.7987H91.591C91.591 43.3394 91.4085 42.8988 91.0837 42.5739C90.7588 42.2491 90.3183 42.0666 89.8589 42.0666Z" fill="#473534"/>
<path d="M95.1789 71.8844H49.648C49.0904 71.8838 48.5557 71.662 48.1614 71.2676C47.7671 70.8733 47.5453 70.3387 47.5447 69.7811V45.7784C47.5453 45.2207 47.7671 44.6861 48.1614 44.2918C48.5557 43.8975 49.0904 43.6756 49.648 43.675H95.1789C95.7366 43.6756 96.2712 43.8975 96.6655 44.2918C97.0598 44.6861 97.2816 45.2207 97.2822 45.7784V69.7811C97.2816 70.3387 97.0598 70.8733 96.6655 71.2676C96.2712 71.662 95.7366 71.8838 95.1789 71.8844ZM49.648 43.9225C49.156 43.923 48.6842 44.1187 48.3363 44.4667C47.9884 44.8146 47.7927 45.2863 47.7921 45.7784V69.7811C47.7927 70.2731 47.9884 70.7448 48.3363 71.0927C48.6842 71.4407 49.156 71.6364 49.648 71.6369H95.1789C95.6709 71.6364 96.1427 71.4407 96.4906 71.0927C96.8385 70.7448 97.0342 70.2731 97.0348 69.7811V45.7784C97.0342 45.2863 96.8385 44.8146 96.4906 44.4667C96.1427 44.1187 95.6709 43.923 95.1789 43.9225H49.648Z" fill="#3F3D56"/>
<path d="M74.3932 41.881H70.434C70.1551 41.881 69.8876 41.7702 69.6903 41.573C69.4931 41.3758 69.3823 41.1083 69.3823 40.8293C69.3823 40.5504 69.4931 40.2829 69.6903 40.0857C69.8876 39.8885 70.1551 39.7777 70.434 39.7777H74.3932C74.6721 39.7777 74.9396 39.8885 75.1368 40.0857C75.3341 40.2829 75.4449 40.5504 75.4449 40.8293C75.4449 41.1083 75.3341 41.3758 75.1368 41.573C74.9396 41.7702 74.6721 41.881 74.3932 41.881Z" fill="white"/>
<path d="M72.4134 67.1828C70.5536 67.1828 68.7356 66.6314 67.1893 65.5981C65.6429 64.5649 64.4377 63.0963 63.726 61.3781C63.0143 59.6599 62.8281 57.7693 63.1909 55.9453C63.5538 54.1212 64.4493 52.4458 65.7644 51.1307C67.0794 49.8157 68.7549 48.9201 70.5789 48.5573C72.4029 48.1944 74.2936 48.3807 76.0118 49.0924C77.73 49.8041 79.1986 51.0093 80.2318 52.5556C81.265 54.102 81.8165 55.92 81.8165 57.7797C81.8137 60.2727 80.8221 62.6628 79.0593 64.4256C77.2965 66.1884 74.9064 67.18 72.4134 67.1828ZM72.4134 48.624C70.6026 48.624 68.8324 49.161 67.3268 50.1671C65.8211 51.1731 64.6476 52.603 63.9546 54.276C63.2617 55.949 63.0804 57.7899 63.4336 59.5659C63.7869 61.3419 64.6589 62.9733 65.9393 64.2538C67.2198 65.5342 68.8512 66.4062 70.6272 66.7595C72.4032 67.1127 74.2441 66.9314 75.9171 66.2384C77.5901 65.5455 79.02 64.372 80.026 62.8663C81.0321 61.3607 81.5691 59.5905 81.5691 57.7797C81.5663 55.3523 80.6008 53.0251 78.8844 51.3087C77.168 49.5923 74.8408 48.6268 72.4134 48.624Z" fill="#3F3D56"/>
<path d="M72.4136 63.966C71.19 63.966 69.994 63.6032 68.9767 62.9234C67.9593 62.2436 67.1664 61.2775 66.6982 60.1471C66.23 59.0167 66.1075 57.7728 66.3462 56.5728C66.5849 55.3728 67.1741 54.2705 68.0392 53.4054C68.9044 52.5402 70.0067 51.951 71.2067 51.7123C72.4067 51.4736 73.6505 51.5961 74.7809 52.0643C75.9113 52.5326 76.8775 53.3255 77.5573 54.3428C78.237 55.3601 78.5998 56.5562 78.5998 57.7797C78.598 59.4198 77.9456 60.9923 76.7859 62.152C75.6261 63.3118 74.0537 63.9641 72.4136 63.966ZM72.4136 51.8409C71.239 51.8409 70.0908 52.1892 69.1141 52.8418C68.1375 53.4943 67.3763 54.4219 66.9268 55.507C66.4773 56.5922 66.3597 57.7863 66.5889 58.9383C66.818 60.0903 67.3836 61.1485 68.2142 61.9791C69.0447 62.8096 70.1029 63.3753 71.255 63.6044C72.407 63.8336 73.6011 63.7159 74.6862 63.2665C75.7714 62.817 76.6989 62.0558 77.3515 61.0791C78.0041 60.1025 78.3524 58.9543 78.3524 57.7797C78.3506 56.2052 77.7243 54.6957 76.611 53.5823C75.4976 52.4689 73.9881 51.8427 72.4136 51.8409Z" fill="#3F3D56"/>
<path d="M72.4135 62.4813C75.0101 62.4813 77.115 60.3763 77.115 57.7797C77.115 55.1831 75.0101 53.0781 72.4135 53.0781C69.8169 53.0781 67.7119 55.1831 67.7119 57.7797C67.7119 60.3763 69.8169 62.4813 72.4135 62.4813Z" fill="#CCCCCC"/>
<path d="M69.5677 57.7797C69.5678 57.0344 69.837 56.3143 70.3257 55.7516C70.8145 55.189 71.4899 54.8217 72.2278 54.7174C71.7892 54.655 71.3424 54.6876 70.9175 54.8129C70.4926 54.9382 70.0995 55.1533 69.765 55.4436C69.4304 55.734 69.1621 56.0928 68.9782 56.4959C68.7944 56.8989 68.6992 57.3367 68.6992 57.7797C68.6992 58.2227 68.7944 58.6605 68.9782 59.0635C69.1621 59.4666 69.4304 59.8254 69.765 60.1158C70.0995 60.4061 70.4926 60.6212 70.9175 60.7465C71.3424 60.8718 71.7892 60.9044 72.2278 60.842C71.4899 60.7377 70.8145 60.3704 70.3257 59.8078C69.837 59.2451 69.5678 58.525 69.5677 57.7797Z" fill="white"/>
<path d="M92.9519 43.9225H86.7656V43.7987C86.7656 42.9784 87.0915 42.1916 87.6716 41.6116C88.2517 41.0315 89.0384 40.7056 89.8588 40.7056C90.6791 40.7056 91.4659 41.0315 92.0459 41.6116C92.626 42.1916 92.9519 42.9784 92.9519 43.7987V43.9225ZM87.0157 43.675H92.7018C92.6699 42.9424 92.3564 42.2504 91.8267 41.7433C91.297 41.2362 90.592 40.9531 89.8587 40.9531C89.1255 40.9531 88.4205 41.2362 87.8908 41.7433C87.3611 42.2504 87.0476 42.9424 87.0157 43.675Z" fill="#3F3D56"/>
<path d="M50.6379 47.3868C50.3932 47.3868 50.154 47.3142 49.9505 47.1783C49.747 47.0423 49.5885 46.8491 49.4948 46.623C49.4012 46.3969 49.3767 46.1482 49.4244 45.9082C49.4721 45.6681 49.59 45.4477 49.763 45.2747C49.936 45.1016 50.1565 44.9838 50.3965 44.9361C50.6365 44.8883 50.8853 44.9128 51.1114 45.0065C51.3374 45.1001 51.5307 45.2587 51.6666 45.4621C51.8026 45.6656 51.8751 45.9048 51.8751 46.1495C51.8748 46.4776 51.7443 46.792 51.5123 47.024C51.2804 47.2559 50.9659 47.3864 50.6379 47.3868ZM50.6379 45.1597C50.4421 45.1597 50.2508 45.2178 50.088 45.3265C49.9252 45.4353 49.7983 45.5899 49.7234 45.7708C49.6485 45.9516 49.6289 46.1506 49.6671 46.3426C49.7053 46.5346 49.7996 46.711 49.938 46.8494C50.0764 46.9879 50.2528 47.0821 50.4448 47.1203C50.6368 47.1585 50.8358 47.1389 51.0167 47.064C51.1975 46.9891 51.3521 46.8622 51.4609 46.6994C51.5696 46.5367 51.6277 46.3453 51.6277 46.1495C51.6274 45.8871 51.523 45.6355 51.3375 45.45C51.1519 45.2644 50.9003 45.16 50.6379 45.1597Z" fill="#3F3D56"/>
<path d="M50.6379 46.7682C50.9796 46.7682 51.2565 46.4912 51.2565 46.1495C51.2565 45.8079 50.9796 45.5309 50.6379 45.5309C50.2963 45.5309 50.0193 45.8079 50.0193 46.1495C50.0193 46.4912 50.2963 46.7682 50.6379 46.7682Z" fill="#473534"/>
<path d="M53.8547 46.7682C54.1964 46.7682 54.4733 46.4912 54.4733 46.1495C54.4733 45.8079 54.1964 45.5309 53.8547 45.5309C53.5131 45.5309 53.2361 45.8079 53.2361 46.1495C53.2361 46.4912 53.5131 46.7682 53.8547 46.7682Z" fill="#CCCCCC"/>
<path d="M57.0715 46.7682C57.4132 46.7682 57.6901 46.4912 57.6901 46.1495C57.6901 45.8079 57.4132 45.5309 57.0715 45.5309C56.7298 45.5309 56.4529 45.8079 56.4529 46.1495C56.4529 46.4912 56.7298 46.7682 57.0715 46.7682Z" fill="#CCCCCC"/>
<path d="M53.8547 47.3868C53.61 47.3868 53.3708 47.3142 53.1673 47.1783C52.9638 47.0423 52.8053 46.8491 52.7116 46.623C52.618 46.3969 52.5935 46.1482 52.6412 45.9082C52.6889 45.6681 52.8068 45.4477 52.9798 45.2747C53.1528 45.1016 53.3733 44.9838 53.6133 44.9361C53.8533 44.8883 54.1021 44.9128 54.3282 45.0065C54.5542 45.1001 54.7475 45.2587 54.8834 45.4621C55.0194 45.6656 55.0919 45.9048 55.0919 46.1495C55.0916 46.4776 54.9611 46.792 54.7291 47.024C54.4972 47.2559 54.1827 47.3864 53.8547 47.3868ZM53.8547 45.1597C53.6589 45.1597 53.4676 45.2178 53.3048 45.3265C53.142 45.4353 53.0151 45.5899 52.9402 45.7708C52.8653 45.9516 52.8457 46.1506 52.8839 46.3426C52.9221 46.5346 53.0164 46.711 53.1548 46.8494C53.2932 46.9879 53.4696 47.0821 53.6616 47.1203C53.8536 47.1585 54.0526 47.1389 54.2335 47.064C54.4143 46.9891 54.5689 46.8622 54.6777 46.6994C54.7864 46.5367 54.8445 46.3453 54.8445 46.1495C54.8442 45.8871 54.7398 45.6355 54.5543 45.45C54.3687 45.2644 54.1171 45.16 53.8547 45.1597Z" fill="#3F3D56"/>
<path d="M57.0715 47.3868C56.8268 47.3868 56.5876 47.3142 56.3841 47.1783C56.1806 47.0423 56.0221 46.8491 55.9284 46.623C55.8348 46.3969 55.8103 46.1482 55.858 45.9082C55.9057 45.6681 56.0236 45.4477 56.1966 45.2747C56.3696 45.1016 56.5901 44.9838 56.8301 44.9361C57.0701 44.8883 57.3189 44.9128 57.545 45.0065C57.771 45.1001 57.9643 45.2587 58.1002 45.4621C58.2362 45.6656 58.3087 45.9048 58.3087 46.1495C58.3084 46.4776 58.1779 46.792 57.9459 47.024C57.714 47.2559 57.3995 47.3864 57.0715 47.3868ZM57.0715 45.1597C56.8757 45.1597 56.6843 45.2178 56.5216 45.3265C56.3588 45.4353 56.2319 45.5899 56.157 45.7708C56.0821 45.9516 56.0625 46.1506 56.1007 46.3426C56.1389 46.5346 56.2332 46.711 56.3716 46.8494C56.51 46.9879 56.6864 47.0821 56.8784 47.1203C57.0704 47.1585 57.2694 47.1389 57.4503 47.064C57.6311 46.9891 57.7857 46.8622 57.8945 46.6994C58.0032 46.5367 58.0613 46.3453 58.0613 46.1495C58.061 45.8871 57.9566 45.6355 57.771 45.45C57.5855 45.2644 57.3339 45.16 57.0715 45.1597Z" fill="#3F3D56"/>
<path d="M63.7527 54.4235H47.6685V54.671H63.7527V54.4235Z" fill="#3F3D56"/>
<path d="M63.3533 59.4037H47.6685V59.6512H63.3533V59.4037Z" fill="#3F3D56"/>
<path d="M97.1585 54.4235H81.0742V54.671H97.1585V54.4235Z" fill="#3F3D56"/>
<path d="M97.1301 59.4037H81.4453V59.6512H97.1301V59.4037Z" fill="#3F3D56"/>
<path d="M34.6305 30.0005C33.6272 29.5395 32.9676 28.2217 33.0052 26.922C33.0428 25.6223 33.7267 24.4068 34.67 23.787C35.1299 23.4924 35.6558 23.3166 36.2004 23.2754C36.745 23.2343 37.2913 23.3291 37.7903 23.5513C38.8027 23.9822 40.1619 24.0996 40.7705 25.1707C41.2381 25.9938 41.0696 27.8301 40.7385 28.7454C40.4524 29.5365 39.7527 29.9822 39.0703 30.2317C38.3151 30.5053 37.5099 30.6135 36.7092 30.549C35.9085 30.4845 35.131 30.2488 34.4293 29.8578" fill="#2F2E41"/>
<path d="M28.5128 70.3634L27.0703 69.8941L28.1939 64.1071L30.3228 64.7997L28.5128 70.3634Z" fill="#FFB8B8"/>
<path d="M26.1741 69.1468L28.956 70.0518L28.3861 71.8033L23.8528 70.3285C23.9276 70.0985 24.047 69.8855 24.2042 69.7016C24.3613 69.5177 24.5532 69.3666 24.7687 69.2569C24.9843 69.1472 25.2193 69.081 25.4605 69.0621C25.7016 69.0432 25.9441 69.072 26.1741 69.1468Z" fill="#2F2E41"/>
<path d="M41.4259 70.3949L39.9091 70.3947L39.1875 64.544L41.4262 64.5441L41.4259 70.3949Z" fill="#FFB8B8"/>
<path d="M38.8255 69.9614H41.7509V71.8032H36.9836C36.9836 71.5614 37.0313 71.3219 37.1238 71.0984C37.2164 70.8749 37.3521 70.6719 37.5231 70.5008C37.6942 70.3298 37.8972 70.1941 38.1207 70.1016C38.3441 70.009 38.5836 69.9614 38.8255 69.9614Z" fill="#2F2E41"/>
<path d="M41.3497 68.0018C41.3406 68.0018 41.3314 68.0015 41.3222 68.0011L39.6413 67.921C39.4998 67.914 39.3663 67.8535 39.2678 67.7516C39.1693 67.6497 39.1133 67.5142 39.1111 67.3725L38.8834 50.745C38.8828 50.7038 38.8685 50.6639 38.8427 50.6317C38.817 50.5995 38.7812 50.5768 38.7411 50.5671C38.701 50.5575 38.6588 50.5615 38.6213 50.5785C38.5837 50.5955 38.5529 50.6246 38.5336 50.661L29.6305 67.5422C29.5753 67.6479 29.4874 67.733 29.3799 67.7847C29.2724 67.8365 29.151 67.8521 29.0339 67.8294L27.361 67.5108C27.2823 67.4958 27.2076 67.4639 27.1423 67.4174C27.077 67.3709 27.0224 67.3108 26.9825 67.2413C26.9425 67.1718 26.9181 67.0944 26.9108 67.0145C26.9035 66.9347 26.9135 66.8542 26.9402 66.7785L33.4271 48.3989L33.9263 42.962C33.9374 42.8352 33.9919 42.7161 34.0806 42.6248C34.1693 42.5336 34.2868 42.4757 34.4133 42.461C36.3034 42.2287 38.9445 40.68 39.9923 40.0249C40.0566 39.9843 40.1287 39.9576 40.2038 39.9462C40.279 39.9349 40.3557 39.9393 40.4291 39.9592C40.5034 39.9791 40.5727 40.0141 40.633 40.0618C40.6932 40.1096 40.743 40.1692 40.7794 40.2369C43.3034 44.9276 44.2687 50.3 43.5356 55.576L41.9003 67.5204C41.8828 67.6539 41.8172 67.7764 41.7158 67.865C41.6144 67.9536 41.4843 68.0022 41.3497 68.0018Z" fill="#2F2E41"/>
<path d="M36.8252 31.2775C38.5035 31.2775 39.864 29.917 39.864 28.2387C39.864 26.5604 38.5035 25.1999 36.8252 25.1999C35.1469 25.1999 33.7864 26.5604 33.7864 28.2387C33.7864 29.917 35.1469 31.2775 36.8252 31.2775Z" fill="#FFB8B8"/>
<path d="M33.7974 44.2674L32.8824 37.7292C32.6596 36.7357 32.8404 35.6945 33.3851 34.8342C33.9297 33.974 34.7936 33.3652 35.7868 33.1416C36.7801 32.918 37.8216 33.098 38.6823 33.6419C39.5429 34.1858 40.1525 35.0491 40.3769 36.0422C40.6374 37.2509 41.1669 38.7222 40.9735 40.3082C39.6183 44.0694 37.1583 45.229 33.7974 44.2674Z" fill="#B3B3B3"/>
<path d="M37.8182 34.122H35.5912C35.4436 34.1218 35.3021 34.0631 35.1977 33.9587C35.0933 33.8543 35.0346 33.7128 35.0344 33.5652V32.8229C35.0346 32.6752 35.0933 32.5337 35.1977 32.4293C35.3021 32.325 35.4436 32.2663 35.5912 32.2661H37.8182C37.9659 32.2663 38.1074 32.325 38.2117 32.4293C38.3161 32.5337 38.3748 32.6752 38.375 32.8229V33.5652C38.3748 33.7128 38.3161 33.8543 38.2117 33.9587C38.1074 34.0631 37.9659 34.1218 37.8182 34.122Z" fill="#B3B3B3"/>
<path d="M49.1051 46.4799C49.1655 46.2952 49.1847 46.0995 49.1613 45.9066C49.1379 45.7137 49.0725 45.5283 48.9697 45.3634C48.8669 45.1985 48.7292 45.0582 48.5663 44.9523C48.4034 44.8464 48.2192 44.7775 48.0268 44.7504L41.0946 34.8259L39.0391 36.858L46.4996 45.9745C46.4756 46.3008 46.5721 46.6245 46.7708 46.8844C46.9695 47.1443 47.2567 47.3222 47.5778 47.3845C47.899 47.4468 48.2319 47.3891 48.5133 47.2224C48.7948 47.0557 49.0054 46.7915 49.1051 46.4799Z" fill="#FFB8B8"/>
<path d="M43.2629 37.862L40.7595 39.5332C40.6883 39.5807 40.6076 39.6123 40.5231 39.6259C40.4385 39.6395 40.352 39.6347 40.2695 39.6118C40.187 39.5889 40.1103 39.5486 40.0448 39.4934C39.9793 39.4383 39.9264 39.3696 39.8898 39.2922L38.6075 36.5792C38.3665 36.2134 38.2803 35.7669 38.3679 35.3377C38.4555 34.9085 38.7096 34.5315 39.0747 34.2893C39.4397 34.0472 39.8859 33.9596 40.3154 34.0459C40.7449 34.1321 41.1227 34.3851 41.366 34.7494L43.3739 36.9664C43.4313 37.0299 43.4745 37.105 43.5003 37.1867C43.5261 37.2683 43.534 37.3546 43.5235 37.4396C43.5129 37.5246 43.4842 37.6063 43.4392 37.6792C43.3943 37.7521 43.3341 37.8144 43.2629 37.862Z" fill="#B3B3B3"/>
<path d="M24.6154 33.1448C24.6306 33.2116 24.6405 33.2794 24.6451 33.3477L29.96 36.4139L31.2518 35.6702L32.6291 37.4732L30.47 39.012C30.2956 39.1363 30.0855 39.2007 29.8714 39.1955C29.6573 39.1903 29.4506 39.1157 29.2825 38.9831L23.8019 34.6594C23.5545 34.7509 23.2852 34.765 23.0296 34.6998C22.7741 34.6345 22.5445 34.493 22.3713 34.2941C22.1982 34.0951 22.0897 33.8482 22.0603 33.5861C22.031 33.324 22.0821 33.0591 22.2069 32.8268C22.3317 32.5945 22.5243 32.4056 22.759 32.2854C22.9938 32.1652 23.2595 32.1193 23.521 32.1538C23.7825 32.1883 24.0272 32.3017 24.2227 32.4787C24.4182 32.6557 24.5552 32.8881 24.6154 33.1448Z" fill="#FFB8B8"/>
<path d="M31.5048 38.6419L30.1693 35.9444C30.1313 35.8677 30.1103 35.7836 30.1077 35.698C30.1051 35.6124 30.121 35.5273 30.1543 35.4484C30.1876 35.3695 30.2375 35.2987 30.3006 35.2408C30.3637 35.1829 30.4386 35.1393 30.5201 35.1129L33.3754 34.19C33.7692 33.9978 34.2232 33.9696 34.6377 34.1116C35.0522 34.2536 35.3935 34.5542 35.5868 34.9474C35.7801 35.3407 35.8095 35.7945 35.6686 36.2094C35.5278 36.6244 35.2282 36.9665 34.8354 37.1609L32.3787 38.8671C32.3083 38.9159 32.2283 38.949 32.144 38.9641C32.0597 38.9792 31.9731 38.976 31.8902 38.9546C31.8072 38.9332 31.7299 38.8942 31.6634 38.8403C31.5969 38.7863 31.5428 38.7187 31.5048 38.6419Z" fill="#B3B3B3"/>
<path d="M38.8644 24.4115C38.9739 24.4274 39.0855 24.4069 39.182 24.353C39.2786 24.2991 39.3547 24.2149 39.3985 24.1134C39.4391 24.0105 39.4555 23.8997 39.4466 23.7896C39.4377 23.6794 39.4037 23.5727 39.3471 23.4777C39.232 23.2884 39.0714 23.1309 38.8799 23.0195C38.6594 22.8721 38.4044 22.7844 38.1399 22.7649C38.0079 22.7562 37.8755 22.776 37.7519 22.823C37.6282 22.8699 37.516 22.9429 37.423 23.037C37.3323 23.1334 37.2724 23.2547 37.251 23.3853C37.2295 23.516 37.2476 23.6501 37.3028 23.7704C37.4139 23.9847 37.6471 24.1048 37.8742 24.1864C38.3249 24.3478 38.8049 24.4109 39.282 24.3713" fill="#2F2E41"/>
<path d="M39.8361 29.6222C39.305 29.6472 39.3965 28.5202 39.2302 28.0151C39.064 27.5101 38.8349 26.9076 38.312 26.8108C37.8836 26.7314 37.4964 27.0447 37.1232 27.2696C36.458 27.6705 35.5969 27.8184 34.8984 27.4788C34.1999 27.1392 33.7752 26.2319 34.1149 25.5335C34.2183 25.3415 34.3601 25.1728 34.5314 25.0378C34.7027 24.9029 34.8999 24.8045 35.1107 24.7489C35.5335 24.6402 35.974 24.6191 36.4052 24.6867C37.3671 24.8046 38.2915 25.1323 39.113 25.6465C39.6799 26.002 40.2193 26.4861 40.3881 27.1337C40.5568 27.7812 40.6256 29.542 39.9658 29.6535L39.8361 29.6222Z" fill="#2F2E41"/>
<path d="M38.4464 22.844C38.0452 22.3354 38.1964 21.534 38.664 21.0857C39.1316 20.6374 39.8269 20.4977 40.4722 20.5547C41.1116 20.6191 41.7227 20.8504 42.2445 21.2256C42.7662 21.6007 43.1801 22.1064 43.4447 22.692C43.8525 23.6248 43.8491 24.6918 44.2179 25.6407C44.4145 26.1465 44.7125 26.6067 45.0937 26.993C45.4748 27.3793 45.931 27.6835 46.4342 27.8868C46.9373 28.0902 47.4768 28.1883 48.0193 28.1753C48.5618 28.1623 49.096 28.0384 49.5888 27.8111C50.2307 27.5152 50.8419 26.9356 50.8053 26.2297C51.2111 27.7944 50.4802 29.5842 49.095 30.4175C48.2837 30.9055 47.3229 31.0712 46.383 31.1853C45.7705 31.2596 45.1409 31.3148 44.5432 31.1618C43.7069 30.9476 43.0068 30.3304 42.5828 29.5784C42.1588 28.8264 41.992 27.9501 41.9856 27.0868C41.9805 26.4144 42.0686 25.7415 42.022 25.0706C41.9755 24.3997 41.7738 23.7058 41.2875 23.2413C40.8012 22.7768 39.9805 22.6239 39.4468 23.0331C39.2323 23.1975 39.0751 23.4376 38.8336 23.5589C38.5921 23.6802 38.2105 23.5859 38.1943 23.3161L38.4464 22.844Z" fill="#2F2E41"/>
<path d="M26.8032 33.1665H1.73927C1.51013 33.1663 1.29046 33.0751 1.12843 32.9131C0.966408 32.7511 0.875266 32.5314 0.875 32.3023V18.1858C0.875266 17.9567 0.966408 17.737 1.12843 17.575C1.29046 17.413 1.51013 17.3218 1.73927 17.3215H26.8032C27.0323 17.3218 27.252 17.4129 27.414 17.575C27.5761 17.737 27.6672 17.9567 27.6675 18.1858V32.3023C27.6672 32.5314 27.5761 32.7511 27.414 32.9131C27.252 33.0751 27.0323 33.1663 26.8032 33.1665ZM1.73927 17.5136C1.56105 17.5138 1.39019 17.5847 1.26417 17.7107C1.13815 17.8367 1.06726 18.0076 1.06706 18.1858V32.3023C1.06726 32.4805 1.13815 32.6514 1.26417 32.7774C1.39019 32.9034 1.56105 32.9743 1.73927 32.9745H26.8032C26.9814 32.9743 27.1523 32.9034 27.2783 32.7774C27.4043 32.6514 27.4752 32.4805 27.4754 32.3023V18.1858C27.4752 18.0076 27.4043 17.8367 27.2783 17.7107C27.1523 17.5847 26.9814 17.5138 26.8032 17.5136H1.73927Z" fill="#3F3D56"/>
<path d="M10.0019 27.231C11.9813 27.231 13.5859 25.6264 13.5859 23.647C13.5859 21.6676 11.9813 20.063 10.0019 20.063C8.02257 20.063 6.41797 21.6676 6.41797 23.647C6.41797 25.6264 8.02257 27.231 10.0019 27.231Z" fill="#E6E6E6"/>
<path d="M23.8124 29.9757L19.6054 22.6889C19.5791 22.6433 19.5413 22.6055 19.4957 22.5792C19.4502 22.5529 19.3985 22.5391 19.3459 22.5391C19.2933 22.5391 19.2417 22.5529 19.1961 22.5792C19.1506 22.6055 19.1128 22.6433 19.0865 22.6889L16.5191 27.1358L12.6915 20.5063C12.6578 20.4479 12.6093 20.3994 12.5509 20.3657C12.4925 20.332 12.4263 20.3142 12.3589 20.3142C12.2915 20.3142 12.2252 20.332 12.1668 20.3657C12.1084 20.3994 12.0599 20.4479 12.0262 20.5063L6.63227 29.8489C6.59856 29.9073 6.58081 29.9735 6.58081 30.0409C6.58081 30.1084 6.59856 30.1746 6.63227 30.233C6.66599 30.2914 6.71448 30.3399 6.77287 30.3736C6.83126 30.4073 6.8975 30.4251 6.96493 30.4251H23.553C23.6056 30.4251 23.6572 30.4112 23.7028 30.3849C23.7483 30.3586 23.7861 30.3208 23.8124 30.2753C23.8387 30.2297 23.8526 30.1781 23.8526 30.1255C23.8526 30.0729 23.8387 30.0212 23.8124 29.9757Z" fill="#473534"/>
<path d="M4.23595 19.0501H2.69946V20.5866H4.23595V19.0501Z" fill="#3F3D56"/>
<path d="M36.5594 12.3807H16.9754C16.7963 12.3805 16.6247 12.3093 16.4981 12.1827C16.3715 12.0561 16.3003 11.8844 16.3 11.7054V0.675312C16.3003 0.496273 16.3715 0.324626 16.4981 0.198025C16.6247 0.0714251 16.7963 0.000208259 16.9754 0H36.5594C36.7384 0.000201723 36.9101 0.0714161 37.0367 0.198018C37.1633 0.32462 37.2345 0.496271 37.2347 0.675312V11.7054C37.2345 11.8844 37.1633 12.0561 37.0367 12.1827C36.9101 12.3093 36.7384 12.3805 36.5594 12.3807ZM16.9754 0.150069C16.8361 0.150226 16.7026 0.205614 16.6041 0.304082C16.5057 0.40255 16.4503 0.536058 16.4501 0.675312V11.7054C16.4503 11.8446 16.5057 11.9782 16.6041 12.0766C16.7026 12.1751 16.8361 12.2305 16.9754 12.2306H36.5594C36.6986 12.2305 36.8321 12.1751 36.9306 12.0766C37.0291 11.9781 37.0845 11.8446 37.0846 11.7054V0.675312C37.0845 0.536059 37.0291 0.402556 36.9306 0.304089C36.8321 0.205623 36.6986 0.150231 36.5594 0.150069H16.9754Z" fill="#CCCCCC"/>
<path d="M23.4315 7.74286C24.9781 7.74286 26.2319 6.48908 26.2319 4.94247C26.2319 3.39586 24.9781 2.14209 23.4315 2.14209C21.8849 2.14209 20.6311 3.39586 20.6311 4.94247C20.6311 6.48908 21.8849 7.74286 23.4315 7.74286Z" fill="#F2F2F2"/>
<path d="M34.2227 9.88747L30.9355 4.19382C30.9149 4.15823 30.8854 4.12868 30.8498 4.10813C30.8142 4.08758 30.7738 4.07677 30.7327 4.07677C30.6916 4.07677 30.6513 4.08758 30.6157 4.10813C30.5801 4.12868 30.5506 4.15823 30.53 4.19382L28.5239 7.66847L25.5332 2.48846C25.5069 2.44283 25.469 2.40495 25.4234 2.3786C25.3778 2.35226 25.326 2.33839 25.2733 2.33839C25.2206 2.33839 25.1689 2.35226 25.1232 2.3786C25.0776 2.40495 25.0397 2.44283 25.0134 2.48846L20.7988 9.7884C20.7724 9.83403 20.7585 9.88579 20.7585 9.93847C20.7585 9.99116 20.7724 10.0429 20.7988 10.0885C20.8251 10.1342 20.863 10.1721 20.9086 10.1984C20.9542 10.2247 21.006 10.2386 21.0587 10.2386H34.02C34.0611 10.2386 34.1014 10.2278 34.137 10.2072C34.1726 10.1867 34.2022 10.1571 34.2227 10.1216C34.2432 10.086 34.2541 10.0456 34.2541 10.0045C34.2541 9.96342 34.2432 9.92305 34.2227 9.88747Z" fill="#E6E6E6"/>
<path d="M18.9264 1.35062H17.7258V2.55117H18.9264V1.35062Z" fill="#CCCCCC"/>
</g>
<defs>
<clipPath id="clip0_82_6481">
<rect width="106.25" height="72" fill="white" transform="translate(0.875)"/>
</clipPath>
</defs>
</svg>
