<svg width="224" height="152" viewBox="0 0 224 152" fill="none" xmlns="http://www.w3.org/2000/svg">
<g clip-path="url(#clip0_231_877)">
<path d="M211.799 151.299C212.323 145.651 213.772 140.128 216.086 134.95C216.731 133.509 217.441 132.1 218.216 130.723C218.255 130.651 218.264 130.566 218.242 130.487C218.22 130.409 218.168 130.342 218.097 130.3C218.027 130.259 217.943 130.247 217.863 130.266C217.784 130.285 217.715 130.335 217.671 130.404C214.853 135.422 212.879 140.868 211.828 146.526C211.535 148.105 211.315 149.697 211.168 151.299C211.131 151.703 211.762 151.7 211.799 151.299Z" fill="#F2F2F2"/>
<path d="M219.744 131.735C221.951 131.735 223.74 129.946 223.74 127.739C223.74 125.532 221.951 123.743 219.744 123.743C217.538 123.743 215.749 125.532 215.749 127.739C215.749 129.946 217.538 131.735 219.744 131.735Z" fill="#F2F2F2"/>
<path d="M212.208 151.405C212.548 147.741 213.487 144.158 214.989 140.799C215.407 139.864 215.868 138.95 216.371 138.056C216.396 138.009 216.402 137.955 216.388 137.903C216.373 137.852 216.34 137.809 216.294 137.782C216.248 137.755 216.194 137.747 216.142 137.76C216.09 137.772 216.046 137.805 216.017 137.85C214.189 141.104 212.908 144.638 212.226 148.308C212.036 149.333 211.894 150.365 211.798 151.405C211.774 151.667 212.184 151.665 212.208 151.405Z" fill="#F2F2F2"/>
<path d="M217.362 138.713C218.794 138.713 219.955 137.552 219.955 136.12C219.955 134.689 218.794 133.528 217.362 133.528C215.931 133.528 214.77 134.689 214.77 136.12C214.77 137.552 215.931 138.713 217.362 138.713Z" fill="#F2F2F2"/>
<path d="M211.691 151.16C209.706 148.062 208.243 144.659 207.361 141.087C207.116 140.092 206.917 139.088 206.764 138.074C206.755 138.022 206.726 137.975 206.683 137.944C206.64 137.912 206.587 137.899 206.534 137.906C206.482 137.913 206.434 137.94 206.401 137.982C206.368 138.023 206.353 138.076 206.358 138.129C206.918 141.82 208.082 145.394 209.801 148.707C210.282 149.632 210.805 150.534 211.369 151.412C211.511 151.633 211.833 151.38 211.691 151.16Z" fill="#F2F2F2"/>
<path d="M206.355 138.531C207.786 138.531 208.947 137.37 208.947 135.938C208.947 134.507 207.786 133.346 206.355 133.346C204.923 133.346 203.762 134.507 203.762 135.938C203.762 137.37 204.923 138.531 206.355 138.531Z" fill="#F2F2F2"/>
<path d="M44.4548 151.299C43.9305 145.651 42.4822 140.128 40.1678 134.95C39.5227 133.509 38.8128 132.1 38.0379 130.723C37.999 130.651 37.9896 130.566 38.0117 130.488C38.0338 130.409 38.0857 130.342 38.1564 130.3C38.2271 130.259 38.311 130.247 38.3905 130.266C38.4701 130.285 38.5389 130.335 38.5826 130.404C41.4006 135.422 43.3748 140.868 44.4263 146.526C44.7188 148.105 44.9386 149.697 45.0858 151.299C45.1232 151.703 44.492 151.7 44.4548 151.299Z" fill="#F2F2F2"/>
<path d="M36.5095 131.735C38.7164 131.735 40.5054 129.946 40.5054 127.739C40.5054 125.532 38.7164 123.743 36.5095 123.743C34.3027 123.743 32.5137 125.532 32.5137 127.739C32.5137 129.946 34.3027 131.735 36.5095 131.735Z" fill="#F2F2F2"/>
<path d="M44.046 151.405C43.7058 147.741 42.7663 144.158 41.2648 140.799C40.8463 139.864 40.3857 138.95 39.883 138.056C39.8578 138.009 39.8517 137.955 39.866 137.903C39.8803 137.852 39.914 137.809 39.9599 137.782C40.0057 137.755 40.0602 137.747 40.1118 137.76C40.1635 137.772 40.2082 137.805 40.2365 137.85C42.0646 141.104 43.3454 144.638 44.0275 148.308C44.2173 149.333 44.3599 150.365 44.4554 151.405C44.4796 151.667 44.0701 151.665 44.046 151.405Z" fill="#F2F2F2"/>
<path d="M38.8916 138.713C40.3233 138.713 41.4839 137.552 41.4839 136.12C41.4839 134.689 40.3233 133.528 38.8916 133.528C37.4599 133.528 36.2993 134.689 36.2993 136.12C36.2993 137.552 37.4599 138.713 38.8916 138.713Z" fill="#F2F2F2"/>
<path d="M44.5624 151.16C46.5476 148.062 48.0105 144.659 48.8927 141.087C49.1377 140.092 49.3369 139.088 49.4902 138.074C49.499 138.022 49.5279 137.975 49.5706 137.944C49.6134 137.912 49.6667 137.899 49.7194 137.906C49.772 137.913 49.8198 137.94 49.8528 137.982C49.8857 138.023 49.9012 138.076 49.8959 138.129C49.3354 141.82 48.172 145.394 46.4524 148.707C45.9716 149.632 45.4492 150.534 44.8851 151.412C44.743 151.633 44.4212 151.38 44.5624 151.16Z" fill="#F2F2F2"/>
<path d="M49.8994 138.531C51.3311 138.531 52.4917 137.37 52.4917 135.938C52.4917 134.507 51.3311 133.346 49.8994 133.346C48.4677 133.346 47.3071 134.507 47.3071 135.938C47.3071 137.37 48.4677 138.531 49.8994 138.531Z" fill="#F2F2F2"/>
<path d="M196.781 99.0615L196.843 146.043C196.843 146.915 196.498 147.752 195.882 148.369C195.266 148.987 194.43 149.335 193.558 149.337L174.042 149.366C179.536 139.089 182.647 122.913 182.629 110.444C182.624 105.523 182.124 100.615 181.136 95.7947L193.486 95.7766C194.358 95.7763 195.195 96.122 195.812 96.7378C196.43 97.3537 196.778 98.1893 196.781 99.0615Z" fill="#473534"/>
<path d="M223.689 151.897H31.111C31.0287 151.897 30.95 151.864 30.8919 151.806C30.8339 151.747 30.8013 151.668 30.8013 151.586C30.8013 151.504 30.8339 151.425 30.8919 151.367C30.95 151.309 31.0287 151.276 31.111 151.276H223.689C223.772 151.276 223.851 151.308 223.909 151.367C223.967 151.425 224 151.504 224 151.586C224 151.669 223.967 151.748 223.909 151.806C223.851 151.864 223.772 151.897 223.689 151.897Z" fill="#3F3D56"/>
<path d="M168.182 92.6402L133.402 92.5038L136.784 81.2518C137.054 80.3678 137.6 79.5934 138.341 79.0419C139.083 78.4904 139.982 78.1908 140.906 78.1868H140.923L160.774 78.2647C161.701 78.2724 162.601 78.5775 163.342 79.1351C164.083 79.6927 164.625 80.4734 164.889 81.3622L168.182 92.6402Z" fill="#3F3D56"/>
<path d="M187.599 88.79C186.631 88.79 185.702 89.1748 185.017 89.8596C184.332 90.5445 183.947 91.4733 183.947 92.4418H191.251C191.251 91.4733 190.866 90.5445 190.181 89.8596C189.496 89.1748 188.568 88.79 187.599 88.79Z" fill="#473534"/>
<path d="M198.815 151.653H102.825C101.65 151.652 100.523 151.184 99.6913 150.353C98.86 149.521 98.3924 148.394 98.3911 147.219V96.6152C98.3924 95.4396 98.86 94.3125 99.6913 93.4812C100.523 92.6498 101.65 92.1822 102.825 92.1809H198.815C199.991 92.1822 201.118 92.6498 201.95 93.4812C202.781 94.3125 203.248 95.4396 203.25 96.6152V147.219C203.248 148.394 202.781 149.521 201.95 150.353C201.118 151.184 199.991 151.652 198.815 151.653ZM102.825 92.7026C101.788 92.7038 100.794 93.1164 100.06 93.8499C99.3266 94.5834 98.914 95.5779 98.9128 96.6152V147.219C98.914 148.256 99.3266 149.251 100.06 149.984C100.794 150.718 101.788 151.13 102.825 151.131H198.815C199.853 151.13 200.847 150.718 201.581 149.984C202.314 149.251 202.727 148.256 202.728 147.219V96.6152C202.727 95.5779 202.314 94.5834 201.581 93.8499C200.847 93.1164 199.853 92.7038 198.815 92.7026H102.825Z" fill="#3F3D56"/>
<path d="M154.994 88.3987H146.647C146.059 88.3987 145.495 88.1651 145.079 87.7493C144.663 87.3335 144.43 86.7695 144.43 86.1815C144.43 85.5935 144.663 85.0295 145.079 84.6137C145.495 84.1979 146.059 83.9644 146.647 83.9644H154.994C155.582 83.9644 156.146 84.1979 156.562 84.6137C156.977 85.0295 157.211 85.5935 157.211 86.1815C157.211 86.7695 156.977 87.3335 156.562 87.7493C156.146 88.1651 155.582 88.3987 154.994 88.3987Z" fill="white"/>
<path d="M150.82 141.741C146.899 141.741 143.067 140.578 139.806 138.4C136.546 136.222 134.006 133.126 132.505 129.503C131.005 125.881 130.612 121.895 131.377 118.05C132.142 114.204 134.03 110.672 136.802 107.899C139.575 105.127 143.107 103.239 146.953 102.474C150.798 101.709 154.784 102.102 158.406 103.602C162.029 105.102 165.125 107.643 167.303 110.903C169.481 114.163 170.644 117.996 170.644 121.917C170.638 127.173 168.548 132.212 164.831 135.928C161.115 139.645 156.076 141.735 150.82 141.741ZM150.82 102.615C147.002 102.615 143.271 103.747 140.096 105.868C136.922 107.989 134.448 111.003 132.987 114.53C131.526 118.057 131.144 121.938 131.889 125.683C132.633 129.427 134.472 132.866 137.171 135.566C139.871 138.265 143.31 140.104 147.054 140.849C150.799 141.593 154.68 141.211 158.207 139.75C161.734 138.289 164.748 135.815 166.869 132.641C168.99 129.467 170.122 125.735 170.122 121.917C170.117 116.8 168.081 111.893 164.463 108.275C160.844 104.656 155.938 102.62 150.82 102.615Z" fill="#3F3D56"/>
<path d="M150.82 134.959C148.24 134.959 145.719 134.194 143.574 132.761C141.429 131.328 139.758 129.291 138.771 126.908C137.783 124.525 137.525 121.902 138.028 119.372C138.532 116.843 139.774 114.519 141.598 112.695C143.422 110.871 145.746 109.629 148.276 109.125C150.805 108.622 153.428 108.88 155.811 109.868C158.194 110.855 160.231 112.526 161.664 114.671C163.097 116.816 163.862 119.337 163.862 121.917C163.858 125.375 162.483 128.69 160.038 131.135C157.593 133.58 154.278 134.955 150.82 134.959ZM150.82 109.396C148.344 109.396 145.923 110.131 143.864 111.507C141.805 112.882 140.2 114.838 139.253 117.126C138.305 119.413 138.057 121.931 138.54 124.359C139.023 126.788 140.216 129.019 141.967 130.77C143.718 132.521 145.949 133.714 148.377 134.197C150.806 134.68 153.324 134.432 155.611 133.484C157.899 132.537 159.855 130.932 161.23 128.873C162.606 126.814 163.34 124.393 163.34 121.917C163.337 118.597 162.016 115.415 159.669 113.068C157.322 110.721 154.139 109.4 150.82 109.396Z" fill="#3F3D56"/>
<path d="M150.82 131.829C156.294 131.829 160.732 127.391 160.732 121.917C160.732 116.443 156.294 112.005 150.82 112.005C145.346 112.005 140.908 116.443 140.908 121.917C140.908 127.391 145.346 131.829 150.82 131.829Z" fill="#CCCCCC"/>
<path d="M144.821 121.917C144.821 120.346 145.388 118.827 146.419 117.641C147.449 116.455 148.873 115.681 150.429 115.461C149.504 115.329 148.562 115.398 147.666 115.662C146.771 115.926 145.942 116.38 145.237 116.992C144.531 117.604 143.966 118.36 143.578 119.21C143.19 120.06 142.99 120.983 142.99 121.917C142.99 122.851 143.19 123.774 143.578 124.623C143.966 125.473 144.531 126.23 145.237 126.842C145.942 127.454 146.771 127.907 147.666 128.172C148.562 128.436 149.504 128.504 150.429 128.373C148.873 128.153 147.449 127.379 146.419 126.192C145.388 125.006 144.821 123.488 144.821 121.917Z" fill="white"/>
<path d="M194.12 92.7026H181.078V92.4417C181.078 90.7122 181.765 89.0536 182.988 87.8306C184.211 86.6077 185.87 85.9207 187.599 85.9207C189.329 85.9207 190.987 86.6077 192.21 87.8306C193.433 89.0536 194.12 90.7122 194.12 92.4417V92.7026ZM181.605 92.1809H193.593C193.526 90.6364 192.865 89.1775 191.748 88.1083C190.631 87.0392 189.145 86.4425 187.599 86.4425C186.053 86.4425 184.567 87.0392 183.45 88.1083C182.334 89.1775 181.673 90.6364 181.605 92.1809Z" fill="#3F3D56"/>
<path d="M104.912 100.006C104.396 100.006 103.892 99.8532 103.463 99.5666C103.034 99.2799 102.7 98.8726 102.502 98.3959C102.305 97.9193 102.253 97.3948 102.354 96.8888C102.454 96.3829 102.703 95.9181 103.068 95.5533C103.432 95.1885 103.897 94.9401 104.403 94.8394C104.909 94.7388 105.434 94.7904 105.91 94.9879C106.387 95.1853 106.794 95.5196 107.081 95.9486C107.368 96.3775 107.521 96.8818 107.521 97.3977C107.52 98.0893 107.245 98.7523 106.756 99.2413C106.267 99.7303 105.604 100.005 104.912 100.006ZM104.912 95.311C104.499 95.311 104.096 95.4334 103.753 95.6627C103.41 95.892 103.142 96.2179 102.984 96.5992C102.826 96.9805 102.785 97.4 102.865 97.8048C102.946 98.2096 103.145 98.5814 103.437 98.8733C103.728 99.1651 104.1 99.3639 104.505 99.4444C104.91 99.5249 105.329 99.4836 105.711 99.3256C106.092 99.1677 106.418 98.9002 106.647 98.5571C106.876 98.2139 106.999 97.8104 106.999 97.3977C106.998 96.8445 106.778 96.3141 106.387 95.9229C105.996 95.5317 105.465 95.3116 104.912 95.311Z" fill="#3F3D56"/>
<path d="M104.912 98.7019C105.632 98.7019 106.216 98.118 106.216 97.3977C106.216 96.6774 105.632 96.0935 104.912 96.0935C104.192 96.0935 103.608 96.6774 103.608 97.3977C103.608 98.118 104.192 98.7019 104.912 98.7019Z" fill="#473534"/>
<path d="M111.694 98.7019C112.414 98.7019 112.998 98.118 112.998 97.3977C112.998 96.6774 112.414 96.0935 111.694 96.0935C110.974 96.0935 110.39 96.6774 110.39 97.3977C110.39 98.118 110.974 98.7019 111.694 98.7019Z" fill="#CCCCCC"/>
<path d="M118.476 98.7019C119.196 98.7019 119.78 98.118 119.78 97.3977C119.78 96.6774 119.196 96.0935 118.476 96.0935C117.755 96.0935 117.171 96.6774 117.171 97.3977C117.171 98.118 117.755 98.7019 118.476 98.7019Z" fill="#CCCCCC"/>
<path d="M111.694 100.006C111.178 100.006 110.674 99.8532 110.245 99.5666C109.816 99.2799 109.481 98.8726 109.284 98.3959C109.087 97.9193 109.035 97.3948 109.136 96.8888C109.236 96.3829 109.485 95.9181 109.849 95.5533C110.214 95.1885 110.679 94.9401 111.185 94.8394C111.691 94.7388 112.215 94.7904 112.692 94.9879C113.169 95.1853 113.576 95.5196 113.863 95.9486C114.149 96.3775 114.302 96.8818 114.302 97.3977C114.302 98.0893 114.026 98.7523 113.537 99.2413C113.048 99.7303 112.385 100.005 111.694 100.006ZM111.694 95.311C111.281 95.311 110.878 95.4334 110.535 95.6627C110.191 95.892 109.924 96.2179 109.766 96.5992C109.608 96.9805 109.567 97.4 109.647 97.8048C109.728 98.2096 109.926 98.5814 110.218 98.8733C110.51 99.1651 110.882 99.3639 111.287 99.4444C111.692 99.5249 112.111 99.4836 112.492 99.3256C112.874 99.1677 113.2 98.9002 113.429 98.5571C113.658 98.2139 113.781 97.8104 113.781 97.3977C113.78 96.8445 113.56 96.3141 113.169 95.9229C112.778 95.5317 112.247 95.3116 111.694 95.311Z" fill="#3F3D56"/>
<path d="M118.476 100.006C117.96 100.006 117.455 99.8532 117.026 99.5666C116.597 99.2799 116.263 98.8726 116.066 98.3959C115.868 97.9193 115.817 97.3948 115.917 96.8888C116.018 96.3829 116.266 95.9181 116.631 95.5533C116.996 95.1885 117.461 94.9401 117.967 94.8394C118.473 94.7388 118.997 94.7904 119.474 94.9879C119.95 95.1853 120.358 95.5196 120.644 95.9486C120.931 96.3775 121.084 96.8818 121.084 97.3977C121.083 98.0893 120.808 98.7523 120.319 99.2413C119.83 99.7303 119.167 100.005 118.476 100.006ZM118.476 95.311C118.063 95.311 117.659 95.4334 117.316 95.6627C116.973 95.892 116.706 96.2179 116.548 96.5992C116.39 96.9805 116.348 97.4 116.429 97.8048C116.509 98.2096 116.708 98.5814 117 98.8733C117.292 99.1651 117.664 99.3639 118.069 99.4444C118.473 99.5249 118.893 99.4836 119.274 99.3256C119.655 99.1677 119.981 98.9002 120.211 98.5571C120.44 98.2139 120.562 97.8104 120.562 97.3977C120.562 96.8445 120.342 96.3141 119.95 95.9229C119.559 95.5317 119.029 95.3116 118.476 95.311Z" fill="#3F3D56"/>
<path d="M132.561 114.841H98.6519V115.363H132.561V114.841Z" fill="#3F3D56"/>
<path d="M131.719 125.341H98.6519V125.863H131.719V125.341Z" fill="#3F3D56"/>
<path d="M202.989 114.841H169.079V115.363H202.989V114.841Z" fill="#3F3D56"/>
<path d="M202.929 125.341H169.862V125.863H202.929V125.341Z" fill="#3F3D56"/>
<path d="M71.1647 63.3516C69.0494 62.3798 67.6589 59.6015 67.7381 56.8615C67.8173 54.1214 69.2592 51.5589 71.2479 50.2522C72.2174 49.631 73.3261 49.2603 74.4743 49.1736C75.6225 49.0868 76.7743 49.2866 77.8262 49.7551C79.9605 50.6636 82.8262 50.9111 84.1091 53.1693C85.095 54.9046 84.7398 58.776 84.0418 60.7056C83.4385 62.3734 81.9633 63.3132 80.5248 63.839C78.9326 64.4159 77.235 64.644 75.547 64.508C73.8589 64.3721 72.2198 63.8751 70.7404 63.0509" fill="#2F2E41"/>
<path d="M58.2672 148.446L55.2261 147.457L57.5948 135.257L62.0831 136.717L58.2672 148.446Z" fill="#FFB8B8"/>
<path d="M53.3367 145.881L59.2014 147.789L58.0001 151.482L48.4427 148.373C48.6005 147.888 48.8522 147.439 49.1835 147.051C49.5149 146.664 49.9193 146.345 50.3737 146.114C50.8282 145.882 51.3237 145.743 51.8321 145.703C52.3405 145.663 52.8517 145.724 53.3367 145.881Z" fill="#2F2E41"/>
<path d="M85.4911 148.513L82.2932 148.512L80.772 136.178L85.4917 136.178L85.4911 148.513Z" fill="#FFB8B8"/>
<path d="M80.0091 147.599H86.1764V151.482H76.126C76.126 150.972 76.2264 150.467 76.4216 149.996C76.6167 149.525 76.9027 149.097 77.2633 148.736C77.6239 148.375 78.052 148.089 78.5231 147.894C78.9942 147.699 79.4992 147.599 80.0091 147.599Z" fill="#2F2E41"/>
<path d="M85.3303 143.468C85.3111 143.468 85.2919 143.467 85.2725 143.466L81.7288 143.297C81.4304 143.283 81.1488 143.155 80.9412 142.94C80.7335 142.725 80.6155 142.44 80.611 142.141L80.1307 107.086C80.1295 106.999 80.0994 106.915 80.0451 106.847C79.9908 106.779 79.9154 106.731 79.8309 106.711C79.7463 106.691 79.6574 106.699 79.5782 106.735C79.499 106.771 79.434 106.832 79.3934 106.909L60.6236 142.499C60.5071 142.722 60.3218 142.901 60.0951 143.01C59.8685 143.119 59.6127 143.152 59.3658 143.104L55.839 142.432C55.6729 142.401 55.5155 142.334 55.3778 142.236C55.24 142.138 55.1251 142.011 55.0409 141.864C54.9566 141.718 54.905 141.555 54.8896 141.386C54.8743 141.218 54.8954 141.048 54.9517 140.889L68.6277 102.14L69.68 90.6778C69.7034 90.4104 69.8184 90.1594 70.0054 89.9669C70.1924 89.7745 70.4401 89.6524 70.7067 89.6214C74.6916 89.1318 80.2597 85.8667 82.4687 84.4856C82.6043 84.4001 82.7561 84.3436 82.9146 84.3198C83.0731 84.2959 83.2349 84.3052 83.3896 84.347C83.5461 84.3891 83.6923 84.4628 83.8193 84.5635C83.9463 84.6642 84.0514 84.7898 84.128 84.9326C89.4492 94.8217 91.4844 106.148 89.9387 117.271L86.4912 142.453C86.4542 142.734 86.3159 142.992 86.1022 143.179C85.8885 143.366 85.6141 143.468 85.3303 143.468Z" fill="#2F2E41"/>
<path d="M75.7913 66.0438C79.3296 66.0438 82.1979 63.1755 82.1979 59.6373C82.1979 56.099 79.3296 53.2307 75.7913 53.2307C72.2531 53.2307 69.3848 56.099 69.3848 59.6373C69.3848 63.1755 72.2531 66.0438 75.7913 66.0438Z" fill="#FFB8B8"/>
<path d="M69.408 93.4297L67.4789 79.6456C67.0093 77.5511 67.3905 75.3558 68.5387 73.5423C69.6869 71.7287 71.5082 70.4452 73.6022 69.9738C75.6963 69.5024 77.8919 69.8818 79.7064 71.0285C81.521 72.1752 82.806 73.9954 83.2791 76.0891C83.8285 78.6371 84.9446 81.7389 84.5369 85.0828C81.6799 93.0122 76.4937 95.457 69.408 93.4297Z" fill="#B3B3B3"/>
<path d="M77.8856 72.0408H73.1904C72.8792 72.0405 72.5808 71.9167 72.3608 71.6966C72.1407 71.4766 72.017 71.1782 72.0166 70.867V69.302C72.017 68.9908 72.1407 68.6924 72.3608 68.4724C72.5808 68.2523 72.8792 68.1285 73.1904 68.1282H77.8856C78.1968 68.1285 78.4951 68.2523 78.7152 68.4724C78.9352 68.6924 79.059 68.9908 79.0593 69.302V70.867C79.059 71.1782 78.9352 71.4766 78.7152 71.6966C78.4951 71.9167 78.1968 72.0405 77.8856 72.0408Z" fill="#B3B3B3"/>
<path d="M101.681 98.0944C101.808 97.705 101.848 97.2925 101.799 96.8858C101.75 96.4791 101.612 96.0882 101.395 95.7406C101.178 95.3929 100.888 95.0971 100.545 94.8738C100.201 94.6505 99.813 94.5052 99.4073 94.4482L84.7925 73.5249L80.459 77.8092L96.1875 97.0289C96.1369 97.7168 96.3403 98.3993 96.7593 98.9471C97.1783 99.495 97.7837 99.8701 98.4608 100.001C99.1379 100.133 99.8396 100.011 100.433 99.6597C101.026 99.3082 101.47 98.7513 101.681 98.0944Z" fill="#FFB8B8"/>
<path d="M89.364 79.9256L84.0862 83.4488C83.936 83.5491 83.766 83.6158 83.5877 83.6444C83.4095 83.673 83.2271 83.6628 83.0531 83.6146C82.8791 83.5664 82.7176 83.4813 82.5794 83.365C82.4413 83.2487 82.3299 83.104 82.2527 82.9408L79.5492 77.2211C79.0411 76.4499 78.8595 75.5087 79.0441 74.6038C79.2287 73.6989 79.7646 72.9041 80.5342 72.3936C81.3038 71.8831 82.2444 71.6985 83.1499 71.8803C84.0553 72.0621 84.8518 72.5954 85.3647 73.3634L89.5979 78.0374C89.719 78.1713 89.8099 78.3297 89.8644 78.5019C89.9188 78.674 89.9355 78.8559 89.9133 79.0351C89.8911 79.2143 89.8305 79.3865 89.7357 79.5402C89.6409 79.6939 89.5141 79.8253 89.364 79.9256Z" fill="#B3B3B3"/>
<path d="M50.0503 69.9808C50.0823 70.1215 50.1032 70.2645 50.1127 70.4086L61.3179 76.8728L64.0414 75.3049L66.9449 79.1059L62.3931 82.3502C62.0254 82.6123 61.5826 82.748 61.1311 82.737C60.6797 82.726 60.244 82.5689 59.8895 82.2892L48.3351 73.1738C47.8136 73.3668 47.2458 73.3965 46.7071 73.2589C46.1683 73.1214 45.6842 72.823 45.3192 72.4036C44.9542 71.9842 44.7255 71.4636 44.6635 70.911C44.6016 70.3584 44.7094 69.8001 44.9725 69.3103C45.2356 68.8205 45.6416 68.4224 46.1365 68.1689C46.6314 67.9155 47.1918 67.8187 47.743 67.8915C48.2942 67.9643 48.8103 68.2031 49.2224 68.5764C49.6346 68.9496 49.9234 69.4394 50.0503 69.9808Z" fill="#FFB8B8"/>
<path d="M64.5748 81.5698L61.7593 75.8829C61.6792 75.721 61.6349 75.5439 61.6295 75.3634C61.624 75.1829 61.6575 75.0034 61.7277 74.837C61.7979 74.6707 61.9031 74.5214 62.0362 74.3994C62.1692 74.2774 62.327 74.1854 62.4988 74.1299L68.5187 72.1841C69.3489 71.7789 70.3058 71.7195 71.1798 72.0188C72.0537 72.3182 72.7733 72.9519 73.1807 73.7809C73.5882 74.61 73.6502 75.5668 73.3533 76.4416C73.0564 77.3163 72.4247 78.0377 71.5967 78.4474L66.4172 82.0445C66.2689 82.1475 66.1001 82.2172 65.9224 82.2491C65.7447 82.2809 65.5622 82.2741 65.3873 82.229C65.2125 82.184 65.0494 82.1018 64.9092 81.988C64.769 81.8742 64.655 81.7316 64.5748 81.5698Z" fill="#B3B3B3"/>
<path d="M80.0905 51.5688C80.3212 51.6025 80.5565 51.5592 80.7601 51.4455C80.9636 51.3319 81.1241 51.1544 81.2165 50.9403C81.302 50.7235 81.3366 50.49 81.3178 50.2577C81.2991 50.0254 81.2273 49.8005 81.1081 49.6002C80.8655 49.2011 80.5269 48.869 80.1232 48.6342C79.6582 48.3235 79.1207 48.1385 78.5629 48.0974C78.2846 48.0792 78.0057 48.121 77.7449 48.2199C77.4842 48.3189 77.2478 48.4728 77.0517 48.6711C76.8604 48.8743 76.734 49.13 76.6889 49.4055C76.6437 49.6809 76.6818 49.9636 76.7982 50.2173C77.0325 50.669 77.524 50.9223 78.0029 51.0943C78.953 51.4347 79.965 51.5676 80.9707 51.4841" fill="#2F2E41"/>
<path d="M82.1394 62.5543C81.0196 62.6069 81.2124 60.2309 80.862 59.1661C80.5116 58.1013 80.0285 56.8312 78.9262 56.627C78.0229 56.4597 77.2066 57.1202 76.4198 57.5944C75.0174 58.4395 73.2021 58.7513 71.7295 58.0354C70.2569 57.3195 69.3614 55.4066 70.0776 53.9342C70.2957 53.5294 70.5946 53.1738 70.9558 52.8893C71.3169 52.6047 71.7326 52.3974 72.1772 52.2801C73.0684 52.051 73.997 52.0064 74.9061 52.149C76.9342 52.3976 78.8829 53.0884 80.6148 54.1724C81.81 54.922 82.9472 55.9426 83.303 57.3078C83.6588 58.6729 83.8038 62.3851 82.4128 62.6201L82.1394 62.5543Z" fill="#2F2E41"/>
<path d="M79.2097 48.2642C78.3639 47.1919 78.6825 45.5025 79.6683 44.5573C80.6542 43.6122 82.1201 43.3176 83.4806 43.4378C84.8285 43.5736 86.117 44.0614 87.2168 44.8522C88.3167 45.6431 89.1894 46.7093 89.7472 47.9438C90.6069 49.9104 90.5998 52.1598 91.3773 54.1603C91.7917 55.2267 92.4201 56.197 93.2237 57.0114C94.0272 57.8258 94.989 58.467 96.0498 58.8957C97.1106 59.3244 98.2478 59.5314 99.3916 59.5039C100.535 59.4765 101.661 59.2152 102.7 58.7361C104.054 58.1122 105.342 56.8903 105.265 55.4022C106.121 58.7008 104.58 62.4742 101.66 64.2309C99.9491 65.2599 97.9234 65.6092 95.9419 65.8496C94.6505 66.0063 93.3233 66.1228 92.0632 65.8001C90.3001 65.3486 88.824 64.0473 87.9301 62.4619C87.0363 60.8765 86.6847 59.0291 86.671 57.2091C86.6604 55.7914 86.846 54.3729 86.7479 52.9585C86.6499 51.5441 86.2247 50.0811 85.1994 49.1018C84.1741 48.1226 82.444 47.8002 81.3187 48.6628C80.8665 49.0095 80.5351 49.5157 80.0259 49.7714C79.5167 50.0272 78.7123 49.8283 78.6782 49.2595L79.2097 48.2642Z" fill="#2F2E41"/>
<path d="M54.6628 70.0264H1.82209C1.33901 70.0258 0.875885 69.8337 0.534298 69.4921C0.19271 69.1505 0.000560562 68.6874 0 68.2043V38.4434C0.000561251 37.9604 0.192711 37.4972 0.534298 37.1556C0.875885 36.8141 1.33901 36.6219 1.82209 36.6213H54.6628C55.1459 36.6219 55.609 36.814 55.9506 37.1556C56.2922 37.4972 56.4844 37.9603 56.4849 38.4434V68.2043C56.4844 68.6874 56.2922 69.1505 55.9506 69.4921C55.609 69.8337 55.1459 70.0258 54.6628 70.0264ZM1.82209 37.0263C1.44636 37.0267 1.08614 37.1761 0.820458 37.4418C0.554775 37.7075 0.405329 38.0677 0.404908 38.4434V68.2043C0.405329 68.58 0.554776 68.9403 0.820458 69.2059C1.08614 69.4716 1.44636 69.6211 1.82209 69.6215H54.6628C55.0385 69.621 55.3988 69.4716 55.6644 69.2059C55.9301 68.9402 56.0796 68.58 56.08 68.2043V38.4434C56.0796 38.0677 55.9301 37.7075 55.6644 37.4418C55.3988 37.1761 55.0385 37.0267 54.6628 37.0263H1.82209Z" fill="#3F3D56"/>
<path d="M19.2419 57.5129C23.4149 57.5129 26.7978 54.13 26.7978 49.957C26.7978 45.784 23.4149 42.4011 19.2419 42.4011C15.0689 42.4011 11.686 45.784 11.686 49.957C11.686 54.13 15.0689 57.5129 19.2419 57.5129Z" fill="#E6E6E6"/>
<path d="M48.3577 63.2995L39.4882 47.9372C39.4328 47.8411 39.3531 47.7614 39.257 47.706C39.161 47.6505 39.0521 47.6213 38.9412 47.6213C38.8304 47.6213 38.7214 47.6505 38.6254 47.706C38.5294 47.7614 38.4497 47.8411 38.3942 47.9372L32.9815 57.3123L24.9122 43.3358C24.8411 43.2127 24.7389 43.1105 24.6158 43.0394C24.4927 42.9683 24.353 42.9309 24.2109 42.9309C24.0687 42.9309 23.9291 42.9683 23.8059 43.0394C23.6828 43.1105 23.5806 43.2127 23.5095 43.3358L12.1378 63.0322C12.0667 63.1553 12.0293 63.295 12.0293 63.4371C12.0293 63.5793 12.0667 63.7189 12.1378 63.842C12.2089 63.9651 12.3111 64.0674 12.4342 64.1384C12.5573 64.2095 12.697 64.2469 12.8391 64.2469H47.8107C47.9215 64.2469 48.0305 64.2177 48.1265 64.1623C48.2225 64.1069 48.3022 64.0271 48.3577 63.9311C48.4131 63.8351 48.4423 63.7262 48.4423 63.6153C48.4423 63.5044 48.4131 63.3955 48.3577 63.2995Z" fill="#473534"/>
<path d="M7.08596 40.2656H3.84668V43.5049H7.08596V40.2656Z" fill="#3F3D56"/>
<path d="M75.2315 26.205H33.9437C33.5663 26.2045 33.2044 26.0544 32.9375 25.7875C32.6706 25.5206 32.5205 25.1587 32.52 24.7813V1.52724C32.5205 1.14978 32.6706 0.787904 32.9375 0.521C33.2044 0.254097 33.5663 0.103955 33.9437 0.103516H75.2315C75.609 0.103941 75.9709 0.254078 76.2378 0.520984C76.5047 0.787891 76.6548 1.14977 76.6552 1.52724V24.7813C76.6548 25.1587 76.5047 25.5206 76.2378 25.7875C75.9709 26.0544 75.609 26.2046 75.2315 26.205ZM33.9437 0.419897C33.6502 0.420227 33.3687 0.536998 33.1611 0.744593C32.9535 0.952187 32.8367 1.23365 32.8364 1.52724V24.7813C32.8367 25.0749 32.9535 25.3563 33.1611 25.5639C33.3687 25.7715 33.6502 25.8883 33.9437 25.8886H75.2315C75.5251 25.8883 75.8065 25.7715 76.0141 25.5639C76.2217 25.3563 76.3385 25.0748 76.3388 24.7813V1.52724C76.3385 1.23366 76.2217 0.9522 76.0141 0.744609C75.8065 0.537017 75.5251 0.420239 75.2315 0.419897H33.9437Z" fill="#CCCCCC"/>
<path d="M47.5548 16.4274C50.8154 16.4274 53.4586 13.7841 53.4586 10.5235C53.4586 7.26288 50.8154 4.61963 47.5548 4.61963C44.2941 4.61963 41.6509 7.26288 41.6509 10.5235C41.6509 13.7841 44.2941 16.4274 47.5548 16.4274Z" fill="#F2F2F2"/>
<path d="M70.3046 20.9487L63.3743 8.94513C63.331 8.8701 63.2687 8.80779 63.1937 8.76447C63.1187 8.72115 63.0336 8.69835 62.9469 8.69835C62.8603 8.69835 62.7752 8.72115 62.7002 8.76447C62.6251 8.80779 62.5628 8.8701 62.5195 8.94513L58.2902 16.2705L51.9851 5.34982C51.9296 5.25363 51.8497 5.17376 51.7535 5.11822C51.6573 5.06268 51.5482 5.03345 51.4372 5.03345C51.3261 5.03345 51.217 5.06268 51.1208 5.11822C51.0246 5.17376 50.9447 5.25363 50.8892 5.34982L42.0037 20.7398C41.9482 20.836 41.9189 20.9452 41.9189 21.0562C41.9189 21.1673 41.9482 21.2764 42.0037 21.3726C42.0593 21.4688 42.1391 21.5487 42.2353 21.6042C42.3315 21.6598 42.4406 21.689 42.5517 21.689H69.8772C69.9638 21.689 70.0489 21.6662 70.1239 21.6229C70.199 21.5795 70.2613 21.5173 70.3046 21.4422C70.3479 21.3672 70.3707 21.2821 70.3707 21.1955C70.3707 21.1088 70.3479 21.0237 70.3046 20.9487Z" fill="#E6E6E6"/>
<path d="M38.0564 2.95093H35.5254V5.48198H38.0564V2.95093Z" fill="#CCCCCC"/>
</g>
<defs>
<clipPath id="clip0_231_877">
<rect width="224" height="151.793" fill="white" transform="translate(0 0.103516)"/>
</clipPath>
</defs>
</svg>
