<svg width="156" height="159" viewBox="0 0 156 159" fill="none" xmlns="http://www.w3.org/2000/svg">
<g filter="url(#filter0_d_188_2092)">
<path d="M0 16.8766C0 8.04003 7.16344 0.876587 16 0.876587H136C144.837 0.876587 152 8.04003 152 16.8766V138.877C152 147.713 144.837 154.877 136 154.877H16C7.16345 154.877 0 147.713 0 138.877V16.8766Z" fill="white" shape-rendering="crispEdges"/>
<g clip-path="url(#clip0_188_2092)">
<path d="M123.338 96.593C123.586 93.9143 124.273 91.2946 125.371 88.8385C125.677 88.155 126.014 87.4865 126.381 86.8331C126.4 86.799 126.404 86.759 126.394 86.7216C126.383 86.6842 126.359 86.6524 126.325 86.6328C126.292 86.6132 126.252 86.6074 126.214 86.6166C126.176 86.6258 126.144 86.6493 126.123 86.6821C124.786 89.062 123.85 91.6453 123.351 94.3289C123.212 95.0783 123.108 95.833 123.038 96.593C123.021 96.7847 123.32 96.7835 123.338 96.593Z" fill="#F2F2F2"/>
<path d="M127.106 87.3131C128.153 87.3131 129.002 86.4645 129.002 85.4177C129.002 84.3709 128.153 83.5223 127.106 83.5223C126.06 83.5223 125.211 84.3709 125.211 85.4177C125.211 86.4645 126.06 87.3131 127.106 87.3131Z" fill="#F2F2F2"/>
<path d="M123.532 96.6433C123.693 94.9055 124.139 93.206 124.851 91.6127C125.049 91.1692 125.268 90.7356 125.506 90.3117C125.518 90.2895 125.521 90.2635 125.514 90.2393C125.507 90.215 125.492 90.1943 125.47 90.1816C125.448 90.1689 125.422 90.1651 125.398 90.1711C125.373 90.1771 125.352 90.1924 125.339 90.2137C124.471 91.7576 123.864 93.4336 123.54 95.1745C123.45 95.6607 123.383 96.1503 123.337 96.6433C123.326 96.7677 123.52 96.7669 123.532 96.6433Z" fill="#F2F2F2"/>
<path d="M125.976 90.623C126.655 90.623 127.206 90.0725 127.206 89.3934C127.206 88.7143 126.655 88.1638 125.976 88.1638C125.297 88.1638 124.747 88.7143 124.747 89.3934C124.747 90.0725 125.297 90.623 125.976 90.623Z" fill="#F2F2F2"/>
<path d="M123.287 96.5272C122.345 95.0578 121.651 93.4436 121.233 91.7492C121.116 91.2775 121.022 90.8012 120.949 90.3203C120.945 90.2955 120.931 90.2732 120.911 90.2583C120.891 90.2434 120.866 90.2369 120.841 90.2402C120.816 90.2436 120.793 90.2565 120.777 90.2763C120.762 90.296 120.754 90.3211 120.757 90.3462C121.023 92.0969 121.575 93.792 122.39 95.3637C122.618 95.8024 122.866 96.23 123.134 96.6466C123.201 96.7518 123.354 96.6317 123.287 96.5272Z" fill="#F2F2F2"/>
<path d="M120.755 90.5367C121.434 90.5367 121.985 89.9862 121.985 89.3071C121.985 88.628 121.434 88.0775 120.755 88.0775C120.076 88.0775 119.525 88.628 119.525 89.3071C119.525 89.9862 120.076 90.5367 120.755 90.5367Z" fill="#F2F2F2"/>
<path d="M43.9611 96.593C43.7124 93.9143 43.0254 91.2946 41.9276 88.8385C41.6217 88.155 41.2849 87.4866 40.9174 86.8332C40.8989 86.799 40.8945 86.759 40.905 86.7216C40.9155 86.6842 40.9401 86.6524 40.9736 86.6328C41.0071 86.6132 41.0469 86.6074 41.0847 86.6166C41.1224 86.6258 41.1551 86.6493 41.1758 86.6821C42.5124 89.062 43.4489 91.6453 43.9476 94.3289C44.0863 95.0783 44.1906 95.833 44.2604 96.593C44.2781 96.7847 43.9788 96.7835 43.9611 96.593Z" fill="#F2F2F2"/>
<path d="M40.1927 87.3131C41.2395 87.3131 42.0881 86.4645 42.0881 85.4177C42.0881 84.3709 41.2395 83.5223 40.1927 83.5223C39.1459 83.5223 38.2974 84.3709 38.2974 85.4177C38.2974 86.4645 39.1459 87.3131 40.1927 87.3131Z" fill="#F2F2F2"/>
<path d="M43.7671 96.6433C43.6057 94.9055 43.1601 93.206 42.4479 91.6127C42.2494 91.1692 42.0309 90.7356 41.7924 90.3117C41.7805 90.2895 41.7776 90.2635 41.7844 90.2393C41.7912 90.215 41.8071 90.1943 41.8289 90.1816C41.8506 90.1689 41.8765 90.1651 41.901 90.1711C41.9255 90.1771 41.9467 90.1924 41.9601 90.2137C42.8272 91.7576 43.4347 93.4336 43.7583 95.1745C43.8483 95.6607 43.9159 96.1503 43.9612 96.6433C43.9727 96.7677 43.7785 96.7669 43.7671 96.6433Z" fill="#F2F2F2"/>
<path d="M41.3224 90.623C42.0015 90.623 42.552 90.0725 42.552 89.3934C42.552 88.7143 42.0015 88.1638 41.3224 88.1638C40.6433 88.1638 40.0928 88.7143 40.0928 89.3934C40.0928 90.0725 40.6433 90.623 41.3224 90.623Z" fill="#F2F2F2"/>
<path d="M44.0122 96.5272C44.9539 95.0578 45.6478 93.4436 46.0662 91.7492C46.1824 91.2775 46.2769 90.8012 46.3496 90.3203C46.3538 90.2955 46.3675 90.2732 46.3878 90.2583C46.4081 90.2434 46.4334 90.2369 46.4583 90.2402C46.4833 90.2436 46.506 90.2565 46.5216 90.2763C46.5372 90.296 46.5446 90.3211 46.5421 90.3462C46.2762 92.0969 45.7244 93.792 44.9087 95.3637C44.6806 95.8024 44.4329 96.23 44.1653 96.6466C44.0979 96.7518 43.9452 96.6317 44.0122 96.5272Z" fill="#F2F2F2"/>
<path d="M46.5436 90.5367C47.2227 90.5367 47.7732 89.9862 47.7732 89.3071C47.7732 88.628 47.2227 88.0775 46.5436 88.0775C45.8645 88.0775 45.314 88.628 45.314 89.3071C45.314 89.9862 45.8645 90.5367 46.5436 90.5367Z" fill="#F2F2F2"/>
<path d="M116.214 71.8153L116.243 94.1C116.243 94.5137 116.079 94.9106 115.787 95.2035C115.495 95.4965 115.099 95.6616 114.685 95.6627L105.428 95.6763C108.034 90.8015 109.51 83.1287 109.501 77.2143C109.499 74.8802 109.261 72.5524 108.793 70.2658L114.651 70.2572C115.065 70.2571 115.461 70.421 115.754 70.7131C116.047 71.0052 116.212 71.4016 116.214 71.8153Z" fill="#473534"/>
<path d="M128.977 96.8765H37.6318C37.5928 96.8764 37.5554 96.8609 37.5279 96.8332C37.5003 96.8056 37.4849 96.7682 37.4849 96.7292C37.4849 96.6902 37.5003 96.6528 37.5279 96.6252C37.5554 96.5976 37.5928 96.582 37.6318 96.5819H128.977C129.016 96.5819 129.054 96.5974 129.082 96.6251C129.109 96.6527 129.125 96.6902 129.125 96.7292C129.125 96.7683 129.109 96.8058 129.082 96.8334C129.054 96.861 129.016 96.8765 128.977 96.8765Z" fill="#3F3D56"/>
<path d="M102.649 68.7695L86.1514 68.7048L87.7556 63.3677C87.8836 62.9484 88.1425 62.581 88.4943 62.3194C88.8462 62.0579 89.2725 61.9157 89.7109 61.9138H89.7186L99.1348 61.9508C99.5746 61.9544 100.002 62.0992 100.353 62.3637C100.704 62.6281 100.961 62.9984 101.086 63.42L102.649 68.7695Z" fill="#3F3D56"/>
<path d="M111.859 66.9432C111.399 66.9432 110.959 67.1257 110.634 67.4506C110.309 67.7754 110.126 68.216 110.126 68.6754H113.591C113.591 68.216 113.408 67.7754 113.083 67.4506C112.759 67.1257 112.318 66.9432 111.859 66.9432Z" fill="#473534"/>
<path d="M117.179 96.761H71.6483C71.0906 96.7604 70.556 96.5386 70.1617 96.1443C69.7673 95.7499 69.5455 95.2153 69.5449 94.6577V70.655C69.5455 70.0973 69.7673 69.5627 70.1617 69.1684C70.556 68.7741 71.0906 68.5523 71.6483 68.5516H117.179C117.737 68.5523 118.271 68.7741 118.666 69.1684C119.06 69.5627 119.282 70.0973 119.282 70.655V94.6577C119.282 95.2153 119.06 95.7499 118.666 96.1443C118.271 96.5386 117.737 96.7604 117.179 96.761ZM71.6483 68.7991C71.1562 68.7996 70.6845 68.9954 70.3366 69.3433C69.9886 69.6912 69.7929 70.1629 69.7924 70.655V94.6577C69.7929 95.1497 69.9886 95.6214 70.3366 95.9694C70.6845 96.3173 71.1562 96.513 71.6483 96.5135H117.179C117.671 96.513 118.143 96.3173 118.491 95.9694C118.839 95.6214 119.034 95.1497 119.035 94.6577V70.655C119.034 70.1629 118.839 69.6912 118.491 69.3433C118.143 68.9954 117.671 68.7996 117.179 68.7991H71.6483Z" fill="#3F3D56"/>
<path d="M96.3932 66.7576H92.434C92.1551 66.7576 91.8876 66.6468 91.6903 66.4496C91.4931 66.2524 91.3823 65.9849 91.3823 65.706C91.3823 65.427 91.4931 65.1595 91.6903 64.9623C91.8876 64.7651 92.1551 64.6543 92.434 64.6543H96.3932C96.6721 64.6543 96.9396 64.7651 97.1368 64.9623C97.3341 65.1595 97.4449 65.427 97.4449 65.706C97.4449 65.9849 97.3341 66.2524 97.1368 66.4496C96.9396 66.6468 96.6721 66.7576 96.3932 66.7576Z" fill="white"/>
<path d="M94.4134 92.0594C92.5536 92.0594 90.7356 91.5079 89.1893 90.4747C87.6429 89.4415 86.4377 87.9729 85.726 86.2547C85.0143 84.5365 84.8281 82.6459 85.1909 80.8218C85.5538 78.9978 86.4493 77.3223 87.7644 76.0073C89.0794 74.6922 90.7549 73.7967 92.5789 73.4339C94.4029 73.071 96.2936 73.2572 98.0118 73.9689C99.73 74.6806 101.199 75.8859 102.232 77.4322C103.265 78.9785 103.817 80.7965 103.817 82.6563C103.814 85.1493 102.822 87.5394 101.059 89.3022C99.2965 91.065 96.9064 92.0566 94.4134 92.0594ZM94.4134 73.5006C92.6026 73.5006 90.8324 74.0376 89.3268 75.0436C87.8211 76.0497 86.6476 77.4796 85.9546 79.1526C85.2617 80.8256 85.0804 82.6665 85.4336 84.4425C85.7869 86.2185 86.6589 87.8499 87.9393 89.1303C89.2198 90.4108 90.8512 91.2828 92.6272 91.636C94.4032 91.9893 96.2441 91.808 97.9171 91.115C99.5901 90.4221 101.02 89.2486 102.026 87.7429C103.032 86.2373 103.569 84.4671 103.569 82.6563C103.566 80.2289 102.601 77.9017 100.884 76.1853C99.168 74.4689 96.8408 73.5034 94.4134 73.5006Z" fill="#3F3D56"/>
<path d="M94.4133 88.8425C93.1898 88.8425 91.9937 88.4797 90.9764 87.7999C89.9591 87.1202 89.1662 86.154 88.698 85.0236C88.2297 83.8932 88.1072 82.6494 88.3459 81.4494C88.5846 80.2493 89.1738 79.147 90.039 78.2819C90.9041 77.4167 92.0064 76.8275 93.2064 76.5888C94.4065 76.3501 95.6503 76.4727 96.7807 76.9409C97.9111 77.4091 98.8773 78.202 99.557 79.2193C100.237 80.2367 100.6 81.4327 100.6 82.6562C100.598 84.2964 99.9454 85.8688 98.7856 87.0285C97.6259 88.1883 96.0534 88.8406 94.4133 88.8425ZM94.4133 76.7174C93.2387 76.7174 92.0905 77.0657 91.1139 77.7183C90.1373 78.3709 89.3761 79.2984 88.9266 80.3836C88.4771 81.4687 88.3595 82.6628 88.5886 83.8148C88.8178 84.9669 89.3834 86.025 90.2139 86.8556C91.0445 87.6862 92.1027 88.2518 93.2547 88.4809C94.4067 88.7101 95.6008 88.5925 96.686 88.143C97.7712 87.6935 98.6987 86.9323 99.3513 85.9557C100.004 84.979 100.352 83.8308 100.352 82.6562C100.35 81.0817 99.7241 79.5722 98.6107 78.4588C97.4974 77.3455 95.9878 76.7192 94.4133 76.7174Z" fill="#3F3D56"/>
<path d="M94.4135 87.3578C97.0101 87.3578 99.115 85.2529 99.115 82.6563C99.115 80.0597 97.0101 77.9547 94.4135 77.9547C91.8169 77.9547 89.7119 80.0597 89.7119 82.6563C89.7119 85.2529 91.8169 87.3578 94.4135 87.3578Z" fill="#CCCCCC"/>
<path d="M91.5677 82.6562C91.5678 81.911 91.837 81.1908 92.3257 80.6282C92.8145 80.0655 93.4899 79.6983 94.2278 79.5939C93.7892 79.5316 93.3424 79.5641 92.9175 79.6894C92.4926 79.8147 92.0995 80.0298 91.765 80.3202C91.4304 80.6105 91.1621 80.9694 90.9782 81.3724C90.7944 81.7754 90.6992 82.2132 90.6992 82.6562C90.6992 83.0992 90.7944 83.5371 90.9782 83.9401C91.1621 84.3431 91.4304 84.702 91.765 84.9923C92.0995 85.2827 92.4926 85.4978 92.9175 85.6231C93.3424 85.7484 93.7892 85.7809 94.2278 85.7186C93.4899 85.6142 92.8145 85.2469 92.3257 84.6843C91.837 84.1217 91.5678 83.4015 91.5677 82.6562Z" fill="white"/>
<path d="M114.952 68.799H108.766V68.6753C108.766 67.8549 109.092 67.0682 109.672 66.4881C110.252 65.908 111.038 65.5822 111.859 65.5822C112.679 65.5822 113.466 65.908 114.046 66.4881C114.626 67.0682 114.952 67.8549 114.952 68.6753V68.799ZM109.016 68.5516H114.702C114.67 67.819 114.356 67.127 113.827 66.6198C113.297 66.1127 112.592 65.8297 111.859 65.8297C111.125 65.8297 110.42 66.1127 109.891 66.6198C109.361 67.127 109.048 67.819 109.016 68.5516Z" fill="#3F3D56"/>
<path d="M72.6376 72.2633C72.3929 72.2633 72.1537 72.1908 71.9503 72.0548C71.7468 71.9189 71.5882 71.7256 71.4946 71.4995C71.4009 71.2735 71.3764 71.0247 71.4242 70.7847C71.4719 70.5447 71.5897 70.3242 71.7628 70.1512C71.9358 69.9782 72.1563 69.8603 72.3963 69.8126C72.6363 69.7649 72.885 69.7894 73.1111 69.883C73.3372 69.9766 73.5304 70.1352 73.6664 70.3387C73.8023 70.5422 73.8749 70.7814 73.8749 71.0261C73.8745 71.3541 73.7441 71.6686 73.5121 71.9005C73.2802 72.1325 72.9657 72.263 72.6376 72.2633ZM72.6376 70.0363C72.4419 70.0363 72.2505 70.0943 72.0877 70.2031C71.925 70.3118 71.7981 70.4664 71.7232 70.6473C71.6483 70.8282 71.6287 71.0272 71.6669 71.2192C71.7051 71.4112 71.7993 71.5875 71.9377 71.726C72.0762 71.8644 72.2525 71.9587 72.4445 71.9969C72.6365 72.0351 72.8356 72.0154 73.0164 71.9405C73.1973 71.8656 73.3519 71.7388 73.4606 71.576C73.5694 71.4132 73.6274 71.2218 73.6274 71.0261C73.6271 70.7637 73.5228 70.5121 73.3372 70.3265C73.1517 70.1409 72.9001 70.0366 72.6376 70.0363Z" fill="#3F3D56"/>
<path d="M72.6377 71.6447C72.9793 71.6447 73.2563 71.3678 73.2563 71.0261C73.2563 70.6844 72.9793 70.4075 72.6377 70.4075C72.296 70.4075 72.019 70.6844 72.019 71.0261C72.019 71.3678 72.296 71.6447 72.6377 71.6447Z" fill="#473534"/>
<path d="M75.8545 71.6447C76.1961 71.6447 76.4731 71.3678 76.4731 71.0261C76.4731 70.6844 76.1961 70.4075 75.8545 70.4075C75.5128 70.4075 75.2358 70.6844 75.2358 71.0261C75.2358 71.3678 75.5128 71.6447 75.8545 71.6447Z" fill="#CCCCCC"/>
<path d="M79.0718 71.6447C79.4134 71.6447 79.6904 71.3678 79.6904 71.0261C79.6904 70.6844 79.4134 70.4075 79.0718 70.4075C78.7301 70.4075 78.4531 70.6844 78.4531 71.0261C78.4531 71.3678 78.7301 71.6447 79.0718 71.6447Z" fill="#CCCCCC"/>
<path d="M75.8549 72.2633C75.6102 72.2633 75.371 72.1908 75.1675 72.0548C74.9641 71.9189 74.8055 71.7256 74.7119 71.4995C74.6182 71.2735 74.5937 71.0247 74.6415 70.7847C74.6892 70.5447 74.807 70.3242 74.9801 70.1512C75.1531 69.9782 75.3735 69.8603 75.6136 69.8126C75.8536 69.7649 76.1023 69.7894 76.3284 69.883C76.5545 69.9766 76.7477 70.1352 76.8837 70.3387C77.0196 70.5422 77.0922 70.7814 77.0922 71.0261C77.0918 71.3541 76.9613 71.6686 76.7294 71.9005C76.4974 72.1325 76.183 72.263 75.8549 72.2633ZM75.8549 70.0363C75.6592 70.0363 75.4678 70.0943 75.305 70.2031C75.1423 70.3118 75.0154 70.4664 74.9405 70.6473C74.8656 70.8282 74.846 71.0272 74.8841 71.2192C74.9223 71.4112 75.0166 71.5875 75.155 71.726C75.2935 71.8644 75.4698 71.9587 75.6618 71.9969C75.8538 72.0351 76.0528 72.0154 76.2337 71.9405C76.4146 71.8656 76.5692 71.7388 76.6779 71.576C76.7867 71.4132 76.8447 71.2218 76.8447 71.0261C76.8444 70.7637 76.7401 70.5121 76.5545 70.3265C76.3689 70.1409 76.1174 70.0366 75.8549 70.0363Z" fill="#3F3D56"/>
<path d="M79.0717 72.2633C78.827 72.2633 78.5878 72.1908 78.3843 72.0548C78.1809 71.9189 78.0223 71.7256 77.9287 71.4995C77.835 71.2735 77.8105 71.0247 77.8582 70.7847C77.906 70.5447 78.0238 70.3242 78.1969 70.1512C78.3699 69.9782 78.5903 69.8603 78.8303 69.8126C79.0704 69.7649 79.3191 69.7894 79.5452 69.883C79.7713 69.9766 79.9645 70.1352 80.1005 70.3387C80.2364 70.5422 80.309 70.7814 80.309 71.0261C80.3086 71.3541 80.1781 71.6686 79.9462 71.9005C79.7142 72.1325 79.3998 72.263 79.0717 72.2633ZM79.0717 70.0363C78.876 70.0363 78.6846 70.0943 78.5218 70.2031C78.359 70.3118 78.2322 70.4664 78.1573 70.6473C78.0824 70.8282 78.0627 71.0272 78.1009 71.2192C78.1391 71.4112 78.2334 71.5875 78.3718 71.726C78.5103 71.8644 78.6866 71.9587 78.8786 71.9969C79.0706 72.0351 79.2696 72.0154 79.4505 71.9405C79.6314 71.8656 79.786 71.7388 79.8947 71.576C80.0035 71.4132 80.0615 71.2218 80.0615 71.0261C80.0612 70.7637 79.9569 70.5121 79.7713 70.3265C79.5857 70.1409 79.3341 70.0366 79.0717 70.0363Z" fill="#3F3D56"/>
<path d="M85.7527 79.3002H69.6685V79.5476H85.7527V79.3002Z" fill="#3F3D56"/>
<path d="M85.3533 84.2803H69.6685V84.5277H85.3533V84.2803Z" fill="#3F3D56"/>
<path d="M119.159 79.3002H103.074V79.5476H119.159V79.3002Z" fill="#3F3D56"/>
<path d="M119.13 84.2803H103.445V84.5277H119.13V84.2803Z" fill="#3F3D56"/>
<path d="M56.6303 54.877C55.6269 54.4161 54.9674 53.0982 55.0049 51.7985C55.0425 50.4989 55.7264 49.2834 56.6698 48.6636C57.1296 48.3689 57.6555 48.1931 58.2001 48.152C58.7448 48.1108 59.2911 48.2056 59.79 48.4278C60.8024 48.8587 62.1617 48.9761 62.7702 50.0472C63.2378 50.8704 63.0694 52.7067 62.7383 53.6219C62.4521 54.413 61.7524 54.8588 61.0701 55.1082C60.3148 55.3818 59.5096 55.49 58.7089 55.4255C57.9082 55.361 57.1307 55.1253 56.429 54.7344" fill="#2F2E41"/>
<path d="M50.5128 95.2401L49.0703 94.7708L50.1939 88.9838L52.3228 89.6764L50.5128 95.2401Z" fill="#FFB8B8"/>
<path d="M48.1744 94.0234L50.9562 94.9284L50.3864 96.68L45.853 95.2051C45.9279 94.9751 46.0473 94.7621 46.2044 94.5782C46.3616 94.3944 46.5534 94.2433 46.769 94.1335C46.9845 94.0238 47.2196 93.9576 47.4607 93.9387C47.7019 93.9198 47.9444 93.9486 48.1744 94.0234Z" fill="#2F2E41"/>
<path d="M63.4259 95.2715L61.9091 95.2714L61.1875 89.4207L63.4262 89.4208L63.4259 95.2715Z" fill="#FFB8B8"/>
<path d="M60.8258 94.8379H63.7511V96.6798H58.9839C58.9839 96.4379 59.0315 96.1984 59.1241 95.9749C59.2167 95.7515 59.3523 95.5484 59.5234 95.3774C59.6944 95.2063 59.8974 95.0707 60.1209 94.9781C60.3444 94.8855 60.5839 94.8379 60.8258 94.8379Z" fill="#2F2E41"/>
<path d="M63.3494 92.8783C63.3403 92.8783 63.3312 92.8781 63.322 92.8776L61.6411 92.7975C61.4996 92.7906 61.366 92.73 61.2675 92.6281C61.169 92.5263 61.113 92.3907 61.1109 92.2491L60.8831 75.6215C60.8825 75.5803 60.8682 75.5404 60.8425 75.5082C60.8167 75.476 60.781 75.4533 60.7409 75.4437C60.7008 75.434 60.6586 75.438 60.621 75.455C60.5835 75.472 60.5526 75.5011 60.5334 75.5376L51.6303 92.4187C51.5751 92.5244 51.4871 92.6095 51.3796 92.6613C51.2721 92.713 51.1508 92.7287 51.0337 92.7059L49.3608 92.3873C49.282 92.3723 49.2074 92.3404 49.1421 92.2939C49.0767 92.2474 49.0222 92.1873 48.9822 92.1178C48.9423 92.0483 48.9178 91.9709 48.9105 91.8911C48.9032 91.8112 48.9133 91.7307 48.94 91.6551L55.4269 73.2755L55.926 67.8386C55.9371 67.7117 55.9917 67.5927 56.0804 67.5014C56.1691 67.4101 56.2866 67.3522 56.413 67.3375C58.3032 67.1053 60.9443 65.5565 61.9921 64.9014C62.0564 64.8609 62.1284 64.8341 62.2036 64.8228C62.2788 64.8115 62.3555 64.8159 62.4289 64.8357C62.5031 64.8557 62.5725 64.8906 62.6327 64.9384C62.693 64.9861 62.7428 65.0457 62.7791 65.1135C65.3031 69.8042 66.2685 75.1765 65.5353 80.4525L63.9001 92.3969C63.8825 92.5304 63.8169 92.6529 63.7156 92.7415C63.6142 92.8301 63.484 92.8787 63.3494 92.8783Z" fill="#2F2E41"/>
<path d="M58.825 56.1541C60.5032 56.1541 61.8638 54.7935 61.8638 53.1152C61.8638 51.4369 60.5032 50.0764 58.825 50.0764C57.1467 50.0764 55.7861 51.4369 55.7861 53.1152C55.7861 54.7935 57.1467 56.1541 58.825 56.1541Z" fill="#FFB8B8"/>
<path d="M55.7971 69.144L54.8821 62.6058C54.6594 61.6123 54.8402 60.5711 55.3848 59.7108C55.9294 58.8506 56.7933 58.2418 57.7866 58.0182C58.7799 57.7946 59.8213 57.9746 60.682 58.5185C61.5427 59.0624 62.1522 59.9257 62.3766 60.9188C62.6372 62.1275 63.1666 63.5988 62.9732 65.1848C61.6181 68.946 59.1581 70.1056 55.7971 69.144Z" fill="#B3B3B3"/>
<path d="M59.8185 58.9986H57.5914C57.4438 58.9984 57.3023 58.9397 57.1979 58.8353C57.0935 58.7309 57.0348 58.5894 57.0347 58.4418V57.6995C57.0348 57.5519 57.0935 57.4103 57.1979 57.306C57.3023 57.2016 57.4438 57.1429 57.5914 57.1427H59.8185C59.9661 57.1429 60.1076 57.2016 60.212 57.306C60.3164 57.4103 60.3751 57.5519 60.3753 57.6995V58.4418C60.3751 58.5894 60.3164 58.7309 60.212 58.8353C60.1076 58.9397 59.9661 58.9984 59.8185 58.9986Z" fill="#B3B3B3"/>
<path d="M71.1051 71.3565C71.1655 71.1719 71.1847 70.9762 71.1613 70.7833C71.1379 70.5904 71.0725 70.405 70.9697 70.2401C70.8669 70.0752 70.7292 69.9348 70.5663 69.8289C70.4034 69.723 70.2192 69.6541 70.0268 69.627L63.0946 59.7025L61.0391 61.7347L68.4996 70.8512C68.4756 71.1774 68.5721 71.5012 68.7708 71.761C68.9695 72.0209 69.2567 72.1988 69.5778 72.2611C69.899 72.3234 70.2319 72.2657 70.5133 72.099C70.7948 71.9323 71.0054 71.6681 71.1051 71.3565Z" fill="#FFB8B8"/>
<path d="M65.2629 62.7385L62.7595 64.4097C62.6883 64.4572 62.6076 64.4889 62.5231 64.5025C62.4385 64.516 62.352 64.5112 62.2695 64.4883C62.187 64.4655 62.1103 64.4251 62.0448 64.3699C61.9793 64.3148 61.9264 64.2462 61.8898 64.1687L60.6075 61.4557C60.3665 61.0899 60.2803 60.6435 60.3679 60.2142C60.4555 59.785 60.7096 59.408 61.0747 59.1659C61.4397 58.9237 61.8859 58.8362 62.3154 58.9224C62.7449 59.0086 63.1227 59.2616 63.366 59.6259L65.3739 61.8429C65.4313 61.9064 65.4745 61.9816 65.5003 62.0632C65.5261 62.1449 65.534 62.2311 65.5235 62.3161C65.5129 62.4011 65.4842 62.4828 65.4392 62.5557C65.3943 62.6286 65.3341 62.691 65.2629 62.7385Z" fill="#B3B3B3"/>
<path d="M46.6154 58.0215C46.6306 58.0882 46.6405 58.1561 46.6451 58.2244L51.96 61.2906L53.2518 60.5469L54.6291 62.3498L52.47 63.8886C52.2956 64.013 52.0855 64.0773 51.8714 64.0721C51.6573 64.0669 51.4506 63.9924 51.2825 63.8597L45.8019 59.536C45.5545 59.6276 45.2852 59.6417 45.0296 59.5764C44.7741 59.5112 44.5445 59.3696 44.3713 59.1707C44.1982 58.9718 44.0897 58.7248 44.0603 58.4627C44.031 58.2006 44.0821 57.9358 44.2069 57.7034C44.3317 57.4711 44.5243 57.2823 44.759 57.1621C44.9938 57.0418 45.2595 56.9959 45.521 57.0305C45.7825 57.065 46.0272 57.1783 46.2227 57.3553C46.4182 57.5323 46.5552 57.7647 46.6154 58.0215Z" fill="#FFB8B8"/>
<path d="M53.5048 63.5185L52.1693 60.821C52.1313 60.7443 52.1103 60.6603 52.1077 60.5747C52.1051 60.4891 52.121 60.4039 52.1543 60.325C52.1876 60.2461 52.2375 60.1753 52.3006 60.1174C52.3637 60.0595 52.4386 60.0159 52.5201 59.9896L55.3754 59.0666C55.7692 58.8744 56.2232 58.8462 56.6377 58.9882C57.0522 59.1302 57.3935 59.4308 57.5868 59.824C57.7801 60.2173 57.8095 60.6711 57.6686 61.0861C57.5278 61.501 57.2282 61.8431 56.8354 62.0375L54.3787 63.7437C54.3083 63.7925 54.2283 63.8256 54.144 63.8407C54.0597 63.8558 53.9731 63.8526 53.8902 63.8312C53.8072 63.8098 53.7299 63.7709 53.6634 63.7169C53.5969 63.6629 53.5428 63.5953 53.5048 63.5185Z" fill="#B3B3B3"/>
<path d="M60.8644 49.2881C60.9739 49.3041 61.0855 49.2835 61.182 49.2296C61.2786 49.1757 61.3547 49.0915 61.3985 48.99C61.4391 48.8871 61.4555 48.7764 61.4466 48.6662C61.4377 48.556 61.4037 48.4493 61.3471 48.3543C61.232 48.165 61.0714 48.0075 60.8799 47.8961C60.6594 47.7487 60.4044 47.661 60.1399 47.6415C60.0079 47.6328 59.8755 47.6527 59.7519 47.6996C59.6282 47.7466 59.516 47.8195 59.423 47.9136C59.3323 48.01 59.2724 48.1313 59.251 48.262C59.2295 48.3926 59.2476 48.5267 59.3028 48.647C59.4139 48.8613 59.6471 48.9814 59.8742 49.063C60.3249 49.2245 60.8049 49.2875 61.282 49.2479" fill="#2F2E41"/>
<path d="M61.8361 54.4988C61.305 54.5237 61.3965 53.3967 61.2302 52.8917C61.064 52.3866 60.8349 51.7842 60.312 51.6873C59.8836 51.608 59.4964 51.9213 59.1232 52.1462C58.458 52.547 57.5969 52.6949 56.8984 52.3553C56.1999 52.0158 55.7752 51.1084 56.1149 50.41C56.2183 50.218 56.3601 50.0493 56.5314 49.9144C56.7027 49.7794 56.8999 49.6811 57.1107 49.6254C57.5335 49.5168 57.974 49.4956 58.4052 49.5632C59.3671 49.6812 60.2915 50.0088 61.113 50.523C61.6799 50.8786 62.2193 51.3627 62.3881 52.0102C62.5568 52.6577 62.6256 54.4185 61.9658 54.53L61.8361 54.4988Z" fill="#2F2E41"/>
<path d="M60.4464 47.7206C60.0452 47.212 60.1964 46.4106 60.664 45.9623C61.1316 45.514 61.8269 45.3742 62.4722 45.4313C63.1116 45.4957 63.7227 45.727 64.2445 46.1022C64.7662 46.4773 65.1801 46.983 65.4447 47.5686C65.8525 48.5014 65.8491 49.5684 66.2179 50.5173C66.4145 51.0231 66.7125 51.4833 67.0937 51.8696C67.4748 52.2559 67.931 52.5601 68.4342 52.7634C68.9373 52.9667 69.4768 53.0649 70.0193 53.0519C70.5618 53.0389 71.096 52.9149 71.5888 52.6877C72.2307 52.3918 72.8419 51.8122 72.8053 51.1063C73.2111 52.671 72.4802 54.4608 71.095 55.2941C70.2837 55.7821 69.3229 55.9478 68.383 56.0618C67.7705 56.1361 67.1409 56.1914 66.5432 56.0383C65.7069 55.8242 65.0068 55.2069 64.5828 54.455C64.1588 53.703 63.992 52.8267 63.9856 51.9634C63.9805 51.2909 64.0686 50.6181 64.022 49.9472C63.9755 49.2763 63.7738 48.5824 63.2875 48.1179C62.8012 47.6534 61.9805 47.5005 61.4468 47.9096C61.2323 48.0741 61.0751 48.3142 60.8336 48.4355C60.5921 48.5568 60.2105 48.4624 60.1943 48.1927L60.4464 47.7206Z" fill="#2F2E41"/>
<path d="M48.8032 58.0431H23.7393C23.5101 58.0429 23.2905 57.9517 23.1284 57.7897C22.9664 57.6277 22.8753 57.408 22.875 57.1789V43.0624C22.8753 42.8333 22.9664 42.6136 23.1284 42.4516C23.2905 42.2895 23.5101 42.1984 23.7393 42.1981H48.8032C49.0323 42.1984 49.252 42.2895 49.414 42.4515C49.5761 42.6136 49.6672 42.8333 49.6675 43.0624V57.1789C49.6672 57.408 49.5761 57.6277 49.414 57.7897C49.252 57.9517 49.0323 58.0429 48.8032 58.0431ZM23.7393 42.3902C23.5611 42.3904 23.3902 42.4613 23.2642 42.5873C23.1381 42.7133 23.0673 42.8842 23.0671 43.0624V57.1789C23.0673 57.3571 23.1381 57.5279 23.2642 57.654C23.3902 57.78 23.5611 57.8509 23.7393 57.8511H48.8032C48.9814 57.8509 49.1523 57.78 49.2783 57.654C49.4043 57.5279 49.4752 57.3571 49.4754 57.1789V43.0624C49.4752 42.8842 49.4043 42.7133 49.2783 42.5873C49.1523 42.4613 48.9814 42.3904 48.8032 42.3902H23.7393Z" fill="#3F3D56"/>
<path d="M32.0019 52.1075C33.9813 52.1075 35.5859 50.5029 35.5859 48.5235C35.5859 46.5442 33.9813 44.9396 32.0019 44.9396C30.0226 44.9396 28.418 46.5442 28.418 48.5235C28.418 50.5029 30.0226 52.1075 32.0019 52.1075Z" fill="#E6E6E6"/>
<path d="M45.8127 54.8522L41.6056 47.5654C41.5793 47.5199 41.5415 47.482 41.496 47.4557C41.4504 47.4294 41.3988 47.4156 41.3462 47.4156C41.2936 47.4156 41.2419 47.4294 41.1964 47.4557C41.1508 47.482 41.113 47.5199 41.0867 47.5654L38.5193 52.0123L34.6918 45.3829C34.6581 45.3245 34.6096 45.276 34.5512 45.2423C34.4928 45.2085 34.4266 45.1908 34.3591 45.1908C34.2917 45.1908 34.2255 45.2085 34.1671 45.2423C34.1087 45.276 34.0602 45.3245 34.0265 45.3829L28.6325 54.7254C28.5988 54.7838 28.5811 54.8501 28.5811 54.9175C28.5811 54.9849 28.5988 55.0512 28.6325 55.1096C28.6662 55.1679 28.7147 55.2164 28.7731 55.2502C28.8315 55.2839 28.8977 55.3016 28.9652 55.3016H45.5532C45.6058 55.3016 45.6575 55.2878 45.703 55.2615C45.7486 55.2352 45.7864 55.1974 45.8127 55.1518C45.839 55.1063 45.8528 55.0546 45.8528 55.002C45.8528 54.9494 45.839 54.8978 45.8127 54.8522Z" fill="#473534"/>
<path d="M26.2362 43.9266H24.6997V45.4631H26.2362V43.9266Z" fill="#3F3D56"/>
<path d="M58.5596 37.2573H38.9756C38.7966 37.2571 38.6249 37.1859 38.4983 37.0593C38.3717 36.9327 38.3005 36.761 38.3003 36.582V25.5519C38.3005 25.3729 38.3717 25.2012 38.4983 25.0746C38.6249 24.948 38.7966 24.8768 38.9756 24.8766H58.5596C58.7387 24.8768 58.9103 24.948 59.0369 25.0746C59.1635 25.2012 59.2347 25.3729 59.2349 25.5519V36.582C59.2347 36.761 59.1635 36.9327 59.0369 37.0593C58.9103 37.1859 58.7387 37.2571 58.5596 37.2573ZM38.9756 25.0267C38.8364 25.0268 38.7028 25.0822 38.6044 25.1807C38.5059 25.2791 38.4505 25.4126 38.4504 25.5519V36.582C38.4505 36.7212 38.5059 36.8547 38.6044 36.9532C38.7028 37.0517 38.8364 37.1071 38.9756 37.1072H58.5596C58.6989 37.1071 58.8324 37.0517 58.9308 36.9532C59.0293 36.8547 59.0847 36.7212 59.0849 36.582V25.5519C59.0847 25.4126 59.0293 25.2791 58.9308 25.1807C58.8324 25.0822 58.6989 25.0268 58.5596 25.0267H38.9756Z" fill="#CCCCCC"/>
<path d="M45.4317 32.6194C46.9783 32.6194 48.2321 31.3657 48.2321 29.8191C48.2321 28.2725 46.9783 27.0187 45.4317 27.0187C43.8851 27.0187 42.6313 28.2725 42.6313 29.8191C42.6313 31.3657 43.8851 32.6194 45.4317 32.6194Z" fill="#F2F2F2"/>
<path d="M56.2225 34.764L52.9352 29.0704C52.9147 29.0348 52.8851 29.0052 52.8495 28.9847C52.814 28.9642 52.7736 28.9533 52.7325 28.9533C52.6914 28.9533 52.651 28.9642 52.6154 28.9847C52.5799 29.0052 52.5503 29.0348 52.5298 29.0704L50.5237 32.545L47.533 27.365C47.5067 27.3194 47.4688 27.2815 47.4231 27.2552C47.3775 27.2288 47.3258 27.215 47.2731 27.215C47.2204 27.215 47.1686 27.2288 47.123 27.2552C47.0774 27.2815 47.0395 27.3194 47.0131 27.365L42.7985 34.665C42.7722 34.7106 42.7583 34.7624 42.7583 34.815C42.7583 34.8677 42.7722 34.9195 42.7985 34.9651C42.8249 35.0107 42.8627 35.0486 42.9084 35.075C42.954 35.1013 43.0058 35.1152 43.0584 35.1152H56.0197C56.0608 35.1152 56.1012 35.1044 56.1368 35.0838C56.1724 35.0633 56.2019 35.0337 56.2225 34.9981C56.243 34.9625 56.2538 34.9222 56.2538 34.8811C56.2538 34.84 56.243 34.7996 56.2225 34.764Z" fill="#E6E6E6"/>
<path d="M40.9261 26.2272H39.7256V27.4277H40.9261V26.2272Z" fill="#CCCCCC"/>
</g>
<path d="M36.5373 119.293C36.5373 118.205 36.788 117.229 37.2893 116.365C37.8013 115.501 38.4893 114.829 39.3533 114.349C40.228 113.858 41.1826 113.613 42.2173 113.613C43.4013 113.613 44.452 113.906 45.3693 114.493C46.2973 115.069 46.9693 115.89 47.3853 116.957H45.1933C44.9053 116.37 44.5053 115.933 43.9933 115.645C43.4813 115.357 42.8893 115.213 42.2173 115.213C41.4813 115.213 40.8253 115.378 40.2493 115.709C39.6733 116.039 39.22 116.514 38.8893 117.133C38.5693 117.751 38.4093 118.471 38.4093 119.293C38.4093 120.114 38.5693 120.834 38.8893 121.453C39.22 122.071 39.6733 122.551 40.2493 122.893C40.8253 123.223 41.4813 123.389 42.2173 123.389C42.8893 123.389 43.4813 123.245 43.9933 122.957C44.5053 122.669 44.9053 122.231 45.1933 121.645H47.3853C46.9693 122.711 46.2973 123.533 45.3693 124.109C44.452 124.685 43.4013 124.973 42.2173 124.973C41.172 124.973 40.2173 124.733 39.3533 124.253C38.4893 123.762 37.8013 123.085 37.2893 122.221C36.788 121.357 36.5373 120.381 36.5373 119.293ZM57.5043 116.061V124.877H55.6803V123.837C55.3923 124.199 55.0136 124.487 54.5443 124.701C54.0856 124.903 53.595 125.005 53.0723 125.005C52.379 125.005 51.755 124.861 51.2003 124.573C50.6563 124.285 50.2243 123.858 49.9043 123.293C49.595 122.727 49.4403 122.045 49.4403 121.245V116.061H51.2483V120.973C51.2483 121.762 51.4456 122.37 51.8403 122.797C52.235 123.213 52.7736 123.421 53.4563 123.421C54.139 123.421 54.6776 123.213 55.0723 122.797C55.4776 122.37 55.6803 121.762 55.6803 120.973V116.061H57.5043ZM63.1109 125.021C62.4176 125.021 61.7936 124.898 61.2389 124.653C60.6949 124.397 60.2629 124.055 59.9429 123.629C59.6229 123.191 59.4523 122.706 59.4309 122.173H61.3189C61.3509 122.546 61.5269 122.861 61.8469 123.117C62.1776 123.362 62.5883 123.485 63.0789 123.485C63.5909 123.485 63.9856 123.389 64.2629 123.197C64.5509 122.994 64.6949 122.738 64.6949 122.429C64.6949 122.098 64.5349 121.853 64.2149 121.693C63.9056 121.533 63.4096 121.357 62.7269 121.165C62.0656 120.983 61.5269 120.807 61.1109 120.637C60.6949 120.466 60.3323 120.205 60.0229 119.853C59.7243 119.501 59.5749 119.037 59.5749 118.461C59.5749 117.991 59.7136 117.565 59.9909 117.181C60.2683 116.786 60.6629 116.477 61.1749 116.253C61.6976 116.029 62.2949 115.917 62.9669 115.917C63.9696 115.917 64.7749 116.173 65.3829 116.685C66.0016 117.186 66.3323 117.874 66.3749 118.749H64.5509C64.5189 118.354 64.3589 118.039 64.0709 117.805C63.7829 117.57 63.3936 117.453 62.9029 117.453C62.4229 117.453 62.0549 117.543 61.7989 117.725C61.5429 117.906 61.4149 118.146 61.4149 118.445C61.4149 118.679 61.5003 118.877 61.6709 119.037C61.8416 119.197 62.0496 119.325 62.2949 119.421C62.5403 119.506 62.9029 119.618 63.3829 119.757C64.0229 119.927 64.5456 120.103 64.9509 120.285C65.3669 120.455 65.7243 120.711 66.0229 121.053C66.3216 121.394 66.4763 121.847 66.4869 122.413C66.4869 122.914 66.3483 123.362 66.0709 123.757C65.7936 124.151 65.3989 124.461 64.8869 124.685C64.3856 124.909 63.7936 125.021 63.1109 125.021ZM70.5858 117.549V122.429C70.5858 122.759 70.6605 122.999 70.8098 123.149C70.9698 123.287 71.2365 123.357 71.6098 123.357H72.7298V124.877H71.2898C70.4685 124.877 69.8391 124.685 69.4018 124.301C68.9645 123.917 68.7458 123.293 68.7458 122.429V117.549H67.7058V116.061H68.7458V113.869H70.5858V116.061H72.7298V117.549H70.5858ZM78.2349 125.021C77.4029 125.021 76.6509 124.834 75.9789 124.461C75.3069 124.077 74.7789 123.543 74.3949 122.861C74.0109 122.167 73.8189 121.367 73.8189 120.461C73.8189 119.565 74.0163 118.77 74.4109 118.077C74.8056 117.383 75.3443 116.85 76.0269 116.477C76.7096 116.103 77.4723 115.917 78.3149 115.917C79.1576 115.917 79.9203 116.103 80.6029 116.477C81.2856 116.85 81.8243 117.383 82.2189 118.077C82.6136 118.77 82.8109 119.565 82.8109 120.461C82.8109 121.357 82.6083 122.151 82.2029 122.845C81.7976 123.538 81.2429 124.077 80.5389 124.461C79.8456 124.834 79.0776 125.021 78.2349 125.021ZM78.2349 123.437C78.7043 123.437 79.1416 123.325 79.5469 123.101C79.9629 122.877 80.2989 122.541 80.5549 122.093C80.8109 121.645 80.9389 121.101 80.9389 120.461C80.9389 119.821 80.8163 119.282 80.5709 118.845C80.3256 118.397 80.0003 118.061 79.5949 117.837C79.1896 117.613 78.7523 117.501 78.2829 117.501C77.8136 117.501 77.3763 117.613 76.9709 117.837C76.5763 118.061 76.2616 118.397 76.0269 118.845C75.7923 119.282 75.6749 119.821 75.6749 120.461C75.6749 121.41 75.9149 122.146 76.3949 122.669C76.8856 123.181 77.4989 123.437 78.2349 123.437ZM95.2861 115.917C95.9794 115.917 96.5981 116.061 97.1421 116.349C97.6967 116.637 98.1287 117.063 98.4381 117.629C98.7581 118.194 98.9181 118.877 98.9181 119.677V124.877H97.1101V119.949C97.1101 119.159 96.9127 118.557 96.5181 118.141C96.1234 117.714 95.5847 117.501 94.9021 117.501C94.2194 117.501 93.6754 117.714 93.2701 118.141C92.8754 118.557 92.6781 119.159 92.6781 119.949V124.877H90.8701V119.949C90.8701 119.159 90.6727 118.557 90.2781 118.141C89.8834 117.714 89.3447 117.501 88.6621 117.501C87.9794 117.501 87.4354 117.714 87.0301 118.141C86.6354 118.557 86.4381 119.159 86.4381 119.949V124.877H84.6141V116.061H86.4381V117.069C86.7367 116.706 87.1154 116.423 87.5741 116.221C88.0327 116.018 88.5234 115.917 89.0461 115.917C89.7501 115.917 90.3794 116.066 90.9341 116.365C91.4887 116.663 91.9154 117.095 92.2141 117.661C92.4807 117.127 92.8967 116.706 93.4621 116.397C94.0274 116.077 94.6354 115.917 95.2861 115.917ZM109.319 120.253C109.319 120.583 109.298 120.882 109.255 121.149H102.519C102.572 121.853 102.834 122.418 103.303 122.845C103.772 123.271 104.348 123.485 105.031 123.485C106.012 123.485 106.706 123.074 107.111 122.253H109.079C108.812 123.063 108.327 123.73 107.623 124.253C106.93 124.765 106.066 125.021 105.031 125.021C104.188 125.021 103.431 124.834 102.759 124.461C102.098 124.077 101.575 123.543 101.191 122.861C100.818 122.167 100.631 121.367 100.631 120.461C100.631 119.554 100.812 118.759 101.175 118.077C101.548 117.383 102.066 116.85 102.727 116.477C103.399 116.103 104.167 115.917 105.031 115.917C105.863 115.917 106.604 116.098 107.255 116.461C107.906 116.823 108.412 117.335 108.775 117.997C109.138 118.647 109.319 119.399 109.319 120.253ZM107.415 119.677C107.404 119.005 107.164 118.466 106.695 118.061C106.226 117.655 105.644 117.453 104.951 117.453C104.322 117.453 103.783 117.655 103.335 118.061C102.887 118.455 102.62 118.994 102.535 119.677H107.415ZM112.938 117.341C113.205 116.893 113.557 116.546 113.994 116.301C114.442 116.045 114.97 115.917 115.578 115.917V117.805H115.114C114.399 117.805 113.855 117.986 113.482 118.349C113.119 118.711 112.938 119.341 112.938 120.237V124.877H111.114V116.061H112.938V117.341Z" fill="black"/>
</g>
<defs>
<filter id="filter0_d_188_2092" x="0" y="0.876587" width="156" height="158" filterUnits="userSpaceOnUse" color-interpolation-filters="sRGB">
<feFlood flood-opacity="0" result="BackgroundImageFix"/>
<feColorMatrix in="SourceAlpha" type="matrix" values="0 0 0 0 0 0 0 0 0 0 0 0 0 0 0 0 0 0 127 0" result="hardAlpha"/>
<feOffset dx="2" dy="2"/>
<feGaussianBlur stdDeviation="1"/>
<feComposite in2="hardAlpha" operator="out"/>
<feColorMatrix type="matrix" values="0 0 0 0 0 0 0 0 0 0 0 0 0 0 0 0 0 0 0.25 0"/>
<feBlend mode="normal" in2="BackgroundImageFix" result="effect1_dropShadow_188_2092"/>
<feBlend mode="normal" in="SourceGraphic" in2="effect1_dropShadow_188_2092" result="shape"/>
</filter>
<clipPath id="clip0_188_2092">
<rect width="106.25" height="72" fill="white" transform="translate(22.875 24.8766)"/>
</clipPath>
</defs>
</svg>
