<svg width="64" height="68" viewBox="0 0 64 68" fill="none" xmlns="http://www.w3.org/2000/svg">
<path d="M46.4256 0.123352H17.5744C7.86833 0.123352 0 8.45312 0 18.7284V49.2716C0 59.5469 7.86833 67.8766 17.5744 67.8766H46.4256C56.1317 67.8766 64 59.5469 64 49.2716V18.7284C64 8.45312 56.1317 0.123352 46.4256 0.123352Z" fill="url(#paint0_linear_188_213)"/>
<path d="M45.9088 17.2488C51.2409 23.8334 50.7588 33.5316 44.8307 38.9116C38.9026 44.2916 29.7751 43.315 24.443 36.7319C19.111 30.1473 19.593 20.4492 25.5211 15.0692C31.4492 9.68914 40.5767 10.6657 45.9088 17.2488ZM28.5247 33.0506C31.7687 37.057 37.323 37.6511 40.9296 34.3772C44.5362 31.1033 44.8293 25.2027 41.5853 21.1963C38.3414 17.19 32.787 16.5958 29.1805 19.8697C25.5739 23.1436 25.2807 29.0443 28.5247 33.0506Z" fill="white"/>
<path d="M25.9947 14.672L4.52979 34.1554L7.07446 37.2974L28.5394 17.8139L25.9947 14.672Z" fill="white"/>
<path d="M21.5374 27.569L8.97607 38.9707L11.5208 42.1126L24.082 30.7109L21.5374 27.569Z" fill="white"/>
<path d="M27.4635 34.175L24.4956 36.8689L42.8998 59.5926L45.8676 56.8987L27.4635 34.175Z" fill="white"/>
<defs>
<linearGradient id="paint0_linear_188_213" x1="0" y1="34.0007" x2="64" y2="34.0007" gradientUnits="userSpaceOnUse">
<stop stop-color="#754634"/>
<stop offset="1" stop-color="#955E37"/>
</linearGradient>
</defs>
</svg>
