<svg width="117" height="124" viewBox="0 0 117 124" fill="none" xmlns="http://www.w3.org/2000/svg">
<g id="Group">
<path id="Vector" d="M107.102 15.0559C120.819 31.9949 119.579 56.9437 104.329 70.784C89.0785 84.6243 65.5975 82.112 51.8806 65.1768C38.1637 48.2378 39.4038 23.2889 54.654 9.44862C69.9041 -4.39167 93.3851 -1.87938 107.102 15.0559ZM62.3809 55.7065C70.7261 66.013 85.0149 67.5415 94.2929 59.1193C103.571 50.6971 104.325 35.5174 95.9798 25.211C87.6346 14.9045 73.3458 13.376 64.0678 21.7982C54.7898 30.2204 54.0357 45.4001 62.3809 55.7065Z" fill="white"/>
<path id="Vector_2" d="M55.8729 8.42683L0.653687 58.5487L7.19996 66.6314L62.4192 16.5095L55.8729 8.42683Z" fill="white"/>
<path id="Vector_3" d="M44.4065 41.6048L12.0922 70.9362L18.6384 79.0189L50.9528 49.6875L44.4065 41.6048Z" fill="white"/>
<path id="Vector_4" d="M59.6513 58.599L52.0164 65.5292L99.3617 123.987L106.997 117.057L59.6513 58.599Z" fill="white"/>
</g>
</svg>
