<svg width="156" height="159" viewBox="0 0 156 159" fill="none" xmlns="http://www.w3.org/2000/svg">
<g filter="url(#filter0_d_188_1851)">
<path d="M0 16.8765C0 8.03991 7.16344 0.876465 16 0.876465H136C144.837 0.876465 152 8.03991 152 16.8765V138.876C152 147.713 144.837 154.876 136 154.876H16C7.16345 154.876 0 147.713 0 138.876V16.8765Z" fill="white" shape-rendering="crispEdges"/>
<g clip-path="url(#clip0_188_1851)">
<path opacity="0.2" d="M51.8143 66.8906C51.8143 66.8906 52.0236 71.0751 43.0967 76.2359C43.0967 76.2359 43.0861 76.2587 108.444 76.2359C108.444 76.2359 100.982 70.9356 100.494 65.0076" fill="black"/>
<path d="M100.217 63.8992V28.7368C100.638 28.6278 101.011 28.3822 101.277 28.0384C101.543 27.6947 101.687 27.2723 101.687 26.8376C101.687 26.5801 101.637 26.3251 101.538 26.0871C101.44 25.8492 101.295 25.633 101.113 25.4509C100.931 25.2688 100.715 25.1243 100.477 25.0257C100.239 24.9272 99.9838 24.8765 99.7263 24.8765H52.6582C52.4007 24.8765 52.1457 24.9272 51.9077 25.0257C51.6698 25.1243 51.4536 25.2688 51.2715 25.4509C51.0894 25.633 50.9449 25.8492 50.8464 26.0871C50.7478 26.3251 50.6971 26.5801 50.6971 26.8376C50.6971 27.3578 50.9037 27.8566 51.2715 28.2244C51.6393 28.5922 52.1381 28.7988 52.6582 28.7988H52.6587L51.569 63.9303L42.8203 75.1275C42.8203 75.1275 42.7468 75.1278 108.168 75.1275C108.168 75.1275 108.122 75.2409 100.217 63.8992Z" fill="#E6E6E6"/>
<path opacity="0.2" d="M77.9621 71.1772C85.9207 71.1772 92.3724 70.6809 92.3724 70.0687C92.3724 69.4565 85.9207 68.9602 77.9621 68.9602C70.0035 68.9602 63.5518 69.4565 63.5518 70.0687C63.5518 70.6809 70.0035 71.1772 77.9621 71.1772Z" fill="black"/>
<path opacity="0.2" d="M52.6582 28.7989L100.217 30.184L100.238 28.7136L52.6582 28.7989Z" fill="black"/>
<path d="M87.0206 41.1304V45.4535C87.0205 45.4934 87.0046 45.5317 86.9764 45.56C86.9481 45.5882 86.9099 45.6041 86.8699 45.6042H86.7626V68.1249C86.7626 68.7481 86.515 69.3457 86.0744 69.7864C85.6337 70.2271 85.036 70.4747 84.4128 70.4747H70.341C70.0324 70.4747 69.7269 70.4139 69.4419 70.2957C69.1568 70.1776 68.8978 70.0045 68.6797 69.7863C68.4616 69.5681 68.2885 69.3091 68.1705 69.024C68.0525 68.739 67.9918 68.4334 67.9918 68.1249V46.3941H67.9141C67.886 46.3941 67.8589 46.383 67.8389 46.3631C67.8189 46.3433 67.8076 46.3163 67.8075 46.2881V43.8277C67.8075 43.8137 67.8103 43.7999 67.8156 43.7869C67.821 43.774 67.8288 43.7622 67.8387 43.7523C67.8486 43.7424 67.8604 43.7346 67.8733 43.7292C67.8863 43.7239 67.9001 43.7211 67.9141 43.7211H67.9918V42.7943H67.9135C67.8839 42.7942 67.8556 42.7824 67.8347 42.7614C67.8139 42.7404 67.8022 42.712 67.8022 42.6824V40.2556C67.8023 40.2262 67.8141 40.1979 67.8349 40.1771C67.8558 40.1562 67.884 40.1445 67.9135 40.1444H67.9918V38.8793H67.9122C67.8992 38.8793 67.8863 38.8768 67.8744 38.8718C67.8624 38.8669 67.8515 38.8596 67.8423 38.8504C67.8331 38.8413 67.8259 38.8304 67.8209 38.8184C67.816 38.8064 67.8134 38.7935 67.8134 38.7806V37.4563C67.8134 37.43 67.8237 37.4048 67.8422 37.3862C67.8607 37.3675 67.8859 37.357 67.9122 37.3569H67.9918V34.6753C67.9918 34.0523 68.2393 33.4548 68.6799 33.0142C69.1204 32.5737 69.7179 32.3262 70.341 32.3262H84.4128C85.0359 32.3262 85.6335 32.5736 86.0742 33.0142C86.5148 33.4547 86.7625 34.0522 86.7626 34.6753V40.9797H86.8699C86.9099 40.9798 86.9481 40.9957 86.9764 41.0239C87.0046 41.0522 87.0205 41.0904 87.0206 41.1304Z" fill="#3F3D56"/>
<path d="M78.055 33.531H75.7684C75.676 33.531 75.6011 33.6059 75.6011 33.6983V33.896C75.6011 33.9884 75.676 34.0633 75.7684 34.0633H78.055C78.1474 34.0633 78.2223 33.9884 78.2223 33.896V33.6983C78.2223 33.6059 78.1474 33.531 78.055 33.531Z" fill="#E6E8EC"/>
<path d="M78.9206 34.0992C79.0873 34.0992 79.2225 33.964 79.2225 33.7973C79.2225 33.6305 79.0873 33.4954 78.9206 33.4954C78.7538 33.4954 78.6187 33.6305 78.6187 33.7973C78.6187 33.964 78.7538 34.0992 78.9206 34.0992Z" fill="#E6E8EC"/>
<path d="M85.6375 35.14V68.3197C85.6373 68.715 85.4802 69.094 85.2006 69.3735C84.921 69.6529 84.5419 69.8099 84.1467 69.8099H70.6764C70.4806 69.8102 70.2866 69.7719 70.1056 69.6972C69.9246 69.6224 69.7602 69.5127 69.6217 69.3742C69.4832 69.2358 69.3734 69.0714 69.2985 68.8904C69.2237 68.7095 69.1853 68.5155 69.1855 68.3197V35.14C69.1855 34.9442 69.2241 34.7504 69.299 34.5695C69.3739 34.3886 69.4838 34.2243 69.6222 34.0858C69.7606 33.9474 69.925 33.8376 70.1059 33.7626C70.2867 33.6877 70.4806 33.6492 70.6764 33.6492H72.6925V33.9078C72.6925 34.2334 72.8218 34.5456 73.052 34.7759C73.2823 35.0061 73.5945 35.1354 73.9201 35.1354H80.7707C81.0963 35.1354 81.4085 35.0061 81.6387 34.7759C81.8689 34.5456 81.9983 34.2334 81.9983 33.9078V33.6492H84.1467C84.3425 33.6491 84.5363 33.6876 84.7173 33.7625C84.8982 33.8374 85.0625 33.9472 85.201 34.0857C85.3394 34.2241 85.4492 34.3885 85.5241 34.5694C85.599 34.7503 85.6376 34.9442 85.6375 35.14Z" fill="white"/>
<path d="M84.2845 55.4924H70.5938V57.2696H84.2845V55.4924Z" fill="#E6E6E6"/>
<path d="M84.2845 58.6519H70.5938V60.429H84.2845V58.6519Z" fill="#E6E6E6"/>
<path d="M84.2845 61.8113H70.5938V63.5884H84.2845V61.8113Z" fill="#E6E6E6"/>
<path d="M84.2572 42.7231H70.5664V51.8064H84.2572V42.7231Z" fill="#E6E6E6"/>
<path d="M51.8387 30.1006L44.8178 30.1442C44.8178 30.1442 33.2617 36.2929 41.3728 49.0265C41.3728 49.0265 44.687 48.2416 48.3501 50.9453C48.3501 50.9453 50.4869 30.5803 51.8387 30.1006Z" fill="#473534"/>
<path opacity="0.2" d="M49.7502 30.1641C48.4924 35.4183 47.0704 48.9698 47.0704 48.9698C43.7977 46.5542 40.8056 46.9231 40.2046 47.0292C40.5591 47.7311 40.949 48.4146 41.3727 49.0771C41.3727 49.0771 44.687 48.2921 48.35 50.9958C48.35 50.9958 50.4868 30.6308 51.8387 30.1511L49.7502 30.1641Z" fill="black"/>
<path d="M41.3291 36.6853L40.7186 39.6507L33.0462 38.2561L33.0435 38.2552L32.8691 34.7666H34.3518L41.3291 36.6853Z" fill="#3F3D56"/>
<path opacity="0.2" d="M34.228 34.7666L33.0462 38.2561L33.0435 38.2552L32.8691 34.7666H34.228Z" fill="black"/>
<path d="M41.0675 39.9995C41.5492 39.9995 41.9396 39.1014 41.9396 37.9935C41.9396 36.8857 41.5492 35.9875 41.0675 35.9875C40.5858 35.9875 40.1953 36.8857 40.1953 37.9935C40.1953 39.1014 40.5858 39.9995 41.0675 39.9995Z" fill="#3F3D56"/>
<path d="M36.5322 80.3857C36.4972 80.3857 36.4625 80.3788 36.4302 80.3654C36.3978 80.352 36.3685 80.3323 36.3437 80.3076C36.3189 80.2828 36.2993 80.2534 36.2859 80.2211C36.2725 80.1888 36.2656 80.1541 36.2656 80.1191V37.9936C36.2656 37.9229 36.2937 37.8551 36.3437 37.8051C36.3937 37.7551 36.4615 37.7271 36.5322 37.7271C36.6029 37.7271 36.6707 37.7551 36.7207 37.8051C36.7707 37.8551 36.7988 37.9229 36.7988 37.9936V80.1191C36.7988 80.1541 36.7919 80.1887 36.7785 80.2211C36.7651 80.2534 36.7455 80.2828 36.7207 80.3076C36.696 80.3323 36.6666 80.352 36.6342 80.3654C36.6019 80.3788 36.5672 80.3857 36.5322 80.3857Z" fill="#3F3D56"/>
<path d="M40.195 87.7989C40.1332 87.7988 40.0733 87.7773 40.0257 87.738C39.978 87.6987 39.9455 87.644 39.9336 87.5834L36.2706 68.8047C36.2587 68.744 36.2683 68.6812 36.2977 68.6268C36.3271 68.5725 36.3745 68.53 36.4317 68.5067C36.4889 68.4834 36.5525 68.4807 36.6115 68.4991C36.6705 68.5175 36.7213 68.5558 36.7551 68.6074L46.4361 83.3741C46.4749 83.4333 46.4886 83.5054 46.4742 83.5746C46.4598 83.6439 46.4185 83.7045 46.3594 83.7433C46.3002 83.7821 46.2281 83.7958 46.1589 83.7814C46.0897 83.767 46.029 83.7257 45.9902 83.6666L37.0538 70.0356L40.4569 87.4813C40.4636 87.5157 40.4635 87.551 40.4565 87.5853C40.4496 87.6197 40.4359 87.6523 40.4164 87.6813C40.3968 87.7103 40.3717 87.7353 40.3426 87.7546C40.3134 87.7739 40.2807 87.7873 40.2463 87.794C40.2294 87.7973 40.2122 87.7989 40.195 87.7989Z" fill="#3F3D56"/>
<path d="M26.4147 84.4846C26.3667 84.4846 26.3195 84.4715 26.2783 84.4469C26.2371 84.4222 26.2032 84.3869 26.1804 84.3446C26.1576 84.3024 26.1466 84.2547 26.1487 84.2067C26.1507 84.1587 26.1657 84.1121 26.192 84.0719L36.3091 68.6347C36.3479 68.5757 36.4086 68.5345 36.4777 68.5202C36.5468 68.5059 36.6189 68.5196 36.6779 68.5583C36.737 68.597 36.7783 68.6575 36.7927 68.7266C36.8072 68.7957 36.7936 68.8678 36.755 68.9269L26.6379 84.3641C26.6137 84.4012 26.5806 84.4316 26.5416 84.4527C26.5026 84.4737 26.459 84.4847 26.4147 84.4846Z" fill="#3F3D56"/>
<path d="M100.161 30.1006L107.182 30.1442C107.182 30.1442 118.738 36.2929 110.627 49.0265C110.627 49.0265 107.313 48.2416 103.65 50.9453C103.65 50.9453 101.513 30.5803 100.161 30.1006Z" fill="#473534"/>
<path opacity="0.2" d="M102.25 30.1641C103.507 35.4183 104.929 48.9698 104.929 48.9698C108.202 46.5542 111.194 46.9231 111.795 47.0292C111.441 47.7311 111.051 48.4146 110.627 49.0771C110.627 49.0771 107.313 48.2921 103.65 50.9958C103.65 50.9958 101.513 30.6308 100.161 30.1511L102.25 30.1641Z" fill="black"/>
<path d="M110.67 36.6853L111.281 39.6507L118.953 38.2561L118.956 38.2552L119.13 34.7666H117.648L110.67 36.6853Z" fill="#3F3D56"/>
<path opacity="0.2" d="M117.771 34.7666L118.953 38.2561L118.956 38.2552L119.13 34.7666H117.771Z" fill="black"/>
<path d="M110.932 39.9995C111.414 39.9995 111.804 39.1014 111.804 37.9935C111.804 36.8857 111.414 35.9875 110.932 35.9875C110.451 35.9875 110.06 36.8857 110.06 37.9935C110.06 39.1014 110.451 39.9995 110.932 39.9995Z" fill="#3F3D56"/>
<path d="M115.467 80.3857C115.432 80.3857 115.398 80.3788 115.365 80.3654C115.333 80.352 115.304 80.3323 115.279 80.3076C115.254 80.2828 115.234 80.2534 115.221 80.2211C115.208 80.1887 115.201 80.1541 115.201 80.1191V37.9936C115.201 37.9229 115.229 37.8551 115.279 37.8051C115.329 37.7551 115.397 37.7271 115.467 37.7271C115.538 37.7271 115.606 37.7551 115.656 37.8051C115.706 37.8551 115.734 37.9229 115.734 37.9936V80.1191C115.734 80.1541 115.727 80.1887 115.714 80.2211C115.7 80.2534 115.681 80.2828 115.656 80.3076C115.631 80.3323 115.602 80.352 115.569 80.3654C115.537 80.3788 115.502 80.3857 115.467 80.3857Z" fill="#3F3D56"/>
<path d="M111.805 87.7989C111.788 87.7989 111.77 87.7973 111.754 87.794C111.684 87.7805 111.623 87.7399 111.583 87.6813C111.544 87.6226 111.529 87.5507 111.543 87.4813L114.946 70.0355L106.01 83.6665C105.99 83.6958 105.966 83.721 105.937 83.7407C105.908 83.7604 105.875 83.7743 105.841 83.7814C105.807 83.7885 105.771 83.7888 105.737 83.7823C105.702 83.7757 105.67 83.7625 105.64 83.7433C105.611 83.7241 105.586 83.6993 105.566 83.6704C105.547 83.6414 105.533 83.6089 105.526 83.5746C105.518 83.5403 105.518 83.505 105.525 83.4706C105.531 83.4362 105.544 83.4034 105.564 83.3741L115.245 68.6074C115.279 68.5558 115.329 68.5175 115.388 68.4991C115.447 68.4807 115.511 68.4834 115.568 68.5067C115.625 68.53 115.673 68.5725 115.702 68.6268C115.732 68.6811 115.741 68.744 115.729 68.8047L112.066 87.5834C112.054 87.644 112.022 87.6987 111.974 87.738C111.927 87.7773 111.867 87.7988 111.805 87.7989Z" fill="#3F3D56"/>
<path d="M125.585 84.4846C125.54 84.4847 125.497 84.4737 125.458 84.4527C125.419 84.4316 125.386 84.4012 125.362 84.3641L115.245 68.9269C115.206 68.8678 115.192 68.7957 115.207 68.7266C115.221 68.6575 115.263 68.597 115.322 68.5583C115.381 68.5196 115.453 68.5059 115.522 68.5202C115.591 68.5345 115.652 68.5757 115.69 68.6347L125.808 84.0719C125.834 84.1121 125.849 84.1587 125.851 84.2067C125.853 84.2547 125.842 84.3024 125.819 84.3447C125.796 84.3869 125.762 84.4223 125.721 84.4469C125.68 84.4715 125.633 84.4846 125.585 84.4846Z" fill="#3F3D56"/>
<path d="M69.9236 61.8947L71.8336 61.3629C71.8336 61.3629 72.5818 61.2135 72.1246 59.7523C71.6675 58.2912 70.7608 58.7001 70.7608 58.7001L69.0664 59.1924L68.3975 59.399L69.3387 60.7195L69.4176 61.5996L69.9236 61.8947Z" fill="#3F3D56"/>
<path d="M66.2325 58.034L65.6333 60.4278L68.7038 63.4036L68.9678 63.4698L69.672 63.272L70.2713 60.8783L69.6643 60.2399L70.2848 60.0774L68.9606 58.792L68.2697 58.937L67.7155 58.3867L68.0895 58.2372L68.1248 58.0964L67.6717 57.7397L66.2325 58.034Z" fill="#3F3D56"/>
<path d="M69.1095 61.4103L68.7129 62.9944L66.8828 61.2643L67.3411 59.6582L69.1095 61.4103Z" fill="#473534"/>
<path d="M66.2325 58.034L66.1484 58.3697L69.2017 61.34L69.4657 61.4061L70.148 61.2215L70.1855 61.2207L70.2713 60.8783L69.6642 60.2399L70.2847 60.0774L68.9606 58.792L68.2696 58.937L67.7154 58.3867L68.0894 58.2372L68.1247 58.0964L67.6716 57.7397L66.2325 58.034Z" stroke="#3F3D56" stroke-miterlimit="10"/>
<path d="M67.8897 58.0653C67.9128 57.973 67.8212 57.8705 67.6851 57.8364C67.549 57.8023 67.42 57.8496 67.3968 57.9419C67.3737 58.0343 67.4653 58.1368 67.6014 58.1708C67.7375 58.2049 67.8665 58.1577 67.8897 58.0653Z" fill="#473534"/>
<path d="M69.8291 60.6273C69.8522 60.535 69.7607 60.4325 69.6246 60.3984C69.4885 60.3644 69.3594 60.4116 69.3363 60.5039C69.3132 60.5963 69.4048 60.6988 69.5408 60.7328C69.6769 60.7669 69.806 60.7197 69.8291 60.6273Z" fill="#473534"/>
<path d="M71.1924 64.8765L70.7759 63.4603C70.7759 63.4603 71.8589 60.8778 70.6093 60.6279C69.3597 60.3779 69.2764 63.0438 69.2764 63.0438L69.7762 64.6266L71.1924 64.8765Z" fill="#FFB6B6"/>
<path d="M63.4591 62.1228C65.2867 62.1228 66.7683 60.6412 66.7683 58.8136C66.7683 56.986 65.2867 55.5044 63.4591 55.5044C61.6315 55.5044 60.1499 56.986 60.1499 58.8136C60.1499 60.6412 61.6315 62.1228 63.4591 62.1228Z" fill="#FFB6B6"/>
<path d="M64.5295 61.1496C64.5295 61.1496 64.7242 63.5829 65.2108 63.7775C65.6975 63.9722 59.9551 65.3348 59.9551 65.3348L61.415 63.6802C61.415 63.6802 61.707 61.1496 61.0257 60.5657L64.5295 61.1496Z" fill="#FFB6B6"/>
<path d="M69.1934 64.1268L70.5263 63.9602C70.5263 63.9602 72.1091 64.7933 72.1091 65.8763C72.1091 66.9593 73.0255 68.7087 73.0255 68.7087C73.0255 68.7087 73.6919 71.0413 72.1924 71.2079C70.6929 71.3745 69.36 68.7087 69.36 68.7087L69.1934 64.1268Z" fill="#473534"/>
<path d="M69.943 77.3725C69.943 77.3725 72.8588 74.6234 73.6918 74.79C74.5249 74.9566 76.191 75.2065 76.191 76.4561C76.191 77.7057 73.4419 80.6215 73.4419 80.6215C73.4419 80.6215 71.3592 85.2034 69.3598 85.37C68.0446 85.4893 66.7373 85.684 65.4444 85.9531C65.4444 85.9531 66.3608 89.2854 65.861 90.2018C65.3611 91.1182 63.445 92.2012 63.2784 92.1179C63.1118 92.0346 60.7792 89.8686 59.7795 86.7862C58.7799 83.7038 58.1134 81.3713 59.0298 81.2046C59.9462 81.038 69.943 77.3725 69.943 77.3725Z" fill="#2F2E41"/>
<path d="M75.9408 76.2062C75.9408 76.2062 76.5239 76.1229 76.4406 77.5392C76.3573 78.9554 76.1074 84.0371 75.6909 85.0368C75.2743 86.0365 75.191 87.2028 75.3576 87.6193C75.5243 88.0358 75.8575 88.7023 75.2743 88.7856C74.6912 88.8689 72.2753 88.5357 72.0254 88.4524C71.7754 88.3691 71.5255 86.9529 71.6921 86.9529C71.8587 86.9529 72.2753 86.8695 72.1087 86.2864C71.942 85.7033 71.8587 85.7033 72.1087 85.5366C72.3586 85.37 73.025 85.1201 72.8584 84.9535C72.6918 84.7869 72.5252 80.8714 72.5252 80.8714L75.9408 76.2062Z" fill="#2F2E41"/>
<path d="M75.108 88.5357C75.108 88.5357 76.5242 88.1191 76.6909 89.0355C76.6909 89.0355 76.9408 90.4517 75.8578 90.9516C75.1589 91.2819 74.4899 91.6721 73.8584 92.1179C73.8584 92.1179 72.109 92.7843 72.0257 91.9513C71.9424 91.1182 72.3589 88.1191 72.3589 88.1191L75.108 88.5357Z" fill="#2F2E41"/>
<path d="M65.694 89.5354L63.0282 87.3694C63.0282 87.3694 63.528 90.0352 62.8616 90.5351L62.5571 91.4251L63.4096 92.1224C63.4096 92.1224 66.0272 91.7014 65.694 89.5354Z" fill="#2F2E41"/>
<path d="M61.9456 85.87C61.9456 85.87 63.6951 86.3699 63.4452 88.1193C63.1952 89.8688 62.8748 91.7694 62.8748 91.7694C62.8748 91.7694 62.7787 96.45 61.5291 96.7833C60.2795 97.1165 59.9463 96.45 59.9463 96.45C59.9463 96.45 58.5258 92.7925 58.9466 91.7015C59.4559 90.3811 60.1898 88.8984 59.9463 88.4526C59.7066 88.0139 60.1129 85.6201 61.9456 85.87Z" fill="#2F2E41"/>
<path d="M60.9459 62.8773C60.9459 62.8773 61.6124 62.9606 62.6954 63.1272C63.7784 63.2938 64.5281 62.4608 65.1113 62.6274C65.6944 62.794 70.5262 63.9603 70.5262 63.9603L69.7765 69.7085C69.7765 69.7085 70.6929 76.373 70.5262 77.5393C70.3596 78.7056 72.5256 78.539 71.276 79.9552C70.0264 81.3715 67.8604 82.6211 63.4451 82.2045C59.0299 81.788 58.4467 81.8713 58.4467 81.2049C58.4467 80.5384 59.4464 74.8735 59.1132 74.3737C58.7799 73.8738 58.1135 73.2907 58.4467 72.7075C58.7799 72.1244 59.1132 71.7912 58.6133 71.2913C58.1135 70.7915 57.8636 70.2916 57.8636 70.0417C57.8636 69.7918 56.6973 65.7097 56.6973 65.7097C56.6973 65.7097 57.1971 63.7104 57.7803 63.6271C58.3634 63.5438 58.8632 63.1272 59.2798 63.1272C59.6963 63.1272 59.9462 63.2105 60.1962 63.1272L60.9459 62.8773Z" fill="#473534"/>
<path d="M68.9345 57.6529C68.8917 57.4604 68.6819 56.8166 68.2553 56.6595C67.9433 56.5446 67.3626 56.7874 67.0734 56.7471L67.0361 56.6412C67.0113 56.4326 66.9594 56.2282 66.8815 56.0331C66.7287 55.6431 66.4987 55.2879 66.2053 54.9888C65.9119 54.6898 65.5612 54.453 65.1741 54.2928C64.2216 53.8946 62.7149 53.5653 61.4077 54.6088C59.6121 56.042 59.9285 58.1865 60.059 58.7816C60.0808 58.8808 60.0994 58.9807 60.1149 59.0812C60.1954 59.6054 60.4273 59.6679 60.4273 59.6679C60.4273 59.6679 60.4223 59.6528 60.4141 59.6252L62.0359 59.7831L62.9127 59.6335C62.9274 59.7192 62.9331 59.7699 62.9331 59.7699C65.4917 59.3788 66.9806 58.0311 67.2224 57.7974C67.435 57.9383 67.8309 58.1684 68.2148 58.2189C68.777 58.2928 68.9774 57.8455 68.9345 57.6529ZM62.342 58.9414L60.2816 58.8664C60.2524 58.304 60.3977 57.6464 61.2258 57.6129C62.0243 57.5805 62.4602 58.2297 62.6911 58.8241L62.342 58.9414Z" fill="#2F2E41"/>
<path d="M62.8803 54.1327C63.0787 54.0988 63.2292 54.0105 63.2164 53.9354C63.2036 53.8603 63.0323 53.8269 62.8339 53.8608C62.6355 53.8947 62.485 53.983 62.4978 54.0581C62.5106 54.1332 62.6819 54.1666 62.8803 54.1327Z" fill="#2F2E41"/>
</g>
<path d="M29.3041 117.068C29.3041 117.634 29.1708 118.167 28.9041 118.668C28.6375 119.17 28.2108 119.58 27.6241 119.9C27.0375 120.21 26.2855 120.364 25.3681 120.364H23.3521V124.876H21.5281V113.756H25.3681C26.2215 113.756 26.9415 113.906 27.5281 114.204C28.1255 114.492 28.5681 114.887 28.8561 115.388C29.1548 115.89 29.3041 116.45 29.3041 117.068ZM25.3681 118.876C26.0615 118.876 26.5788 118.722 26.9201 118.412C27.2615 118.092 27.4321 117.644 27.4321 117.068C27.4321 115.852 26.7441 115.244 25.3681 115.244H23.3521V118.876H25.3681ZM35.6038 115.916C36.2758 115.916 36.8731 116.06 37.3958 116.348C37.9291 116.636 38.3451 117.063 38.6438 117.628C38.9531 118.194 39.1078 118.876 39.1078 119.676V124.876H37.2998V119.948C37.2998 119.159 37.1024 118.556 36.7078 118.14C36.3131 117.714 35.7744 117.5 35.0918 117.5C34.4091 117.5 33.8651 117.714 33.4598 118.14C33.0651 118.556 32.8678 119.159 32.8678 119.948V124.876H31.0438V113.036H32.8678V117.084C33.1771 116.711 33.5664 116.423 34.0358 116.22C34.5158 116.018 35.0384 115.916 35.6038 115.916ZM45.2584 125.02C44.4264 125.02 43.6744 124.834 43.0024 124.46C42.3304 124.076 41.8024 123.543 41.4184 122.86C41.0344 122.167 40.8424 121.367 40.8424 120.46C40.8424 119.564 41.0397 118.77 41.4344 118.076C41.829 117.383 42.3677 116.85 43.0504 116.476C43.733 116.103 44.4957 115.916 45.3384 115.916C46.181 115.916 46.9437 116.103 47.6264 116.476C48.309 116.85 48.8477 117.383 49.2424 118.076C49.637 118.77 49.8344 119.564 49.8344 120.46C49.8344 121.356 49.6317 122.151 49.2264 122.844C48.821 123.538 48.2664 124.076 47.5624 124.46C46.869 124.834 46.101 125.02 45.2584 125.02ZM45.2584 123.436C45.7277 123.436 46.165 123.324 46.5704 123.1C46.9864 122.876 47.3224 122.54 47.5784 122.092C47.8344 121.644 47.9624 121.1 47.9624 120.46C47.9624 119.82 47.8397 119.282 47.5944 118.844C47.349 118.396 47.0237 118.06 46.6184 117.836C46.213 117.612 45.7757 117.5 45.3064 117.5C44.837 117.5 44.3997 117.612 43.9944 117.836C43.5997 118.06 43.285 118.396 43.0504 118.844C42.8157 119.282 42.6984 119.82 42.6984 120.46C42.6984 121.41 42.9384 122.146 43.4184 122.668C43.909 123.18 44.5224 123.436 45.2584 123.436ZM53.7655 117.548V122.428C53.7655 122.759 53.8402 122.999 53.9895 123.148C54.1495 123.287 54.4162 123.356 54.7895 123.356H55.9095V124.876H54.4695C53.6482 124.876 53.0188 124.684 52.5815 124.3C52.1442 123.916 51.9255 123.292 51.9255 122.428V117.548H50.8855V116.06H51.9255V113.868H53.7655V116.06H55.9095V117.548H53.7655ZM61.4146 125.02C60.5826 125.02 59.8306 124.834 59.1586 124.46C58.4866 124.076 57.9586 123.543 57.5746 122.86C57.1906 122.167 56.9986 121.367 56.9986 120.46C56.9986 119.564 57.196 118.77 57.5906 118.076C57.9853 117.383 58.524 116.85 59.2066 116.476C59.8893 116.103 60.652 115.916 61.4946 115.916C62.3373 115.916 63.1 116.103 63.7826 116.476C64.4653 116.85 65.004 117.383 65.3986 118.076C65.7933 118.77 65.9906 119.564 65.9906 120.46C65.9906 121.356 65.788 122.151 65.3826 122.844C64.9773 123.538 64.4226 124.076 63.7186 124.46C63.0253 124.834 62.2573 125.02 61.4146 125.02ZM61.4146 123.436C61.884 123.436 62.3213 123.324 62.7266 123.1C63.1426 122.876 63.4786 122.54 63.7346 122.092C63.9906 121.644 64.1186 121.1 64.1186 120.46C64.1186 119.82 63.996 119.282 63.7506 118.844C63.5053 118.396 63.18 118.06 62.7746 117.836C62.3693 117.612 61.932 117.5 61.4626 117.5C60.9933 117.5 60.556 117.612 60.1506 117.836C59.756 118.06 59.4413 118.396 59.2066 118.844C58.972 119.282 58.8546 119.82 58.8546 120.46C58.8546 121.41 59.0946 122.146 59.5746 122.668C60.0653 123.18 60.6786 123.436 61.4146 123.436ZM71.3458 115.916C72.0284 115.916 72.6311 116.055 73.1538 116.332C73.6871 116.599 74.1031 116.935 74.4018 117.34V116.06H76.2418V125.02C76.2418 125.831 76.0711 126.551 75.7298 127.18C75.3884 127.82 74.8924 128.322 74.2418 128.684C73.6018 129.047 72.8338 129.228 71.9378 129.228C70.7431 129.228 69.7511 128.946 68.9618 128.38C68.1724 127.826 67.7244 127.068 67.6178 126.108H69.4258C69.5644 126.567 69.8578 126.935 70.3058 127.212C70.7644 127.5 71.3084 127.644 71.9378 127.644C72.6738 127.644 73.2658 127.42 73.7138 126.972C74.1724 126.524 74.4018 125.874 74.4018 125.02V123.548C74.0924 123.964 73.6711 124.316 73.1378 124.604C72.6151 124.882 72.0178 125.02 71.3458 125.02C70.5778 125.02 69.8738 124.828 69.2338 124.444C68.6044 124.05 68.1031 123.506 67.7298 122.812C67.3671 122.108 67.1858 121.314 67.1858 120.428C67.1858 119.543 67.3671 118.759 67.7298 118.076C68.1031 117.394 68.6044 116.866 69.2338 116.492C69.8738 116.108 70.5778 115.916 71.3458 115.916ZM74.4018 120.46C74.4018 119.852 74.2738 119.324 74.0178 118.876C73.7724 118.428 73.4471 118.087 73.0418 117.852C72.6364 117.618 72.1991 117.5 71.7298 117.5C71.2604 117.5 70.8231 117.618 70.4178 117.852C70.0124 118.076 69.6818 118.412 69.4258 118.86C69.1804 119.298 69.0578 119.82 69.0578 120.428C69.0578 121.036 69.1804 121.57 69.4258 122.028C69.6818 122.487 70.0124 122.839 70.4178 123.084C70.8338 123.319 71.2711 123.436 71.7298 123.436C72.1991 123.436 72.6364 123.319 73.0418 123.084C73.4471 122.85 73.7724 122.508 74.0178 122.06C74.2738 121.602 74.4018 121.068 74.4018 120.46ZM80.4615 117.34C80.7282 116.892 81.0802 116.546 81.5175 116.3C81.9655 116.044 82.4935 115.916 83.1015 115.916V117.804H82.6375C81.9228 117.804 81.3788 117.986 81.0055 118.348C80.6428 118.711 80.4615 119.34 80.4615 120.236V124.876H78.6375V116.06H80.4615V117.34ZM84.1701 120.428C84.1701 119.543 84.3515 118.759 84.7141 118.076C85.0875 117.394 85.5888 116.866 86.2181 116.492C86.8581 116.108 87.5621 115.916 88.3301 115.916C89.0235 115.916 89.6261 116.055 90.1381 116.332C90.6608 116.599 91.0768 116.935 91.3861 117.34V116.06H93.2261V124.876H91.3861V123.564C91.0768 123.98 90.6555 124.327 90.1221 124.604C89.5888 124.882 88.9808 125.02 88.2981 125.02C87.5408 125.02 86.8475 124.828 86.2181 124.444C85.5888 124.05 85.0875 123.506 84.7141 122.812C84.3515 122.108 84.1701 121.314 84.1701 120.428ZM91.3861 120.46C91.3861 119.852 91.2581 119.324 91.0021 118.876C90.7568 118.428 90.4315 118.087 90.0261 117.852C89.6208 117.618 89.1835 117.5 88.7141 117.5C88.2448 117.5 87.8075 117.618 87.4021 117.852C86.9968 118.076 86.6661 118.412 86.4101 118.86C86.1648 119.298 86.0421 119.82 86.0421 120.428C86.0421 121.036 86.1648 121.57 86.4101 122.028C86.6661 122.487 86.9968 122.839 87.4021 123.084C87.8181 123.319 88.2555 123.436 88.7141 123.436C89.1835 123.436 89.6208 123.319 90.0261 123.084C90.4315 122.85 90.7568 122.508 91.0021 122.06C91.2581 121.602 91.3861 121.068 91.3861 120.46ZM97.4459 117.356C97.7552 116.951 98.1765 116.61 98.7099 116.332C99.2432 116.055 99.8459 115.916 100.518 115.916C101.286 115.916 101.985 116.108 102.614 116.492C103.254 116.866 103.755 117.394 104.118 118.076C104.481 118.759 104.662 119.543 104.662 120.428C104.662 121.314 104.481 122.108 104.118 122.812C103.755 123.506 103.254 124.05 102.614 124.444C101.985 124.828 101.286 125.02 100.518 125.02C99.8459 125.02 99.2485 124.887 98.7259 124.62C98.2032 124.343 97.7765 124.002 97.4459 123.596V129.068H95.6219V116.06H97.4459V117.356ZM102.806 120.428C102.806 119.82 102.678 119.298 102.422 118.86C102.177 118.412 101.846 118.076 101.43 117.852C101.025 117.618 100.587 117.5 100.118 117.5C99.6592 117.5 99.2219 117.618 98.8059 117.852C98.4005 118.087 98.0699 118.428 97.8139 118.876C97.5685 119.324 97.4459 119.852 97.4459 120.46C97.4459 121.068 97.5685 121.602 97.8139 122.06C98.0699 122.508 98.4005 122.85 98.8059 123.084C99.2219 123.319 99.6592 123.436 100.118 123.436C100.587 123.436 101.025 123.319 101.43 123.084C101.846 122.839 102.177 122.487 102.422 122.028C102.678 121.57 102.806 121.036 102.806 120.428ZM111.026 115.916C111.698 115.916 112.295 116.06 112.818 116.348C113.351 116.636 113.767 117.063 114.066 117.628C114.375 118.194 114.53 118.876 114.53 119.676V124.876H112.722V119.948C112.722 119.159 112.524 118.556 112.13 118.14C111.735 117.714 111.196 117.5 110.514 117.5C109.831 117.5 109.287 117.714 108.882 118.14C108.487 118.556 108.29 119.159 108.29 119.948V124.876H106.466V113.036H108.29V117.084C108.599 116.711 108.988 116.423 109.458 116.22C109.938 116.018 110.46 115.916 111.026 115.916ZM124.936 120.252C124.936 120.583 124.915 120.882 124.872 121.148H118.136C118.19 121.852 118.451 122.418 118.92 122.844C119.39 123.271 119.966 123.484 120.648 123.484C121.63 123.484 122.323 123.074 122.728 122.252H124.696C124.43 123.063 123.944 123.73 123.24 124.252C122.547 124.764 121.683 125.02 120.648 125.02C119.806 125.02 119.048 124.834 118.376 124.46C117.715 124.076 117.192 123.543 116.808 122.86C116.435 122.167 116.248 121.367 116.248 120.46C116.248 119.554 116.43 118.759 116.792 118.076C117.166 117.383 117.683 116.85 118.344 116.476C119.016 116.103 119.784 115.916 120.648 115.916C121.48 115.916 122.222 116.098 122.872 116.46C123.523 116.823 124.03 117.335 124.392 117.996C124.755 118.647 124.936 119.399 124.936 120.252ZM123.032 119.676C123.022 119.004 122.782 118.466 122.312 118.06C121.843 117.655 121.262 117.452 120.568 117.452C119.939 117.452 119.4 117.655 118.952 118.06C118.504 118.455 118.238 118.994 118.152 119.676H123.032ZM128.555 117.34C128.822 116.892 129.174 116.546 129.611 116.3C130.059 116.044 130.587 115.916 131.195 115.916V117.804H130.731C130.017 117.804 129.473 117.986 129.099 118.348C128.737 118.711 128.555 119.34 128.555 120.236V124.876H126.731V116.06H128.555V117.34Z" fill="black"/>
</g>
<defs>
<filter id="filter0_d_188_1851" x="0" y="0.876465" width="156" height="158" filterUnits="userSpaceOnUse" color-interpolation-filters="sRGB">
<feFlood flood-opacity="0" result="BackgroundImageFix"/>
<feColorMatrix in="SourceAlpha" type="matrix" values="0 0 0 0 0 0 0 0 0 0 0 0 0 0 0 0 0 0 127 0" result="hardAlpha"/>
<feOffset dx="2" dy="2"/>
<feGaussianBlur stdDeviation="1"/>
<feComposite in2="hardAlpha" operator="out"/>
<feColorMatrix type="matrix" values="0 0 0 0 0 0 0 0 0 0 0 0 0 0 0 0 0 0 0.25 0"/>
<feBlend mode="normal" in2="BackgroundImageFix" result="effect1_dropShadow_188_1851"/>
<feBlend mode="normal" in="SourceGraphic" in2="effect1_dropShadow_188_1851" result="shape"/>
</filter>
<clipPath id="clip0_188_1851">
<rect width="99.7027" height="72" fill="white" transform="translate(26.1484 24.8765)"/>
</clipPath>
</defs>
</svg>
