<svg width="224" height="163" viewBox="0 0 224 163" fill="none" xmlns="http://www.w3.org/2000/svg">
<g clip-path="url(#clip0_231_1027)">
<path opacity="0.2" d="M57.6629 95.0122C57.6629 95.0122 58.133 104.413 38.0771 116.008C38.0771 116.008 38.0534 116.059 184.892 116.008C184.892 116.008 168.127 104.1 167.03 90.7816" fill="black"/>
<path d="M166.409 88.2912V9.29253C167.354 9.04769 168.192 8.49582 168.789 7.72355C169.387 6.95128 169.712 6.00234 169.712 5.02573C169.712 4.44711 169.598 3.87416 169.376 3.33959C169.155 2.80501 168.83 2.31928 168.421 1.91014C168.012 1.50099 167.526 1.17645 166.992 0.95502C166.457 0.733593 165.884 0.619628 165.306 0.619629H59.5587C58.9801 0.619628 58.4072 0.733593 57.8726 0.95502C57.338 1.17645 56.8523 1.501 56.4432 1.91014C56.034 2.31929 55.7095 2.80501 55.488 3.33959C55.2666 3.87416 55.1526 4.44711 55.1526 5.02573C55.1526 6.1943 55.6168 7.31502 56.4432 8.14133C57.2695 8.96763 58.3902 9.43184 59.5587 9.43184H59.5597L57.1116 88.3611L37.4561 113.518C37.4561 113.518 37.2908 113.518 184.271 113.518C184.271 113.518 184.168 113.772 166.409 88.2912Z" fill="#E6E6E6"/>
<path opacity="0.2" d="M116.409 104.642C134.289 104.642 148.784 103.527 148.784 102.152C148.784 100.776 134.289 99.6615 116.409 99.6615C98.5286 99.6615 84.0337 100.776 84.0337 102.152C84.0337 103.527 98.5286 104.642 116.409 104.642Z" fill="black"/>
<path opacity="0.2" d="M59.5586 9.43196L166.409 12.5438L166.455 9.24036L59.5586 9.43196Z" fill="black"/>
<path d="M136.761 37.1369V46.8496C136.76 46.9393 136.725 47.0253 136.661 47.0888C136.598 47.1522 136.512 47.188 136.422 47.1882H136.181V97.7849C136.181 99.185 135.625 100.528 134.635 101.518C133.645 102.508 132.302 103.064 130.902 103.064H99.2867C98.5935 103.064 97.9071 102.927 97.2667 102.662C96.6263 102.397 96.0444 102.008 95.5543 101.518C95.0643 101.027 94.6755 100.445 94.4104 99.805C94.1452 99.1645 94.0088 98.4781 94.0089 97.7849V48.9628H93.8344C93.7711 48.9629 93.7103 48.9379 93.6654 48.8932C93.6205 48.8486 93.5951 48.788 93.5948 48.7247V43.197C93.5948 43.1655 93.601 43.1344 93.6131 43.1053C93.6251 43.0762 93.6427 43.0498 93.665 43.0276C93.6872 43.0053 93.7136 42.9877 93.7427 42.9757C93.7718 42.9636 93.8029 42.9574 93.8344 42.9574H94.0089V40.8753H93.8329C93.7664 40.875 93.7028 40.8484 93.656 40.8013C93.6091 40.7542 93.5829 40.6904 93.583 40.6239V35.1716C93.5832 35.1054 93.6096 35.0419 93.6564 34.9951C93.7032 34.9483 93.7667 34.9219 93.8329 34.9217H94.0089V32.0795H93.8299C93.8008 32.0795 93.7719 32.0738 93.745 32.0627C93.7181 32.0515 93.6936 32.0352 93.673 32.0146C93.6524 31.994 93.6361 31.9695 93.6249 31.9426C93.6138 31.9157 93.6081 31.8868 93.6081 31.8577V28.8824C93.608 28.8233 93.6313 28.7667 93.6729 28.7248C93.7144 28.683 93.7709 28.6593 93.8299 28.6591H94.0089V22.6345C94.0089 21.2347 94.565 19.8923 95.5548 18.9026C96.5445 17.9128 97.8869 17.3567 99.2867 17.3567H130.902C132.302 17.3567 133.644 17.9127 134.634 18.9024C135.624 19.8922 136.181 21.2346 136.181 22.6345V36.7983H136.422C136.512 36.7985 136.598 36.8343 136.661 36.8977C136.725 36.9612 136.76 37.0472 136.761 37.1369Z" fill="#3F3D56"/>
<path d="M116.618 20.0638H111.48C111.273 20.0638 111.104 20.2321 111.104 20.4397V20.8838C111.104 21.0914 111.273 21.2597 111.48 21.2597H116.618C116.825 21.2597 116.994 21.0914 116.994 20.8838V20.4397C116.994 20.2321 116.825 20.0638 116.618 20.0638Z" fill="#E6E8EC"/>
<path d="M118.562 21.3401C118.937 21.3401 119.24 21.0364 119.24 20.6618C119.24 20.2872 118.937 19.9835 118.562 19.9835C118.187 19.9835 117.884 20.2872 117.884 20.6618C117.884 21.0364 118.187 21.3401 118.562 21.3401Z" fill="#E6E8EC"/>
<path d="M133.653 23.6784V98.2225C133.653 99.1106 133.3 99.9621 132.672 100.59C132.044 101.218 131.192 101.57 130.304 101.57H100.04C99.6004 101.571 99.1647 101.485 98.758 101.317C98.3514 101.149 97.9819 100.903 97.6708 100.592C97.3596 100.281 97.1129 99.9113 96.9448 99.5048C96.7766 99.0982 96.6903 98.6625 96.6909 98.2225V23.6784C96.6909 23.2386 96.7775 22.803 96.9458 22.3966C97.1142 21.9902 97.3609 21.621 97.6719 21.31C97.9829 20.9989 98.3522 20.7522 98.7586 20.5839C99.165 20.4156 99.6005 20.329 100.04 20.329H104.57V20.9101C104.57 21.6416 104.86 22.3431 105.378 22.8603C105.895 23.3775 106.596 23.6681 107.328 23.6681H122.719C123.45 23.6681 124.152 23.3775 124.669 22.8603C125.186 22.3431 125.477 21.6416 125.477 20.9101V20.329H130.304C130.744 20.3288 131.179 20.4154 131.586 20.5837C131.992 20.7519 132.361 20.9986 132.672 21.3097C132.984 21.6207 133.23 21.99 133.399 22.3965C133.567 22.8029 133.653 23.2385 133.653 23.6784Z" fill="white"/>
<path d="M130.613 69.4038H99.8545V73.3965H130.613V69.4038Z" fill="#E6E6E6"/>
<path d="M130.613 76.502H99.8545V80.4947H130.613V76.502Z" fill="#E6E6E6"/>
<path d="M130.613 83.6001H99.8545V87.5928H130.613V83.6001Z" fill="#E6E6E6"/>
<path d="M130.551 40.7153H99.7925V61.1226H130.551V40.7153Z" fill="#E6E6E6"/>
<path d="M57.7174 12.3563L41.9437 12.4543C41.9437 12.4543 15.9807 26.2685 34.2038 54.8768C34.2038 54.8768 41.6498 53.1133 49.8795 59.1877C49.8795 59.1877 54.6803 13.434 57.7174 12.3563Z" fill="#473534"/>
<path opacity="0.2" d="M53.0255 12.4995C50.1996 24.3039 47.0049 54.7498 47.0049 54.7498C39.6522 49.3228 32.9299 50.1516 31.5796 50.39C32.3761 51.967 33.252 53.5026 34.204 54.9908C34.204 54.9908 41.65 53.2273 49.8798 59.3017C49.8798 59.3017 54.6805 13.548 57.7177 12.4703L53.0255 12.4995Z" fill="black"/>
<path d="M34.106 27.1502L32.7343 33.8126L15.4968 30.6793L15.491 30.6773L15.0991 22.8395H18.4303L34.106 27.1502Z" fill="#3F3D56"/>
<path opacity="0.2" d="M18.152 22.8395L15.4968 30.6793L15.491 30.6773L15.0991 22.8395H18.152Z" fill="black"/>
<path d="M33.5181 34.5963C34.6002 34.5963 35.4775 32.5786 35.4775 30.0895C35.4775 27.6005 34.6002 25.5828 33.5181 25.5828C32.4359 25.5828 31.5586 27.6005 31.5586 30.0895C31.5586 32.5786 32.4359 34.5963 33.5181 34.5963Z" fill="#3F3D56"/>
<path d="M23.3289 125.331C23.2503 125.331 23.1724 125.315 23.0997 125.285C23.027 125.255 22.961 125.211 22.9054 125.155C22.8498 125.1 22.8057 125.034 22.7756 124.961C22.7455 124.888 22.73 124.811 22.73 124.732V30.0895C22.73 29.9307 22.7931 29.7783 22.9054 29.666C23.0177 29.5537 23.1701 29.4906 23.3289 29.4906C23.4878 29.4906 23.6401 29.5537 23.7524 29.666C23.8647 29.7783 23.9278 29.9307 23.9278 30.0895V124.732C23.9278 124.811 23.9124 124.888 23.8823 124.961C23.8522 125.034 23.8081 125.1 23.7524 125.155C23.6968 125.211 23.6308 125.255 23.5581 125.285C23.4855 125.315 23.4076 125.331 23.3289 125.331Z" fill="#3F3D56"/>
<path d="M31.5579 141.986C31.4191 141.986 31.2847 141.938 31.1776 141.85C31.0705 141.761 30.9974 141.638 30.9708 141.502L22.741 99.3124C22.7145 99.1762 22.7361 99.035 22.8021 98.9129C22.8682 98.7908 22.9746 98.6954 23.1031 98.6431C23.2317 98.5907 23.3745 98.5847 23.507 98.626C23.6395 98.6672 23.7536 98.7533 23.8298 98.8693L45.5798 132.045C45.6669 132.178 45.6977 132.34 45.6654 132.496C45.633 132.651 45.5402 132.788 45.4074 132.875C45.2745 132.962 45.1125 132.993 44.957 132.96C44.8015 132.928 44.6651 132.835 44.578 132.702L24.5009 102.078L32.1465 141.273C32.1615 141.35 32.1613 141.43 32.1456 141.507C32.13 141.584 32.0994 141.657 32.0554 141.722C32.0115 141.787 31.9551 141.843 31.8895 141.887C31.824 141.93 31.7505 141.96 31.6733 141.975C31.6353 141.983 31.5967 141.986 31.5579 141.986Z" fill="#3F3D56"/>
<path d="M0.59825 134.54C0.490309 134.54 0.384408 134.511 0.291746 134.456C0.199085 134.4 0.123108 134.321 0.0718485 134.226C0.0205886 134.131 -0.00404958 134.024 0.000542289 133.916C0.00513416 133.808 0.0387829 133.703 0.0979321 133.613L22.8278 98.9306C22.915 98.7981 23.0512 98.7056 23.2066 98.6734C23.3619 98.6412 23.5237 98.6719 23.6564 98.7589C23.789 98.8458 23.8818 98.9819 23.9143 99.1371C23.9468 99.2924 23.9163 99.4543 23.8296 99.5871L1.09974 134.27C1.04526 134.353 0.970863 134.421 0.883297 134.469C0.795731 134.516 0.697758 134.54 0.59825 134.54Z" fill="#3F3D56"/>
<path d="M166.282 12.3563L182.056 12.4543C182.056 12.4543 208.019 26.2685 189.796 54.8768C189.796 54.8768 182.35 53.1133 174.12 59.1877C174.12 59.1877 169.319 13.434 166.282 12.3563Z" fill="#473534"/>
<path opacity="0.2" d="M170.974 12.4995C173.8 24.3039 176.995 54.7498 176.995 54.7498C184.348 49.3228 191.07 50.1516 192.42 50.39C191.624 51.967 190.748 53.5026 189.796 54.9908C189.796 54.9908 182.35 53.2273 174.12 59.3017C174.12 59.3017 169.319 13.548 166.282 12.4703L170.974 12.4995Z" fill="black"/>
<path d="M189.894 27.1502L191.266 33.8126L208.503 30.6793L208.509 30.6773L208.901 22.8395H205.57L189.894 27.1502Z" fill="#3F3D56"/>
<path opacity="0.2" d="M205.848 22.8395L208.503 30.6793L208.509 30.6773L208.901 22.8395H205.848Z" fill="black"/>
<path d="M190.482 34.5963C191.564 34.5963 192.441 32.5786 192.441 30.0895C192.441 27.6005 191.564 25.5828 190.482 25.5828C189.4 25.5828 188.522 27.6005 188.522 30.0895C188.522 32.5786 189.4 34.5963 190.482 34.5963Z" fill="#3F3D56"/>
<path d="M200.671 125.331C200.593 125.331 200.515 125.315 200.442 125.285C200.369 125.255 200.303 125.211 200.248 125.155C200.192 125.1 200.148 125.034 200.118 124.961C200.088 124.888 200.072 124.811 200.072 124.732V30.0895C200.072 29.9307 200.135 29.7783 200.248 29.666C200.36 29.5537 200.512 29.4906 200.671 29.4906C200.83 29.4906 200.982 29.5537 201.095 29.666C201.207 29.7783 201.27 29.9307 201.27 30.0895V124.732C201.27 124.811 201.255 124.888 201.225 124.961C201.194 125.034 201.15 125.1 201.095 125.155C201.039 125.211 200.973 125.255 200.9 125.285C200.828 125.315 200.75 125.331 200.671 125.331Z" fill="#3F3D56"/>
<path d="M192.442 141.986C192.404 141.986 192.365 141.983 192.327 141.975C192.171 141.945 192.034 141.854 191.945 141.722C191.856 141.59 191.823 141.429 191.854 141.273L199.499 102.078L179.422 132.702C179.379 132.768 179.323 132.825 179.258 132.869C179.193 132.913 179.12 132.944 179.043 132.96C178.966 132.976 178.887 132.977 178.809 132.962C178.732 132.948 178.659 132.918 178.593 132.875C178.527 132.832 178.47 132.776 178.426 132.711C178.382 132.646 178.351 132.573 178.335 132.496C178.319 132.419 178.318 132.339 178.333 132.262C178.347 132.185 178.377 132.111 178.42 132.045L200.17 98.8693C200.247 98.7532 200.361 98.6672 200.493 98.626C200.626 98.5847 200.769 98.5907 200.897 98.6431C201.026 98.6954 201.132 98.7908 201.198 98.9128C201.264 99.0349 201.286 99.1762 201.259 99.3124L193.03 141.502C193.003 141.638 192.93 141.761 192.823 141.849C192.716 141.938 192.581 141.986 192.442 141.986Z" fill="#3F3D56"/>
<path d="M223.401 134.54C223.302 134.54 223.204 134.516 223.116 134.469C223.029 134.421 222.954 134.353 222.9 134.27L200.17 99.5871C200.083 99.4543 200.053 99.2924 200.085 99.1371C200.118 98.9819 200.211 98.8458 200.343 98.7589C200.476 98.6719 200.638 98.6412 200.793 98.6734C200.949 98.7056 201.085 98.7981 201.172 98.9306L223.902 133.613C223.961 133.703 223.995 133.808 223.999 133.916C224.004 134.024 223.979 134.131 223.928 134.226C223.877 134.321 223.801 134.4 223.708 134.456C223.615 134.511 223.509 134.54 223.401 134.54Z" fill="#3F3D56"/>
<path d="M98.3481 83.7876L102.639 82.5928C102.639 82.5928 104.32 82.2573 103.293 78.9745C102.266 75.6918 100.229 76.6105 100.229 76.6105L96.4224 77.7165L94.9194 78.1806L97.0341 81.1474L97.2114 83.1248L98.3481 83.7876Z" fill="#3F3D56"/>
<path d="M90.0562 75.114L88.71 80.492L95.6083 87.1777L96.2014 87.3263L97.7835 86.8819L99.1301 81.5041L97.7663 80.0699L99.1603 79.7048L96.1854 76.8168L94.6331 77.1425L93.3879 75.9063L94.2283 75.5703L94.3075 75.254L93.2896 74.4528L90.0562 75.114Z" fill="#3F3D56"/>
<path d="M96.5198 82.6994L95.6286 86.2582L91.5171 82.3713L92.5468 78.7629L96.5198 82.6994Z" fill="#473534"/>
<path d="M90.0565 75.114L89.8677 75.8682L96.7274 82.5414L97.3205 82.6898L98.8533 82.2751L98.9377 82.2733L99.1303 81.5041L97.7665 80.0699L99.1606 79.7048L96.1857 76.8168L94.6333 77.1425L93.3881 75.9063L94.2285 75.5703L94.3078 75.254L93.2898 74.4528L90.0565 75.114Z" stroke="#3F3D56" stroke-miterlimit="10"/>
<path d="M93.7789 75.1845C93.8309 74.977 93.6251 74.7468 93.3194 74.6702C93.0136 74.5937 92.7236 74.6998 92.6717 74.9073C92.6197 75.1148 92.8255 75.345 93.1312 75.4216C93.437 75.4981 93.727 75.392 93.7789 75.1845Z" fill="#473534"/>
<path d="M98.1368 80.9401C98.1888 80.7327 97.983 80.5024 97.6773 80.4259C97.3715 80.3493 97.0816 80.4554 97.0296 80.6629C96.9777 80.8704 97.1834 81.1006 97.4892 81.1772C97.7949 81.2537 98.0849 81.1476 98.1368 80.9401Z" fill="#473534"/>
<path d="M101.199 90.4869L100.263 87.3052C100.263 87.3052 102.697 81.5031 99.8892 80.9416C97.0817 80.3801 96.8945 86.3693 96.8945 86.3693L98.0175 89.9255L101.199 90.4869Z" fill="#FFB6B6"/>
<path d="M83.8248 84.3004C87.9309 84.3004 91.2595 80.9718 91.2595 76.8657C91.2595 72.7597 87.9309 69.431 83.8248 69.431C79.7188 69.431 76.3901 72.7597 76.3901 76.8657C76.3901 80.9718 79.7188 84.3004 83.8248 84.3004Z" fill="#FFB6B6"/>
<path d="M86.23 82.1137C86.23 82.1137 86.6673 87.5804 87.7607 88.0178C88.854 88.4551 75.9526 91.5164 75.9526 91.5164L79.2326 87.7991C79.2326 87.7991 79.8887 82.1138 78.358 80.8018L86.23 82.1137Z" fill="#FFB6B6"/>
<path d="M96.7075 88.8026L99.7021 88.4282C99.7021 88.4282 103.258 90.2999 103.258 92.733C103.258 95.1661 105.317 99.0966 105.317 99.0966C105.317 99.0966 106.814 104.337 103.445 104.712C100.076 105.086 97.0818 99.0966 97.0818 99.0966L96.7075 88.8026Z" fill="#473534"/>
<path d="M98.3919 118.562C98.3919 118.562 104.943 112.385 106.814 112.76C108.686 113.134 112.429 113.695 112.429 116.503C112.429 119.31 106.253 125.861 106.253 125.861C106.253 125.861 101.574 136.155 97.0818 136.529C94.1269 136.797 91.1898 137.235 88.2851 137.84C88.2851 137.84 90.3439 145.326 89.2209 147.385C88.0979 149.444 83.7931 151.877 83.4188 151.69C83.0445 151.503 77.8039 146.636 75.5579 139.711C73.3119 132.786 71.8146 127.545 73.8734 127.171C75.9322 126.797 98.3919 118.562 98.3919 118.562Z" fill="#2F2E41"/>
<path d="M111.868 115.941C111.868 115.941 113.178 115.754 112.991 118.936C112.804 122.118 112.242 133.535 111.306 135.781C110.37 138.027 110.183 140.647 110.558 141.583C110.932 142.519 111.681 144.016 110.37 144.203C109.06 144.39 103.633 143.642 103.071 143.454C102.51 143.267 101.948 140.085 102.322 140.085C102.697 140.085 103.633 139.898 103.258 138.588C102.884 137.278 102.697 137.278 103.258 136.904C103.82 136.529 105.317 135.968 104.943 135.594C104.568 135.219 104.194 126.422 104.194 126.422L111.868 115.941Z" fill="#2F2E41"/>
<path d="M109.996 143.642C109.996 143.642 113.178 142.706 113.552 144.765C113.552 144.765 114.114 147.946 111.681 149.069C110.111 149.811 108.608 150.688 107.189 151.69C107.189 151.69 103.258 153.187 103.071 151.315C102.884 149.444 103.82 142.706 103.82 142.706L109.996 143.642Z" fill="#2F2E41"/>
<path d="M88.8469 145.888L82.8576 141.021C82.8576 141.021 83.9806 147.011 82.4833 148.134L81.7993 150.133L83.7146 151.7C83.7146 151.7 89.5955 150.754 88.8469 145.888Z" fill="#2F2E41"/>
<path d="M80.4242 137.652C80.4242 137.652 84.3546 138.775 83.7932 142.706C83.2317 146.636 82.5117 150.906 82.5117 150.906C82.5117 150.906 82.2958 161.422 79.4884 162.171C76.6809 162.919 75.9323 161.422 75.9323 161.422C75.9323 161.422 72.741 153.205 73.6863 150.754C74.8306 147.787 76.4794 144.456 75.9323 143.454C75.3939 142.469 76.3066 137.091 80.4242 137.652Z" fill="#2F2E41"/>
<path d="M78.1782 85.9951C78.1782 85.9951 79.6755 86.1822 82.1086 86.5566C84.5418 86.9309 86.2262 85.0592 87.5364 85.4336C88.8465 85.8079 99.7021 88.4282 99.7021 88.4282L98.0176 101.343C98.0176 101.343 100.076 116.316 99.7021 118.936C99.3277 121.556 104.194 121.182 101.387 124.364C98.5791 127.546 93.7128 130.353 83.7931 129.417C73.8734 128.481 72.5633 128.668 72.5633 127.171C72.5633 125.674 74.8092 112.947 74.0606 111.824C73.3119 110.701 71.8146 109.391 72.5633 108.08C73.3119 106.77 74.0606 106.022 72.9376 104.899C71.8146 103.776 71.2531 102.653 71.2531 102.091C71.2531 101.53 68.6328 92.3586 68.6328 92.3586C68.6328 92.3586 69.7558 87.8667 71.0659 87.6795C72.3761 87.4924 73.4991 86.5565 74.4349 86.5565C75.3707 86.5565 75.9322 86.7437 76.4937 86.5565L78.1782 85.9951Z" fill="#473534"/>
<path d="M96.1265 74.258C96.0302 73.8254 95.5588 72.3791 94.6005 72.0262C93.8994 71.7681 92.5948 72.3135 91.9451 72.2231L91.8613 71.9851C91.8057 71.5165 91.6889 71.0571 91.5139 70.6189C91.1706 69.7425 90.6539 68.9445 89.9948 68.2726C89.3357 67.6008 88.5477 67.0689 87.6781 66.7089C85.538 65.8143 82.1529 65.0745 79.216 67.4188C75.182 70.6387 75.8929 75.4569 76.186 76.7937C76.2349 77.0167 76.2768 77.2412 76.3116 77.467C76.4924 78.6445 77.0134 78.785 77.0134 78.785C77.0134 78.785 77.0022 78.7511 76.9839 78.6892L80.6275 79.0439L82.5974 78.7077C82.6303 78.9003 82.6431 79.0142 82.6431 79.0142C88.3915 78.1355 91.7367 75.1077 92.2799 74.5827C92.7574 74.8992 93.6469 75.4162 94.5094 75.5296C95.7726 75.6957 96.2228 74.6906 96.1265 74.258ZM81.3151 77.1528L76.6862 76.9844C76.6205 75.7209 76.9468 74.2434 78.8075 74.168C80.6014 74.0953 81.5806 75.5539 82.0996 76.8893L81.3151 77.1528Z" fill="#2F2E41"/>
<path d="M82.5248 66.349C82.9706 66.2729 83.3086 66.0744 83.2798 65.9058C83.2511 65.7371 82.8663 65.662 82.4205 65.7381C81.9747 65.8142 81.6366 66.0126 81.6654 66.1813C81.6942 66.35 82.0789 66.425 82.5248 66.349Z" fill="#2F2E41"/>
</g>
<defs>
<clipPath id="clip0_231_1027">
<rect width="224" height="161.761" fill="white" transform="translate(0 0.619629)"/>
</clipPath>
</defs>
</svg>
