<svg width="384" height="194" viewBox="0 0 384 194" fill="none" xmlns="http://www.w3.org/2000/svg">
<g clip-path="url(#clip0_82_10008)">
<path d="M346.916 157.664H54.9459C51.2134 157.66 47.635 156.175 44.9957 153.536C42.3565 150.897 40.8719 147.319 40.8677 143.586V32.7965C40.8719 29.064 42.3565 25.4856 44.9958 22.8463C47.635 20.2071 51.2134 18.7225 54.9459 18.7182H346.916C350.649 18.7225 354.227 20.2071 356.866 22.8463C359.506 25.4856 360.99 29.064 360.994 32.7965V143.586C360.99 147.319 359.506 150.897 356.866 153.536C354.227 156.175 350.649 157.66 346.916 157.664Z" fill="white"/>
<path d="M346.916 157.664H54.9459C51.2134 157.66 47.635 156.175 44.9957 153.536C42.3565 150.897 40.8719 147.319 40.8677 143.586V32.7965C40.8719 29.064 42.3565 25.4856 44.9958 22.8463C47.635 20.2071 51.2134 18.7225 54.9459 18.7182H346.916C350.649 18.7225 354.227 20.2071 356.866 22.8463C359.506 25.4856 360.99 29.064 360.994 32.7965V143.586C360.99 147.319 359.506 150.897 356.866 153.536C354.227 156.175 350.649 157.66 346.916 157.664ZM54.9459 19.9424C51.5368 19.9424 48.2673 21.2967 45.8567 23.7073C43.4461 26.1179 42.0919 29.3874 42.0919 32.7965V143.586C42.0919 145.274 42.4243 146.946 43.0703 148.505C43.7163 150.065 44.6631 151.482 45.8567 152.675C47.0503 153.869 48.4674 154.816 50.0269 155.462C51.5864 156.108 53.2579 156.44 54.9459 156.44H346.916C348.604 156.44 350.276 156.108 351.835 155.462C353.395 154.816 354.812 153.869 356.005 152.675C357.199 151.482 358.146 150.065 358.792 148.505C359.438 146.946 359.77 145.274 359.77 143.586V101.812C359.77 80.0991 351.145 59.2752 335.791 43.9216C320.438 28.568 299.614 19.9424 277.9 19.9424H54.9459Z" fill="#E6E6E6"/>
<path d="M31.8438 181.25C31.9632 180.429 31.1037 179.625 29.9239 179.453C28.7442 179.281 27.6911 179.807 27.5717 180.628C27.4523 181.449 28.3118 182.253 29.4915 182.425C30.6713 182.596 31.7244 182.07 31.8438 181.25Z" fill="white"/>
<path d="M45.8897 179.879C46.0091 179.058 45.1496 178.254 43.9698 178.082C42.7901 177.911 41.737 178.437 41.6176 179.258C41.4982 180.078 42.3577 180.883 43.5374 181.054C44.7172 181.226 45.7703 180.7 45.8897 179.879Z" fill="#3F3D56"/>
<path d="M27.9976 169.878C28.117 169.058 27.2575 168.253 26.0778 168.082C24.898 167.91 23.8449 168.436 23.7255 169.257C23.6061 170.078 24.4656 170.882 25.6454 171.054C26.8251 171.225 27.8782 170.699 27.9976 169.878Z" fill="#FF6584"/>
<path d="M21.8946 165.221C21.9003 164.467 21.4801 163.853 20.9559 163.849C20.4318 163.845 20.0023 164.453 19.9966 165.206C19.9909 165.96 20.4112 166.574 20.9353 166.578C21.4594 166.582 21.8889 165.974 21.8946 165.221Z" fill="#E6E6E6"/>
<path d="M19.8248 156.545C19.8305 155.792 19.4102 155.178 18.8861 155.174C18.362 155.17 17.9325 155.777 17.9268 156.531C17.9211 157.284 18.3414 157.898 18.8655 157.902C19.3896 157.906 19.8191 157.298 19.8248 156.545Z" fill="#3F3D56"/>
<path d="M35.9195 171.814C35.9252 171.06 35.505 170.446 34.9808 170.442C34.4567 170.438 34.0272 171.046 34.0215 171.799C34.0158 172.553 34.4361 173.167 34.9602 173.171C35.4843 173.174 35.9138 172.567 35.9195 171.814Z" fill="#E6E6E6"/>
<path d="M29.1319 175.202C29.1376 174.449 28.7174 173.835 28.1933 173.831C27.6691 173.827 27.2396 174.435 27.2339 175.188C27.2283 175.942 27.6485 176.555 28.1726 176.559C28.6967 176.563 29.1262 175.956 29.1319 175.202Z" fill="#FF6584"/>
<path d="M38.5807 181.466C38.5864 180.713 38.1661 180.099 37.642 180.095C37.1179 180.091 36.6884 180.698 36.6827 181.452C36.677 182.205 37.0972 182.819 37.6214 182.823C38.1455 182.827 38.575 182.22 38.5807 181.466Z" fill="#3F3D56"/>
<path d="M371.177 4.32504C371.437 3.30032 370.453 2.16702 368.98 1.79372C367.507 1.42041 366.102 1.94848 365.843 2.9732C365.583 3.99792 366.567 5.13125 368.04 5.50455C369.513 5.87785 370.917 5.34976 371.177 4.32504Z" fill="white"/>
<path d="M353.188 4.20912C353.448 3.1844 352.464 2.05107 350.991 1.67776C349.518 1.30446 348.114 1.83255 347.854 2.85728C347.594 3.882 348.578 5.0153 350.051 5.3886C351.524 5.7619 352.929 5.23384 353.188 4.20912Z" fill="#3F3D56"/>
<path d="M374.553 19.2494C374.812 18.2247 373.829 17.0914 372.356 16.7181C370.883 16.3448 369.478 16.8729 369.218 17.8976C368.959 18.9223 369.942 20.0556 371.415 20.4289C372.888 20.8022 374.293 20.2741 374.553 19.2494Z" fill="#FF6584"/>
<path d="M378.746 24.877C378.853 23.9226 378.401 23.0887 377.737 23.0145C377.073 22.9403 376.448 23.6539 376.342 24.6083C376.235 25.5628 376.687 26.3967 377.351 26.4709C378.015 26.545 378.639 25.8315 378.746 24.877Z" fill="#E6E6E6"/>
<path d="M380.227 36.1475C380.334 35.1931 379.882 34.3592 379.218 34.285C378.554 34.2108 377.93 34.9244 377.823 35.8789C377.716 36.8333 378.168 37.6672 378.832 37.7414C379.496 37.8156 380.121 37.102 380.227 36.1475Z" fill="#3F3D56"/>
<path d="M361.834 14.6674C361.941 13.713 361.489 12.8791 360.825 12.8049C360.161 12.7307 359.537 13.4443 359.43 14.3988C359.323 15.3532 359.775 16.1871 360.439 16.2613C361.103 16.3355 361.728 15.6219 361.834 14.6674Z" fill="#E6E6E6"/>
<path d="M370.887 11.2665C370.994 10.3121 370.542 9.47821 369.878 9.40402C369.214 9.32983 368.589 10.0434 368.483 10.9979C368.376 11.9523 368.828 12.7862 369.492 12.8604C370.156 12.9346 370.78 12.221 370.887 11.2665Z" fill="#FF6584"/>
<path d="M359.735 2.07836C359.841 1.12391 359.39 0.290036 358.726 0.215846C358.062 0.141656 357.437 0.855244 357.33 1.80969C357.224 2.76414 357.675 3.59802 358.339 3.67221C359.003 3.7464 359.628 3.03281 359.735 2.07836Z" fill="#3F3D56"/>
<path d="M157.65 85.9366C157.666 97.024 153.57 107.723 146.155 115.966V115.972C145.107 117.138 143.999 118.249 142.837 119.302C141.648 120.379 140.402 121.39 139.104 122.332C138.198 122.993 137.267 123.617 136.312 124.205C135.18 124.909 134.015 125.56 132.817 126.158C131.93 126.604 131.024 127.021 130.1 127.406C124.583 129.725 118.658 130.917 112.673 130.914C109.293 130.917 105.924 130.539 102.629 129.787C101.105 129.441 99.6009 129.012 98.1237 128.502C97.5544 128.312 96.9852 128.104 96.422 127.884C93.0075 126.564 89.7694 124.826 86.7815 122.711C80.466 118.265 75.4021 112.267 72.0775 105.295C68.7529 98.3237 67.2797 90.6134 67.7999 82.9071C68.32 75.2009 70.8159 67.7585 75.0472 61.2969C79.2785 54.8352 85.1025 49.5721 91.9582 46.0146C98.8138 42.4571 106.47 40.725 114.19 40.9853C121.909 41.2456 129.431 43.4894 136.032 47.5006C142.632 51.5118 148.088 57.1553 151.875 63.8873C155.661 70.6192 157.65 78.2129 157.65 85.9366Z" fill="#F2F2F2"/>
<path d="M292.263 52.5029H214.526C213.878 52.5019 213.256 52.2435 212.797 51.7845C212.339 51.3254 212.082 50.7032 212.082 50.0545C212.082 49.4058 212.339 48.7836 212.797 48.3245C213.256 47.8654 213.878 47.6071 214.526 47.6061H292.263C292.912 47.6061 293.535 47.8641 293.994 48.3232C294.453 48.7824 294.711 49.4051 294.711 50.0545C294.711 50.7038 294.453 51.3266 293.994 51.7858C293.535 52.2449 292.912 52.5029 292.263 52.5029Z" fill="#473534"/>
<path d="M292.263 85.5561H214.526C213.878 85.5552 213.256 85.2968 212.797 84.8377C212.339 84.3787 212.082 83.7564 212.082 83.1077C212.082 82.459 212.339 81.8368 212.797 81.3777C213.256 80.9187 213.878 80.6603 214.526 80.6593H292.263C292.911 80.6603 293.533 80.9187 293.992 81.3777C294.45 81.8368 294.707 82.459 294.707 83.1077C294.707 83.7564 294.45 84.3787 293.992 84.8377C293.533 85.2968 292.911 85.5552 292.263 85.5561Z" fill="#E6E6E6"/>
<path d="M292.263 118.609H214.526C213.878 118.608 213.256 118.35 212.797 117.891C212.339 117.432 212.082 116.81 212.082 116.161C212.082 115.512 212.339 114.89 212.797 114.431C213.256 113.972 213.878 113.714 214.526 113.713H292.263C292.912 113.713 293.535 113.971 293.994 114.43C294.453 114.889 294.711 115.512 294.711 116.161C294.711 116.81 294.453 117.433 293.994 117.892C293.535 118.351 292.912 118.609 292.263 118.609Z" fill="#E6E6E6"/>
<path d="M97.9173 191.652C89.1414 179.979 84.0691 166.926 83.9029 152.044C83.6202 151.242 83.6671 150.36 84.0334 149.593C84.3997 148.826 85.0554 148.235 85.8568 147.95L115.77 137.366C116.572 137.083 117.453 137.13 118.22 137.497C118.988 137.863 119.579 138.519 119.863 139.32L133.878 178.928C134.16 179.73 134.113 180.611 133.747 181.379C133.381 182.146 132.725 182.737 131.924 183.022L102.011 193.606C101.209 193.888 100.328 193.841 99.5601 193.475C98.7926 193.109 98.2018 192.453 97.9173 191.652Z" fill="#E6E6E6"/>
<path d="M95.9792 178.877C90.701 173.54 88.4417 164.022 86.9695 153.413C86.7046 152.662 86.7486 151.836 87.0916 151.118C87.4347 150.399 88.0488 149.846 88.7993 149.579L114.507 140.483C115.258 140.218 116.083 140.262 116.802 140.605C117.521 140.948 118.074 141.563 118.341 142.313L130.812 177.559C131.076 178.31 131.032 179.135 130.689 179.854C130.346 180.573 129.732 181.126 128.982 181.392L113.056 187.027C109.711 188.207 106.034 188.011 102.832 186.483C99.6309 184.955 97.1663 182.219 95.9792 178.877Z" fill="white"/>
<path d="M118.685 161.3L98.6592 168.448C98.5015 168.504 98.3341 168.529 98.1668 168.521C97.9995 168.512 97.8354 168.471 97.684 168.399C97.5326 168.328 97.3968 168.227 97.2844 168.103C97.172 167.978 97.0852 167.833 97.0288 167.675C96.9725 167.518 96.9478 167.35 96.9562 167.183C96.9645 167.016 97.0057 166.852 97.0775 166.7C97.1492 166.549 97.2501 166.413 97.3743 166.301C97.4985 166.188 97.6437 166.101 97.8015 166.045L117.827 158.897C118.146 158.783 118.496 158.801 118.802 158.946C119.108 159.09 119.344 159.351 119.457 159.67C119.571 159.988 119.554 160.339 119.409 160.645C119.264 160.951 119.003 161.186 118.685 161.3Z" fill="#473534"/>
<path d="M100.713 160.286L96.3075 161.859C96.1496 161.915 95.9822 161.94 95.8147 161.932C95.6473 161.924 95.4831 161.883 95.3316 161.811C95.18 161.739 95.0441 161.638 94.9316 161.514C94.8191 161.39 94.7322 161.245 94.6758 161.087C94.6194 160.929 94.5948 160.761 94.6032 160.594C94.6116 160.426 94.6529 160.262 94.7247 160.111C94.7966 159.959 94.8976 159.824 95.022 159.711C95.1464 159.599 95.2917 159.512 95.4497 159.456L99.8553 157.883C100.013 157.827 100.181 157.802 100.348 157.81C100.515 157.818 100.68 157.859 100.831 157.931C100.983 158.003 101.119 158.104 101.231 158.228C101.344 158.352 101.431 158.498 101.487 158.655C101.543 158.813 101.568 158.981 101.56 159.148C101.551 159.316 101.51 159.48 101.438 159.631C101.366 159.783 101.265 159.918 101.141 160.031C101.016 160.143 100.871 160.23 100.713 160.286Z" fill="#473534"/>
<path d="M122.456 171.864L102.43 179.013C102.112 179.126 101.761 179.108 101.456 178.963C101.15 178.818 100.915 178.558 100.801 178.239C100.688 177.921 100.705 177.57 100.85 177.265C100.994 176.959 101.254 176.723 101.573 176.609L121.598 169.461C121.917 169.348 122.267 169.366 122.573 169.511C122.878 169.656 123.114 169.916 123.227 170.234C123.341 170.553 123.324 170.904 123.179 171.209C123.034 171.515 122.774 171.75 122.456 171.864Z" fill="#473534"/>
<path d="M120.57 166.582L100.545 173.73C100.226 173.844 99.8755 173.827 99.5698 173.682C99.264 173.537 99.0283 173.276 98.9146 172.958C98.8008 172.639 98.8183 172.288 98.9632 171.982C99.1081 171.677 99.3686 171.441 99.6872 171.327L119.713 164.179C119.871 164.123 120.038 164.098 120.205 164.106C120.373 164.114 120.537 164.155 120.689 164.227C120.84 164.299 120.976 164.4 121.089 164.524C121.201 164.648 121.288 164.794 121.344 164.951C121.401 165.109 121.425 165.277 121.417 165.444C121.409 165.612 121.367 165.776 121.295 165.927C121.224 166.079 121.122 166.214 120.998 166.327C120.874 166.439 120.728 166.526 120.57 166.582Z" fill="#473534"/>
<path d="M102.386 65.5882C103.038 70.8497 106.684 75.1878 111.986 75.1878C114.532 75.1878 116.974 74.1764 118.774 72.3762C120.574 70.5759 121.585 68.1342 121.585 65.5882C121.585 60.2865 117.265 56.4788 111.986 55.9886C106.385 55.4685 101.549 58.8332 102.386 65.5882Z" fill="#2F2E41"/>
<path d="M120.343 130.259C114.465 131.269 108.445 131.109 102.629 129.787C105.389 128.263 113.763 129.2 120.343 130.259Z" fill="#2F2E41"/>
<path d="M82.9799 147.144L87.5911 136L91.2242 138.018L89.0301 149.354C89.2499 150.073 89.2649 150.838 89.0736 151.564C88.8823 152.29 88.4922 152.949 87.9471 153.466C87.402 153.982 86.7237 154.337 85.9882 154.489C85.2528 154.641 84.4894 154.585 83.784 154.328C83.0786 154.07 82.459 153.621 81.995 153.03C81.531 152.439 81.2409 151.731 81.1574 150.985C81.0738 150.238 81.2001 149.484 81.5221 148.805C81.8441 148.126 82.3489 147.551 82.9799 147.144Z" fill="#FFB6B6"/>
<path d="M130.681 116.988V116.994C130.516 120.875 130.29 124.566 130.1 127.406C124.583 129.725 118.658 130.917 112.674 130.914C109.294 130.917 105.924 130.539 102.629 129.787C101.105 129.441 99.6012 129.012 98.1239 128.502C98.3296 128.369 98.5519 128.264 98.785 128.19C100.989 127.443 98.8095 126.764 98.8279 126.053C98.8952 123.458 99.6113 120.343 100.536 117.356L96.4223 127.884L94.2799 133.356C94.2799 133.356 94.3534 138.081 92.9945 136.637C91.6296 135.192 91.7275 139.868 91.7275 139.868C91.3033 140.171 90.9381 140.548 90.6502 140.983C90.5291 141.178 90.4834 141.411 90.5217 141.637V141.644C90.5832 141.822 90.7043 141.973 90.8644 142.072C91.7887 142.696 90.4604 144.349 89.8728 145.004C89.7137 145.181 89.6097 145.286 89.6097 145.286L83.96 144.882V144.771C83.9845 144.104 84.1375 140.591 85.0128 139.752C85.9738 138.828 85.5025 137.365 85.5025 137.365C85.5025 137.365 88.012 135.143 86.3288 133.337C85.6555 132.609 85.9554 128.294 86.7817 122.711C88.5874 110.396 92.915 91.9107 94.788 92.1739C95.1739 90.2989 96.0704 88.5671 97.3784 87.1694C98.6864 85.7717 100.355 84.7626 102.2 84.2534L108.303 82.5762L109.393 78.2732H117.986L119.48 81.101L125.742 83.929L125.821 83.9657L126.017 84.0514L126.091 84.284C126.091 84.284 126.084 84.2901 126.091 84.2901L129.573 95.2283C131.14 97.0278 131.079 107.544 130.681 116.988Z" fill="#473534"/>
<path d="M145.315 139.029L139.496 128.466L143.342 126.891L150.821 135.687C151.519 135.964 152.126 136.43 152.574 137.034C153.021 137.637 153.291 138.353 153.354 139.101C153.417 139.85 153.27 140.601 152.929 141.27C152.589 141.939 152.068 142.5 151.426 142.89C150.784 143.28 150.046 143.483 149.295 143.476C148.544 143.469 147.81 143.253 147.175 142.852C146.54 142.451 146.03 141.881 145.701 141.205C145.372 140.53 145.239 139.776 145.315 139.029Z" fill="#FFB6B6"/>
<path d="M125.743 83.8446C126.778 85.7045 136.244 90.488 134.604 95.2903C134.604 95.2903 143.497 123.115 144.654 122.933C145.81 122.751 146.939 125.625 146.939 125.625C146.939 125.625 146.694 127.501 147.415 126.722C148.136 125.942 147.964 127.985 147.964 127.985C147.964 127.985 147.618 129.789 148.534 129.299C149.45 128.808 148.246 132.26 148.246 132.26L142.742 134.851L141.696 133.295C141.696 133.295 139.461 132.869 140.512 132.532C141.564 132.195 139.523 131.06 139.523 131.06C139.523 131.06 137.389 129.609 137.686 127.206C137.984 124.803 132.146 120.08 132.146 120.08C128.133 112.157 125.938 104.022 125.946 95.6313L125.743 83.8446Z" fill="#473534"/>
<path d="M113.047 75.7578C117.748 75.7578 121.559 71.9467 121.559 67.2453C121.559 62.544 117.748 58.7328 113.047 58.7328C108.345 58.7328 104.534 62.544 104.534 67.2453C104.534 71.9467 108.345 75.7578 113.047 75.7578Z" fill="#FFB6B6"/>
<path d="M104.232 68.1727C104.502 70.0225 106.078 72.6033 105.709 72.6033C105.34 72.6033 102.715 64.9778 105.34 64.4806C107.244 64.1199 107.67 64.4363 109.449 63.6646L109.198 63.9009C110.376 64.7575 112.015 64.2295 113.359 63.672C114.707 63.1182 116.342 62.5902 117.524 63.4431C118.266 63.9784 118.58 64.9088 119.041 65.699C119.503 66.4928 120.356 67.2423 121.235 66.9986C121.577 66.8663 121.869 66.6289 122.068 66.3204C122.267 66.0119 122.363 65.6483 122.342 65.2818C122.339 64.5507 121.387 63.8553 121.707 63.1994C122.657 61.2557 121.803 59.9308 119.732 59.0162C118.979 58.9017 118.225 58.7848 117.472 58.6654C117.867 58.1188 118.345 57.6378 118.89 57.2403C118.66 56.6503 118.262 56.1407 117.746 55.7745C117.107 55.4778 116.396 55.3751 115.7 55.4791C114.142 55.5603 112.585 55.6415 111.029 55.7228C109.871 55.7021 108.721 55.926 107.655 56.38C106.37 57.0409 105.528 58.3294 104.915 59.6402C103.542 62.5865 103.76 64.9569 104.232 68.1727Z" fill="#2F2E41"/>
<path d="M317.174 62.5894H189.157C189.016 62.5894 188.88 62.5334 188.781 62.4337C188.681 62.334 188.625 62.1988 188.625 62.0579C188.625 61.9169 188.681 61.7817 188.781 61.682C188.88 61.5823 189.016 61.5263 189.157 61.5263H317.174C317.315 61.5263 317.45 61.5823 317.55 61.682C317.65 61.7817 317.706 61.9169 317.706 62.0579C317.706 62.1988 317.65 62.334 317.55 62.4337C317.45 62.5334 317.315 62.5894 317.174 62.5894Z" fill="#E6E6E6"/>
<path d="M317.174 95.5438H189.157C189.016 95.5438 188.88 95.4878 188.781 95.3881C188.681 95.2885 188.625 95.1533 188.625 95.0123C188.625 94.8713 188.681 94.7361 188.781 94.6365C188.88 94.5368 189.016 94.4808 189.157 94.4808H317.174C317.315 94.4808 317.45 94.5368 317.55 94.6365C317.65 94.7361 317.706 94.8713 317.706 95.0123C317.706 95.1533 317.65 95.2885 317.55 95.3881C317.45 95.4878 317.315 95.5438 317.174 95.5438Z" fill="#E6E6E6"/>
<path d="M317.174 128.498H189.157C189.016 128.498 188.88 128.442 188.781 128.342C188.681 128.243 188.625 128.107 188.625 127.966C188.625 127.826 188.681 127.69 188.781 127.591C188.88 127.491 189.016 127.435 189.157 127.435H317.174C317.315 127.435 317.45 127.491 317.55 127.591C317.65 127.69 317.706 127.826 317.706 127.966C317.706 128.107 317.65 128.243 317.55 128.342C317.45 128.442 317.315 128.498 317.174 128.498Z" fill="#E6E6E6"/>
<path d="M336.228 126.391C331.542 126.391 327.009 124.717 323.448 121.671C322.259 120.654 320.993 118.886 319.685 116.416C318.85 114.825 318.382 113.067 318.316 111.272C318.25 109.476 318.588 107.689 319.304 106.041C318.613 106.743 317.85 107.369 317.026 107.909L316.61 108.186L316.586 107.687C316.57 107.362 316.562 107.038 316.562 106.725C316.562 104.877 317.96 103.002 317.315 101.294C314.599 94.0963 305.983 86.9429 318.47 75.8028C319.625 74.7723 318.082 72.7119 318.082 71.1527C318.082 55.8726 339.678 29.4374 345.799 43.4413C353.347 60.7116 366.352 58.8644 372.113 62.4315L372.197 62.6839L371.951 62.7835C370.69 63.3134 369.362 63.6667 368.004 63.8332C369.451 64.1283 370.928 64.2521 372.405 64.2019L372.633 64.1939L372.689 64.4163C373.238 66.6197 373.516 68.882 373.515 71.1527L373.514 71.3982C373.509 73.1229 373.868 74.8294 374.566 76.4063C375.265 77.9833 376.288 79.3952 377.569 80.5502C379.592 82.395 381.209 84.6411 382.316 87.1453C383.424 89.6496 383.997 92.357 384 95.0951C384 98.3344 381.798 102.587 379.951 105.583C379.483 106.347 378.848 106.994 378.094 107.477C377.34 107.96 376.487 108.266 375.597 108.372C374.755 108.478 373.9 108.398 373.092 108.137C372.284 107.876 371.544 107.441 370.923 106.862C371.797 108.62 372.936 110.233 374.301 111.644L374.553 111.904L374.24 112.086C371.233 113.84 367.814 114.763 364.334 114.761L364.13 114.761C361.578 114.735 359.046 115.218 356.683 116.182C354.32 117.147 352.173 118.573 350.368 120.378C348.53 122.271 346.333 123.778 343.905 124.811C341.477 125.843 338.867 126.381 336.228 126.391Z" fill="#E6E6E6"/>
<path d="M329.463 157.535C329.378 157.535 329.296 157.504 329.231 157.449C329.167 157.393 329.125 157.316 329.113 157.231C328.188 148.984 328.133 140.662 328.948 132.404C330.169 119.375 334.089 100.609 345.833 85.1974C345.861 85.1605 345.896 85.1294 345.936 85.1061C345.976 85.0827 346.02 85.0675 346.067 85.0613C346.113 85.0551 346.159 85.058 346.204 85.0699C346.249 85.0817 346.291 85.1023 346.328 85.1305C346.365 85.1586 346.396 85.1938 346.42 85.2339C346.443 85.2741 346.458 85.3184 346.464 85.3645C346.471 85.4105 346.468 85.4573 346.456 85.5022C346.444 85.5471 346.423 85.5892 346.395 85.6262C334.753 100.905 330.865 119.533 329.652 132.47C328.842 140.673 328.896 148.939 329.813 157.132C329.82 157.182 329.817 157.233 329.802 157.282C329.788 157.33 329.763 157.375 329.73 157.413C329.697 157.452 329.656 157.482 329.61 157.503C329.564 157.524 329.513 157.535 329.463 157.535Z" fill="#3F3D56"/>
<path d="M339.046 106.937C338.971 106.937 338.898 106.913 338.838 106.869C338.777 106.825 338.732 106.764 338.709 106.693C338.686 106.621 338.686 106.545 338.709 106.474C338.732 106.403 338.777 106.341 338.838 106.297C342.184 104.032 345.799 102.192 349.599 100.819C355.536 98.6452 364.565 96.6746 373.859 99.6328C373.903 99.6469 373.945 99.6695 373.98 99.6995C374.016 99.7294 374.045 99.7661 374.066 99.8073C374.087 99.8486 374.1 99.8936 374.104 99.9399C374.108 99.9862 374.103 100.033 374.089 100.077C374.075 100.121 374.052 100.162 374.022 100.198C373.992 100.233 373.956 100.263 373.914 100.284C373.873 100.305 373.828 100.318 373.782 100.322C373.736 100.326 373.689 100.321 373.645 100.307C364.541 97.4094 355.676 99.3474 349.842 101.483C346.103 102.833 342.546 104.642 339.253 106.869C339.193 106.913 339.12 106.937 339.046 106.937Z" fill="#3F3D56"/>
<path d="M322.859 66.6205C322.853 66.546 322.872 66.4717 322.911 66.4082C322.951 66.3448 323.009 66.2954 323.078 66.2672C323.147 66.2391 323.224 66.2335 323.296 66.2514C323.369 66.2693 323.434 66.3097 323.482 66.3668C325.982 69.5412 328.078 73.0141 329.721 76.7057C332.316 82.4709 334.932 91.334 332.651 100.818C332.64 100.863 332.621 100.905 332.593 100.943C332.566 100.981 332.532 101.013 332.492 101.037C332.452 101.061 332.408 101.078 332.362 101.085C332.316 101.092 332.269 101.091 332.224 101.08C332.179 101.069 332.136 101.049 332.099 101.022C332.061 100.994 332.029 100.96 332.005 100.92C331.981 100.88 331.965 100.836 331.957 100.79C331.95 100.744 331.952 100.697 331.963 100.652C334.197 91.3629 331.626 82.6607 329.076 76.9961C327.461 73.3638 325.4 69.9465 322.941 66.8228C322.893 66.7658 322.864 66.695 322.859 66.6205Z" fill="#3F3D56"/>
<path d="M33.6318 119.315C31.8269 117.511 29.6801 116.084 27.317 115.12C24.9539 114.155 22.4221 113.672 19.8699 113.698L19.6661 113.699C16.1854 113.7 12.7667 112.777 9.75983 111.024L9.44695 110.841L9.69895 110.582C11.0633 109.17 12.2025 107.557 13.0767 105.799C12.4559 106.378 11.7153 106.814 10.9076 107.075C10.0998 107.336 9.24458 107.416 8.40239 107.31C7.51324 107.204 6.65965 106.898 5.90562 106.415C5.15159 105.932 4.51671 105.284 4.04861 104.521C2.20163 101.524 0 97.2719 0 94.0326C0.00287437 91.2945 0.576171 88.5871 1.68335 86.0828C2.79054 83.5786 4.40732 81.3325 6.43064 79.4878C7.71158 78.3328 8.73472 76.9208 9.43335 75.3438C10.132 73.7669 10.4904 72.0604 10.4853 70.3357L10.4843 70.0902C10.484 67.8195 10.7614 65.5572 11.3106 63.3539L11.3663 63.1314L11.5953 63.1393C13.0715 63.1896 14.5485 63.0658 15.9958 62.7707C14.6382 62.6042 13.3102 62.2509 12.0493 61.721L11.803 61.6214L11.8866 61.369C17.6479 57.8019 30.6528 59.6491 38.2012 42.3788C44.3219 28.3749 65.9179 54.8101 65.9179 70.0902C65.9179 71.6494 64.3749 73.7098 65.53 74.7403C78.0169 85.8803 69.4011 93.0338 66.6847 100.232C66.0402 101.94 67.4377 103.815 67.4377 105.662C67.4377 105.976 67.4297 106.299 67.4139 106.624L67.3899 107.123L66.9735 106.846C66.1499 106.307 65.3864 105.681 64.6962 104.978C65.4122 106.626 65.7497 108.414 65.6838 110.209C65.6178 112.005 65.1501 113.763 64.315 115.354C63.0064 117.824 61.7404 119.592 60.5522 120.609C56.746 123.866 51.8392 125.546 46.8353 125.306C41.8313 125.065 37.1083 122.923 33.6318 119.315Z" fill="#E6E6E6"/>
<path d="M54.5375 156.473C54.6225 156.473 54.7047 156.442 54.769 156.386C54.8332 156.33 54.8752 156.253 54.8872 156.169C55.812 147.922 55.8673 139.6 55.0521 131.341C53.8314 118.313 49.9112 99.5469 38.1677 84.1349C38.1396 84.098 38.1044 84.0669 38.0643 84.0436C38.0241 84.0202 37.9798 84.005 37.9337 83.9988C37.8877 83.9926 37.8409 83.9955 37.796 84.0074C37.7511 84.0192 37.709 84.0398 37.672 84.068C37.6351 84.0961 37.604 84.1313 37.5807 84.1714C37.5573 84.2116 37.5421 84.2559 37.5359 84.302C37.5297 84.348 37.5326 84.3948 37.5445 84.4397C37.5563 84.4846 37.5769 84.5267 37.6051 84.5637C49.2471 99.8426 53.1357 118.471 54.3479 131.407C55.1586 139.611 55.1047 147.877 54.1869 156.069C54.1798 156.119 54.1835 156.17 54.1979 156.219C54.2123 156.268 54.2369 156.313 54.2701 156.351C54.3034 156.389 54.3444 156.42 54.3906 156.441C54.4367 156.462 54.4868 156.473 54.5375 156.473Z" fill="#3F3D56"/>
<path d="M44.9538 105.874C45.0285 105.874 45.1013 105.851 45.1618 105.807C45.2223 105.763 45.2673 105.701 45.2904 105.63C45.3135 105.559 45.3136 105.482 45.2905 105.411C45.2674 105.34 45.2225 105.278 45.162 105.234C41.8158 102.969 38.201 101.129 34.4007 99.7563C28.4635 97.5827 19.435 95.6121 10.1404 98.5703C10.0962 98.5844 10.0551 98.607 10.0196 98.637C9.98414 98.6669 9.95491 98.7036 9.93357 98.7448C9.91224 98.7861 9.89923 98.8311 9.89531 98.8774C9.89138 98.9237 9.89662 98.9702 9.9107 99.0145C9.92478 99.0588 9.94744 99.0998 9.97738 99.1353C10.0073 99.1708 10.044 99.2 10.0852 99.2214C10.1265 99.2427 10.1715 99.2557 10.2178 99.2596C10.2641 99.2636 10.3107 99.2583 10.3549 99.2443C19.4591 96.3469 28.3239 98.2849 34.1575 100.421C37.8967 101.77 41.4535 103.579 44.7462 105.807C44.8065 105.851 44.8792 105.874 44.9538 105.874Z" fill="#3F3D56"/>
<path d="M61.1412 65.558C61.1467 65.4835 61.1284 65.4092 61.089 65.3457C61.0496 65.2823 60.9911 65.2329 60.9219 65.2047C60.8527 65.1765 60.7763 65.171 60.7038 65.1889C60.6313 65.2068 60.5663 65.2472 60.5181 65.3043C58.018 68.4787 55.9223 71.9516 54.2792 75.6432C51.6837 81.4084 49.068 90.2715 51.3492 99.755C51.3599 99.8003 51.3795 99.843 51.4068 99.8807C51.4341 99.9184 51.4685 99.9503 51.5081 99.9746C51.5478 99.999 51.5919 100.015 51.6378 100.023C51.6838 100.03 51.7307 100.028 51.7759 100.017C51.8212 100.006 51.8638 99.9866 51.9014 99.9592C51.939 99.9318 51.9708 99.8972 51.9951 99.8575C52.0193 99.8178 52.0355 99.7737 52.0426 99.7277C52.0498 99.6818 52.0478 99.6348 52.0368 99.5896C49.8026 90.3004 52.374 81.5982 54.9243 75.9336C56.5395 72.3013 58.6002 68.884 61.0589 65.7603C61.107 65.7033 61.1359 65.6325 61.1412 65.558Z" fill="#3F3D56"/>
</g>
<defs>
<clipPath id="clip0_82_10008">
<rect width="384" height="193.579" fill="white" transform="translate(0 0.210556)"/>
</clipPath>
</defs>
</svg>
