<svg width="100" height="72" viewBox="0 0 100 72" fill="none" xmlns="http://www.w3.org/2000/svg">
<g clip-path="url(#clip0_82_6542)">
<path opacity="0.2" d="M25.8146 42.0142C25.8146 42.0142 26.0238 46.1987 17.0969 51.3596C17.0969 51.3596 17.0863 51.3824 82.4445 51.3596C82.4445 51.3596 74.9821 46.0592 74.494 40.1312" fill="black"/>
<path d="M74.2176 39.0227V3.86033C74.6384 3.75135 75.0111 3.50571 75.2772 3.16198C75.5433 2.81824 75.6877 2.39586 75.6877 1.96117C75.6877 1.70363 75.637 1.44861 75.5384 1.21067C75.4399 0.972727 75.2954 0.756529 75.1133 0.574418C74.9312 0.392307 74.715 0.24785 74.4771 0.149293C74.2391 0.0507353 73.9841 8.94262e-06 73.7265 9.53675e-06H26.6585C26.4009 9.09115e-06 26.1459 0.0507352 25.908 0.149293C25.67 0.24785 25.4539 0.392309 25.2717 0.574419C25.0896 0.75653 24.9452 0.972727 24.8466 1.21067C24.7481 1.44861 24.6973 1.70363 24.6973 1.96117C24.6973 2.48131 24.9039 2.98014 25.2717 3.34793C25.6395 3.71572 26.1384 3.92234 26.6585 3.92234H26.6589L25.5693 39.0539L16.8206 50.2511C16.8206 50.2511 16.747 50.2513 82.1681 50.2511C82.1681 50.2511 82.1221 50.3644 74.2176 39.0227Z" fill="#E6E6E6"/>
<path opacity="0.2" d="M51.9626 46.3006C59.9212 46.3006 66.3729 45.8044 66.3729 45.1922C66.3729 44.58 59.9212 44.0837 51.9626 44.0837C44.004 44.0837 37.5522 44.58 37.5522 45.1922C37.5522 45.8044 44.004 46.3006 51.9626 46.3006Z" fill="black"/>
<path opacity="0.2" d="M26.6584 3.92239L74.2176 5.30749L74.2382 3.83711L26.6584 3.92239Z" fill="black"/>
<path d="M61.0211 16.2539V20.577C61.021 20.617 61.0051 20.6552 60.9769 20.6835C60.9486 20.7117 60.9103 20.7276 60.8704 20.7277H60.7631V43.2484C60.7631 43.8716 60.5155 44.4692 60.0748 44.9099C59.6342 45.3506 59.0365 45.5982 58.4133 45.5982H44.3414C44.0329 45.5982 43.7274 45.5374 43.4424 45.4192C43.1573 45.3011 42.8983 45.128 42.6802 44.9098C42.462 44.6916 42.289 44.4326 42.171 44.1475C42.053 43.8625 41.9922 43.5569 41.9923 43.2484V21.5176H41.9146C41.8864 21.5176 41.8594 21.5065 41.8394 21.4866C41.8194 21.4668 41.8081 21.4398 41.808 21.4116V18.9512C41.808 18.9372 41.8107 18.9234 41.8161 18.9104C41.8215 18.8975 41.8293 18.8857 41.8392 18.8758C41.8491 18.8659 41.8609 18.8581 41.8738 18.8527C41.8868 18.8474 41.9006 18.8446 41.9146 18.8446H41.9923V17.9178H41.914C41.8844 17.9177 41.8561 17.9059 41.8352 17.8849C41.8143 17.8639 41.8027 17.8355 41.8027 17.8059V15.3791C41.8028 15.3497 41.8146 15.3214 41.8354 15.3006C41.8562 15.2797 41.8845 15.268 41.914 15.2679H41.9923V14.0028H41.9126C41.8997 14.0028 41.8868 14.0003 41.8748 13.9953C41.8629 13.9904 41.852 13.9831 41.8428 13.9739C41.8336 13.9648 41.8264 13.9539 41.8214 13.9419C41.8164 13.9299 41.8139 13.917 41.8139 13.9041V12.5798C41.8139 12.5535 41.8242 12.5283 41.8427 12.5097C41.8612 12.491 41.8864 12.4805 41.9126 12.4804H41.9923V9.79882C41.9923 9.1758 42.2398 8.57829 42.6804 8.13775C43.1209 7.6972 43.7184 7.4497 44.3414 7.44967H58.4133C59.0364 7.44967 59.634 7.69715 60.0746 8.13768C60.5153 8.57821 60.763 9.17573 60.7631 9.79882V16.1032H60.8704C60.9103 16.1033 60.9486 16.1192 60.9769 16.1474C61.0051 16.1757 61.021 16.2139 61.0211 16.2539Z" fill="#3F3D56"/>
<path d="M52.0552 8.65464H49.7686C49.6762 8.65464 49.6013 8.72955 49.6013 8.82195V9.01959C49.6013 9.11199 49.6762 9.1869 49.7686 9.1869H52.0552C52.1476 9.1869 52.2225 9.11199 52.2225 9.01959V8.82195C52.2225 8.72955 52.1476 8.65464 52.0552 8.65464Z" fill="#E6E8EC"/>
<path d="M52.9208 9.22267C53.0875 9.22267 53.2227 9.0875 53.2227 8.92077C53.2227 8.75404 53.0875 8.61887 52.9208 8.61887C52.7541 8.61887 52.6189 8.75404 52.6189 8.92077C52.6189 9.0875 52.7541 9.22267 52.9208 9.22267Z" fill="#E6E8EC"/>
<path d="M59.638 10.2635V43.4432C59.6378 43.8385 59.4807 44.2175 59.2011 44.4969C58.9215 44.7764 58.5424 44.9334 58.1471 44.9334H44.6769C44.4811 44.9337 44.2871 44.8954 44.1061 44.8207C43.9251 44.7459 43.7607 44.6362 43.6222 44.4977C43.4837 44.3593 43.3739 44.1949 43.299 44.0139C43.2242 43.833 43.1858 43.639 43.186 43.4432V10.2635C43.186 10.0677 43.2246 9.87386 43.2995 9.69298C43.3744 9.5121 43.4842 9.34775 43.6227 9.20931C43.7611 9.07087 43.9255 8.96105 44.1064 8.88614C44.2872 8.81122 44.4811 8.77266 44.6769 8.77267H46.693V9.03134C46.693 9.35691 46.8223 9.66914 47.0525 9.89936C47.2827 10.1296 47.595 10.2589 47.9205 10.2589H54.7712C55.0968 10.2589 55.409 10.1296 55.6392 9.89935C55.8694 9.66914 55.9987 9.35691 55.9987 9.03134V8.77267H58.1471C58.3429 8.7726 58.5368 8.81112 58.7177 8.88602C58.8987 8.96092 59.063 9.07073 59.2015 9.20918C59.3399 9.34763 59.4497 9.51201 59.5246 9.69291C59.5995 9.87382 59.6381 10.0677 59.638 10.2635Z" fill="white"/>
<path d="M58.2848 30.6159H44.594V32.3931H58.2848V30.6159Z" fill="#E6E6E6"/>
<path d="M58.2848 33.7753H44.594V35.5525H58.2848V33.7753Z" fill="#E6E6E6"/>
<path d="M58.2848 36.9347H44.594V38.7119H58.2848V36.9347Z" fill="#E6E6E6"/>
<path d="M58.2574 17.8467H44.5667V26.93H58.2574V17.8467Z" fill="#E6E6E6"/>
<path d="M25.8387 5.224L18.8178 5.26761C18.8178 5.26761 7.26165 11.4164 15.3728 24.1499C15.3728 24.1499 18.687 23.365 22.3501 26.0687C22.3501 26.0687 24.4869 5.70369 25.8387 5.224Z" fill="#473534"/>
<path opacity="0.2" d="M23.7504 5.28774C22.4926 10.5419 21.0707 24.0934 21.0707 24.0934C17.798 21.6779 14.8059 22.0468 14.2048 22.1529C14.5593 22.8548 14.9492 23.5383 15.373 24.2007C15.373 24.2007 18.6872 23.4158 22.3503 26.1195C22.3503 26.1195 24.4871 5.75446 25.8389 5.27477L23.7504 5.28774Z" fill="black"/>
<path d="M15.3294 11.8088L14.7188 14.7742L7.0464 13.3796L7.04379 13.3787L6.86938 9.89008H8.35209L15.3294 11.8088Z" fill="#3F3D56"/>
<path opacity="0.2" d="M8.22824 9.89008L7.0464 13.3796L7.04379 13.3787L6.86938 9.89008H8.22824Z" fill="black"/>
<path d="M15.0677 15.1231C15.5494 15.1231 15.9399 14.225 15.9399 13.1171C15.9399 12.0092 15.5494 11.1111 15.0677 11.1111C14.586 11.1111 14.1956 12.0092 14.1956 13.1171C14.1956 14.225 14.586 15.1231 15.0677 15.1231Z" fill="#3F3D56"/>
<path d="M10.5325 55.5091C10.4975 55.5091 10.4628 55.5022 10.4304 55.4888C10.3981 55.4754 10.3687 55.4558 10.3439 55.431C10.3192 55.4063 10.2996 55.3769 10.2862 55.3446C10.2728 55.3122 10.2659 55.2775 10.2659 55.2425V13.1171C10.2659 13.0464 10.294 12.9786 10.344 12.9286C10.3939 12.8786 10.4618 12.8505 10.5325 12.8505C10.6032 12.8505 10.671 12.8786 10.721 12.9286C10.771 12.9786 10.799 13.0464 10.799 13.1171V55.2425C10.799 55.2775 10.7921 55.3122 10.7788 55.3445C10.7654 55.3769 10.7457 55.4063 10.721 55.431C10.6962 55.4558 10.6668 55.4754 10.6345 55.4888C10.6021 55.5022 10.5675 55.5091 10.5325 55.5091Z" fill="#3F3D56"/>
<path d="M14.1952 62.9226C14.1334 62.9225 14.0736 62.9009 14.0259 62.8616C13.9783 62.8223 13.9457 62.7677 13.9339 62.707L10.2708 43.9283C10.259 43.8677 10.2686 43.8048 10.298 43.7504C10.3274 43.6961 10.3747 43.6537 10.432 43.6304C10.4892 43.6071 10.5527 43.6044 10.6117 43.6227C10.6707 43.6411 10.7215 43.6794 10.7554 43.7311L20.4364 58.4978C20.4751 58.5569 20.4888 58.629 20.4744 58.6983C20.4601 58.7675 20.4187 58.8282 20.3596 58.8669C20.3005 58.9057 20.2284 58.9194 20.1591 58.905C20.0899 58.8906 20.0292 58.8493 19.9905 58.7902L11.0541 45.1593L14.4572 62.605C14.4639 62.6393 14.4637 62.6747 14.4568 62.709C14.4498 62.7433 14.4362 62.7759 14.4166 62.8049C14.3971 62.834 14.372 62.8589 14.3428 62.8782C14.3136 62.8976 14.2809 62.911 14.2466 62.9177C14.2296 62.9209 14.2124 62.9226 14.1952 62.9226Z" fill="#3F3D56"/>
<path d="M0.414964 59.6083C0.366919 59.6082 0.319782 59.5952 0.278538 59.5705C0.237295 59.5459 0.203477 59.5106 0.180662 59.4683C0.157846 59.426 0.146879 59.3783 0.148923 59.3303C0.150967 59.2823 0.165944 59.2358 0.192271 59.1956L10.3094 43.7584C10.3482 43.6994 10.4088 43.6582 10.478 43.6438C10.5471 43.6295 10.6191 43.6432 10.6782 43.6819C10.7372 43.7206 10.7785 43.7812 10.793 43.8503C10.8074 43.9194 10.7939 43.9914 10.7553 44.0506L0.638177 59.4878C0.613927 59.5248 0.580814 59.5553 0.541838 59.5763C0.502863 59.5974 0.459255 59.6083 0.414964 59.6083Z" fill="#3F3D56"/>
<path d="M74.1611 5.224L81.182 5.26761C81.182 5.26761 92.7382 11.4164 84.6271 24.1499C84.6271 24.1499 81.3129 23.365 77.6498 26.0687C77.6498 26.0687 75.513 5.70369 74.1611 5.224Z" fill="#473534"/>
<path opacity="0.2" d="M76.2496 5.28774C77.5075 10.5419 78.9294 24.0934 78.9294 24.0934C82.2021 21.6779 85.1942 22.0468 85.7952 22.1529C85.4407 22.8548 85.0508 23.5383 84.6271 24.2007C84.6271 24.2007 81.3129 23.4158 77.6498 26.1195C77.6498 26.1195 75.513 5.75446 74.1611 5.27477L76.2496 5.28774Z" fill="black"/>
<path d="M84.6709 11.8088L85.2814 14.7742L92.9539 13.3796L92.9565 13.3787L93.1309 9.89008H91.6483L84.6709 11.8088Z" fill="#3F3D56"/>
<path opacity="0.2" d="M91.772 9.89008L92.9538 13.3796L92.9564 13.3787L93.1308 9.89008H91.772Z" fill="black"/>
<path d="M84.9325 15.1231C85.4141 15.1231 85.8046 14.225 85.8046 13.1171C85.8046 12.0092 85.4141 11.1111 84.9325 11.1111C84.4508 11.1111 84.0603 12.0092 84.0603 13.1171C84.0603 14.225 84.4508 15.1231 84.9325 15.1231Z" fill="#3F3D56"/>
<path d="M89.4678 55.5091C89.4328 55.5091 89.3981 55.5022 89.3657 55.4888C89.3334 55.4754 89.304 55.4558 89.2792 55.431C89.2545 55.4063 89.2349 55.3769 89.2215 55.3445C89.2081 55.3122 89.2012 55.2775 89.2012 55.2425V13.1171C89.2012 13.0464 89.2293 12.9786 89.2793 12.9286C89.3293 12.8786 89.3971 12.8505 89.4678 12.8505C89.5385 12.8505 89.6063 12.8786 89.6563 12.9286C89.7063 12.9786 89.7343 13.0464 89.7343 13.1171V55.2425C89.7343 55.2775 89.7275 55.3122 89.7141 55.3445C89.7007 55.3769 89.681 55.4063 89.6563 55.431C89.6315 55.4558 89.6021 55.4754 89.5698 55.4888C89.5374 55.5022 89.5028 55.5091 89.4678 55.5091Z" fill="#3F3D56"/>
<path d="M85.8049 62.9226C85.7877 62.9226 85.7705 62.9209 85.7536 62.9177C85.6842 62.9041 85.623 62.8636 85.5835 62.8049C85.544 62.7463 85.5294 62.6744 85.5429 62.605L88.9459 45.1592L80.0096 58.7902C79.9904 58.8195 79.9656 58.8447 79.9367 58.8644C79.9077 58.8841 79.8752 58.8979 79.8409 58.905C79.8066 58.9121 79.7713 58.9125 79.7369 58.9059C79.7025 58.8994 79.6697 58.8861 79.6404 58.8669C79.6112 58.8477 79.5859 58.823 79.5662 58.794C79.5465 58.7651 79.5327 58.7325 79.5256 58.6983C79.5185 58.664 79.5182 58.6286 79.5247 58.5942C79.5312 58.5598 79.5445 58.5271 79.5637 58.4978L89.2447 43.7311C89.2786 43.6794 89.3293 43.6411 89.3883 43.6228C89.4473 43.6044 89.5109 43.6071 89.5681 43.6304C89.6253 43.6537 89.6727 43.6961 89.7021 43.7504C89.7315 43.8048 89.7411 43.8677 89.7293 43.9283L86.0663 62.707C86.0544 62.7677 86.0219 62.8223 85.9742 62.8616C85.9265 62.9009 85.8667 62.9225 85.8049 62.9226Z" fill="#3F3D56"/>
<path d="M99.585 59.6083C99.5407 59.6083 99.4971 59.5974 99.4582 59.5763C99.4192 59.5553 99.3861 59.5248 99.3619 59.4878L89.2448 44.0506C89.2062 43.9914 89.1926 43.9194 89.2071 43.8503C89.2215 43.7812 89.2628 43.7206 89.3219 43.6819C89.3809 43.6432 89.4529 43.6295 89.5221 43.6438C89.5912 43.6582 89.6519 43.6994 89.6907 43.7584L99.8078 59.1956C99.8341 59.2358 99.8491 59.2823 99.8511 59.3303C99.8532 59.3784 99.8422 59.426 99.8194 59.4683C99.7965 59.5106 99.7627 59.5459 99.7215 59.5706C99.6802 59.5952 99.6331 59.6082 99.585 59.6083Z" fill="#3F3D56"/>
<path d="M43.9236 37.0182L45.8336 36.4864C45.8336 36.4864 46.5818 36.337 46.1246 34.8759C45.6675 33.4147 44.7608 33.8236 44.7608 33.8236L43.0664 34.3159L42.3975 34.5225L43.3387 35.843L43.4176 36.7232L43.9236 37.0182Z" fill="#3F3D56"/>
<path d="M40.2328 33.1575L39.6335 35.5513L42.704 38.5271L42.968 38.5933L43.6722 38.3954L44.2716 36.0018L43.6645 35.3634L44.285 35.2009L42.9609 33.9154L42.2699 34.0604L41.7157 33.5102L42.0897 33.3606L42.125 33.2198L41.6719 32.8632L40.2328 33.1575Z" fill="#3F3D56"/>
<path d="M43.1098 36.5338L42.7131 38.1179L40.8831 36.3878L41.3414 34.7817L43.1098 36.5338Z" fill="#473534"/>
<path d="M40.233 33.1575L40.1489 33.4932L43.2022 36.4635L43.4662 36.5295L44.1485 36.3449L44.186 36.3442L44.2717 36.0018L43.6647 35.3634L44.2852 35.2009L42.9611 33.9154L42.2701 34.0604L41.7159 33.5102L42.0899 33.3606L42.1252 33.2198L41.6721 32.8632L40.233 33.1575Z" stroke="#3F3D56" stroke-miterlimit="10"/>
<path d="M41.8897 33.1889C41.9128 33.0966 41.8212 32.9941 41.6851 32.96C41.549 32.926 41.42 32.9732 41.3968 33.0655C41.3737 33.1579 41.4653 33.2604 41.6014 33.2944C41.7375 33.3285 41.8665 33.2813 41.8897 33.1889Z" fill="#473534"/>
<path d="M43.8296 35.7508C43.8527 35.6584 43.7612 35.5559 43.6251 35.5219C43.489 35.4878 43.3599 35.535 43.3368 35.6274C43.3137 35.7197 43.4052 35.8222 43.5413 35.8563C43.6774 35.8904 43.8065 35.8431 43.8296 35.7508Z" fill="#473534"/>
<path d="M45.1927 40.0001L44.7761 38.5839C44.7761 38.5839 45.8591 36.0014 44.6095 35.7514C43.3599 35.5015 43.2766 38.1673 43.2766 38.1673L43.7765 39.7502L45.1927 40.0001Z" fill="#FFB6B6"/>
<path d="M37.4591 37.2464C39.2867 37.2464 40.7683 35.7649 40.7683 33.9372C40.7683 32.1096 39.2867 30.6281 37.4591 30.6281C35.6315 30.6281 34.1499 32.1096 34.1499 33.9372C34.1499 35.7649 35.6315 37.2464 37.4591 37.2464Z" fill="#FFB6B6"/>
<path d="M38.5298 36.2731C38.5298 36.2731 38.7244 38.7064 39.2111 38.901C39.6977 39.0957 33.9553 40.4583 33.9553 40.4583L35.4153 38.8037C35.4153 38.8037 35.7072 36.2731 35.026 35.6892L38.5298 36.2731Z" fill="#FFB6B6"/>
<path d="M43.1934 39.2503L44.5263 39.0837C44.5263 39.0837 46.1091 39.9168 46.1091 40.9998C46.1091 42.0828 47.0255 43.8322 47.0255 43.8322C47.0255 43.8322 47.6919 46.1648 46.1924 46.3314C44.6929 46.498 43.36 43.8322 43.36 43.8322L43.1934 39.2503Z" fill="#473534"/>
<path d="M43.943 52.4962C43.943 52.4962 46.8588 49.747 47.6918 49.9136C48.5249 50.0802 50.191 50.3302 50.191 51.5798C50.191 52.8294 47.4419 55.7451 47.4419 55.7451C47.4419 55.7451 45.3592 60.327 43.3598 60.4936C42.0446 60.6129 40.7373 60.8076 39.4444 61.0768C39.4444 61.0768 40.3608 64.4091 39.861 65.3254C39.3611 66.2418 37.445 67.3248 37.2784 67.2415C37.1118 67.1582 34.7792 64.9922 33.7795 61.9099C32.7799 58.8275 32.1134 56.4949 33.0298 56.3283C33.9462 56.1617 43.943 52.4962 43.943 52.4962Z" fill="#2F2E41"/>
<path d="M49.9413 51.3299C49.9413 51.3299 50.5244 51.2465 50.4411 52.6628C50.3578 54.079 50.1079 59.1607 49.6914 60.1604C49.2748 61.1601 49.1915 62.3264 49.3581 62.7429C49.5247 63.1595 49.858 63.8259 49.2748 63.9092C48.6917 63.9925 46.2758 63.6593 46.0258 63.576C45.7759 63.4927 45.526 62.0765 45.6926 62.0765C45.8592 62.0765 46.2758 61.9932 46.1092 61.41C45.9425 60.8269 45.8592 60.8269 46.1092 60.6603C46.3591 60.4936 47.0255 60.2437 46.8589 60.0771C46.6923 59.9105 46.5257 55.9951 46.5257 55.9951L49.9413 51.3299Z" fill="#2F2E41"/>
<path d="M49.1083 63.6593C49.1083 63.6593 50.5245 63.2428 50.6911 64.1591C50.6911 64.1591 50.941 65.5754 49.858 66.0752C49.1591 66.4055 48.4902 66.7957 47.8587 67.2415C47.8587 67.2415 46.1092 67.908 46.0259 67.0749C45.9426 66.2418 46.3591 63.2428 46.3591 63.2428L49.1083 63.6593Z" fill="#2F2E41"/>
<path d="M39.6945 64.659L37.0287 62.493C37.0287 62.493 37.5285 65.1588 36.862 65.6587L36.5576 66.5487L37.4101 67.246C37.4101 67.246 40.0277 66.825 39.6945 64.659Z" fill="#2F2E41"/>
<path d="M35.9456 60.9935C35.9456 60.9935 37.6951 61.4933 37.4452 63.2428C37.1952 64.9922 36.8748 66.8929 36.8748 66.8929C36.8748 66.8929 36.7787 71.5735 35.5291 71.9067C34.2795 72.2399 33.9463 71.5735 33.9463 71.5735C33.9463 71.5735 32.5258 67.9159 32.9466 66.825C33.4559 65.5045 34.1898 64.0218 33.9463 63.576C33.7066 63.1373 34.1129 60.7436 35.9456 60.9935Z" fill="#2F2E41"/>
<path d="M34.9459 38.0007C34.9459 38.0007 35.6124 38.084 36.6954 38.2506C37.7784 38.4173 38.5281 37.5842 39.1113 37.7508C39.6944 37.9174 44.5262 39.0837 44.5262 39.0837L43.7765 44.8319C43.7765 44.8319 44.6929 51.4965 44.5262 52.6628C44.3596 53.8291 46.5256 53.6624 45.276 55.0787C44.0264 56.4949 41.8604 57.7445 37.4451 57.328C33.0299 56.9114 32.4467 56.9947 32.4467 56.3283C32.4467 55.6618 33.4464 49.9969 33.1132 49.4971C32.7799 48.9973 32.1135 48.4141 32.4467 47.831C32.7799 47.2478 33.1132 46.9146 32.6133 46.4147C32.1135 45.9149 31.8636 45.4151 31.8636 45.1651C31.8636 44.9152 30.6973 40.8332 30.6973 40.8332C30.6973 40.8332 31.1971 38.8338 31.7803 38.7505C32.3634 38.6672 32.8632 38.2506 33.2798 38.2506C33.6963 38.2506 33.9462 38.3339 34.1962 38.2506L34.9459 38.0007Z" fill="#473534"/>
<path d="M42.9348 32.7766C42.8919 32.584 42.6821 31.9403 42.2556 31.7832C41.9435 31.6683 41.3628 31.9111 41.0736 31.8708L41.0363 31.7649C41.0116 31.5563 40.9596 31.3519 40.8817 31.1568C40.7289 30.7667 40.4989 30.4115 40.2056 30.1125C39.9122 29.8134 39.5615 29.5767 39.1744 29.4165C38.2218 29.0182 36.7151 28.689 35.4079 29.7324C33.6124 31.1656 33.9288 33.3102 34.0592 33.9052C34.081 34.0045 34.0997 34.1044 34.1152 34.2049C34.1956 34.729 34.4275 34.7915 34.4275 34.7915C34.4275 34.7915 34.4225 34.7764 34.4144 34.7489L36.0362 34.9068L36.913 34.7571C36.9276 34.8429 36.9333 34.8935 36.9333 34.8935C39.4919 34.5025 40.9809 33.1548 41.2227 32.9211C41.4352 33.062 41.8311 33.2921 42.215 33.3426C42.7773 33.4165 42.9776 32.9691 42.9348 32.7766ZM36.3422 34.065L34.2819 33.9901C34.2527 33.4277 34.3979 32.7701 35.2261 32.7365C36.0246 32.7042 36.4604 33.3533 36.6914 33.9478L36.3422 34.065Z" fill="#2F2E41"/>
<path d="M36.8806 29.2562C37.079 29.2224 37.2295 29.134 37.2166 29.059C37.2038 28.9839 37.0326 28.9505 36.8341 28.9843C36.6357 29.0182 36.4852 29.1065 36.4981 29.1816C36.5109 29.2567 36.6821 29.2901 36.8806 29.2562Z" fill="#2F2E41"/>
</g>
<defs>
<clipPath id="clip0_82_6542">
<rect width="99.7027" height="72" fill="white" transform="translate(0.148682)"/>
</clipPath>
</defs>
</svg>
