<svg width="17" height="16" viewBox="0 0 17 16" fill="none" xmlns="http://www.w3.org/2000/svg">
<path d="M7.36667 14H3.83333C3.47971 14 3.14057 13.8595 2.89052 13.6095C2.64048 13.3594 2.5 13.0203 2.5 12.6667V3.33333C2.5 2.97971 2.64048 2.64057 2.89052 2.39052C3.14057 2.14048 3.47971 2 3.83333 2H13.1667C13.5203 2 13.8594 2.14048 14.1095 2.39052C14.3595 2.64057 14.5 2.97971 14.5 3.33333V10L12.4333 7.93333C12.1825 7.68745 11.8447 7.55051 11.4934 7.55225C11.1421 7.554 10.8057 7.6943 10.5573 7.94267L4.5 14M9.83333 13L11.8333 11M11.8333 11L13.8333 13M11.8333 11V14.6667M7.83333 6C7.83333 6.73638 7.23638 7.33333 6.5 7.33333C5.76362 7.33333 5.16667 6.73638 5.16667 6C5.16667 5.26362 5.76362 4.66667 6.5 4.66667C7.23638 4.66667 7.83333 5.26362 7.83333 6Z" stroke="#18181B" stroke-linecap="round" stroke-linejoin="round"/>
</svg>
